{"glyphs":{"0":{"ha":729,"x_min":32,"x_max":706,"o":"m 220 663 l 220 663 l 220 646 l 233 663 l 466 663 l 527 646 q 355 775 470 775 l 355 775 q 220 663 220 707 z m 357 616 l 111 568 l 111 536 l 185 536 q 353 277 201 294 l 353 277 l 400 281 q 553 519 553 314 l 553 519 l 553 536 l 541 552 l 541 568 l 553 568 l 590 536 l 639 536 l 639 568 l 553 584 l 545 592 l 531 596 l 528 600 l 357 616 z m 309 533 l 309 533 l 346 469 l 346 420 l 309 372 l 260 372 q 223 452 232 372 l 223 452 q 309 533 240 533 z m 481 533 l 481 533 l 517 469 l 517 420 l 481 372 l 431 372 q 395 452 404 372 l 395 452 q 481 533 412 533 z m 346 340 l 370 372 l 395 340 l 370 307 l 346 340 z m 607 817 l 607 817 q 680 666 653 754 q 706 470 706 577 l 706 470 q 679 274 706 362 q 605 124 652 186 l 605 124 q 498 30 559 63 q 369 -3 437 -3 l 369 -3 q 234 32 296 -3 q 127 131 172 67 l 127 131 q 57 281 83 193 q 32 470 32 370 l 32 470 q 59 667 32 581 q 132 817 85 753 l 132 817 q 240 912 178 880 q 369 945 302 945 l 369 945 q 500 912 439 945 q 607 817 562 878 z m 582 195 l 582 195 q 632 318 616 249 q 647 472 648 387 l 647 472 q 627 632 646 559 q 574 757 609 705 l 574 757 q 488 836 540 808 q 368 865 435 865 l 368 865 q 241 832 294 865 q 157 744 189 799 l 157 744 q 111 620 125 691 q 97 472 96 549 l 97 472 q 115 316 98 386 q 167 193 132 247 l 167 193 q 252 111 201 140 q 375 81 304 81 l 375 81 q 495 111 442 81 q 582 195 549 140 z m 214 627 l 214 627 l 214 621 l 227 627 l 460 627 l 521 621 q 352 649 464 669 l 352 649 q 214 627 214 644 z m 291 228 q 355 148 289 191 l 355 148 q 464 228 427 127 l 464 228 l 429 218 l 382 210 l 327 215 l 291 228 z m 401 255 l 425 287 l 450 255 l 425 222 l 401 255 z m 346 245 l 370 277 l 395 245 l 370 212 l 346 245 z m 292 252 l 316 283 l 341 252 l 316 219 l 292 252 z "},"1":{"ha":448,"x_min":-3,"x_max":407,"o":"m 407 48 l 407 0 l 91 0 l 91 48 q 135 54 105 50 q 176 63 164 58 l 176 63 q 198 85 190 70 q 205 131 205 100 l 205 131 l 205 607 l -3 536 l 129 854 l 123 747 q 148 670 106 634 q 237 803 190 707 l 237 803 l 298 975 q 299 646 300 705 q 298 541 298 587 l 298 541 l 298 138 q 305 96 298 115 q 326 68 312 77 l 326 68 q 366 55 338 61 q 407 48 393 49 l 407 48 z "},"2":{"ha":469,"x_min":50,"x_max":439,"o":"m 439 145 l 439 0 l 75 0 l 75 111 q 104 169 86 137 q 149 237 123 200 l 149 237 q 186 285 164 258 q 236 342 208 311 l 236 342 q 283 403 266 376 q 313 467 300 429 l 313 467 q 327 531 322 493 q 332 640 332 569 l 332 640 q 307 790 332 742 q 240 838 281 838 l 240 838 q 192 817 215 838 q 149 747 170 795 l 149 747 q 160 609 123 581 q 272 747 197 636 l 272 747 q 176 515 212 532 q 81 536 141 498 l 81 536 q 56 601 62 582 q 54 663 50 621 l 54 663 q 71 756 62 720 q 107 833 81 793 l 107 833 q 173 889 137 873 q 246 905 209 905 l 246 905 q 372 830 326 905 q 419 629 419 755 l 419 629 q 411 520 419 570 q 385 434 402 471 l 385 434 q 336 362 363 392 q 251 279 308 332 l 251 279 q 189 213 218 248 q 140 145 159 178 l 140 145 l 439 145 z "},"3":{"ha":615,"x_min":54,"x_max":713,"o":"m 176 23 l 294 28 l 181 58 q 536 514 713 205 l 536 514 l 562 725 q 226 954 481 849 l 226 954 l 178 964 l 334 1001 l 54 985 l 96 948 l 209 803 l 164 937 l 182 930 q 500 708 371 871 l 500 708 l 469 545 l 463 530 l 347 528 q 321 591 338 591 l 321 591 l 303 591 q 277 528 295 528 l 277 528 l 260 528 q 181 574 216 574 l 181 574 l 168 577 l 157 574 l 138 570 q 95 503 94 551 l 95 503 q 165 410 95 423 l 165 410 q 269 473 217 411 l 269 473 l 278 473 q 304 404 295 473 l 304 404 l 331 404 q 365 474 339 474 l 365 474 l 473 472 l 490 463 l 503 433 l 509 402 q 161 73 555 249 l 161 73 l 159 181 l 98 43 q 176 23 143 24 l 176 23 z m 142 526 l 174 532 l 207 518 l 211 471 l 192 448 l 142 456 l 125 486 l 142 526 z "},"4":{"ha":591,"x_min":24,"x_max":586,"o":"m 586 443 l 423 334 l 367 296 l 367 1 l 288 1 l 288 296 l 24 296 l 24 395 l 313 949 l 367 949 l 367 380 l 586 443 z m 96 372 l 333 378 l 315 699 l 96 372 z "},"5":{"ha":477,"x_min":-18,"x_max":460,"o":"m 395 570 l 395 570 q 441 480 423 535 q 460 342 460 425 l 460 342 q 398 104 460 198 q 241 10 336 10 l 241 10 q 116 66 168 10 q 65 195 65 122 l 65 195 q 25 499 68 355 q 167 311 -18 642 l 167 311 q 235 193 281 165 q 144 208 189 221 l 144 208 q 143 150 136 172 q 149 112 151 127 l 149 112 q 159 99 151 107 q 177 84 167 92 l 177 84 q 204 71 188 77 q 241 65 220 65 l 241 65 q 292 83 268 65 q 333 134 316 100 l 333 134 q 360 220 351 172 q 369 342 369 268 l 369 342 q 336 499 369 437 q 249 561 302 561 l 249 561 q 186 541 215 561 q 133 473 157 520 l 133 473 l 104 491 l 140 975 l 443 975 l 443 856 l 175 856 l 153 571 q 203 614 172 593 q 271 635 234 635 l 271 635 q 334 620 301 635 q 395 570 368 605 z "},"6":{"ha":527,"x_min":70,"x_max":514,"o":"m 509 307 l 509 307 q 492 177 509 237 q 447 74 475 117 l 447 74 q 374 2 414 25 q 290 -22 334 -22 l 290 -22 q 199 6 240 -22 q 130 83 159 33 l 130 83 q 86 207 102 134 q 70 372 70 280 l 70 372 q 166 773 70 610 q 514 1054 262 937 l 514 1054 l 416 631 l 379 876 q 239 753 293 852 q 170 513 186 654 l 170 513 q 247 584 209 564 q 327 605 285 605 l 327 605 q 456 519 402 605 q 509 307 509 434 z m 411 289 l 411 289 q 377 462 411 397 q 288 528 344 528 l 288 528 q 224 509 254 528 q 168 446 195 490 l 168 446 q 166 409 168 438 q 165 363 165 380 l 165 363 q 200 119 165 208 q 292 31 235 31 l 292 31 q 378 100 345 31 q 411 289 411 169 z "},"7":{"ha":466,"x_min":5,"x_max":427,"o":"m 427 974 l 427 930 l 127 -1 l 74 -1 l 357 860 l 191 860 q 143 856 155 860 q 121 833 132 852 l 121 833 q 121 812 126 834 q 95 570 115 790 l 95 570 l 5 909 l 31 974 l 427 974 z "},"8":{"ha":583,"x_min":71,"x_max":551,"o":"m 551 255 l 551 255 q 482 59 551 141 q 301 -23 413 -23 l 301 -23 q 134 52 197 -23 q 71 246 71 127 l 71 246 q 108 392 71 334 q 218 492 145 451 l 218 492 q 128 597 158 540 q 98 728 98 655 l 98 728 q 164 913 98 838 q 321 987 229 987 l 321 987 q 469 917 412 987 q 526 740 526 846 l 526 740 q 494 610 526 671 q 402 509 463 549 l 402 509 q 516 403 481 461 q 551 255 551 345 z m 436 747 l 436 747 q 402 882 436 830 q 314 934 368 934 l 314 934 q 226 884 260 934 q 192 760 192 834 l 192 760 q 231 640 192 689 q 369 534 270 590 l 369 534 q 420 620 405 566 q 436 747 436 673 z m 456 223 l 456 223 q 443 298 456 266 q 406 357 430 330 l 406 357 q 341 411 383 382 q 252 468 300 439 l 252 468 q 185 378 206 433 q 163 254 163 323 l 163 254 q 204 93 163 154 q 314 31 245 31 l 314 31 q 417 85 379 31 q 456 223 456 140 z "},"9":{"ha":586,"x_min":-3,"x_max":541,"o":"m 541 595 l 541 595 q 514 373 541 477 q 435 191 486 269 l 435 191 q 313 65 385 113 q 150 -5 242 17 l 150 -5 l 52 132 l -3 350 q 314 157 214 10 q 431 451 414 304 l 431 451 q 349 381 390 404 q 258 359 309 359 l 258 359 q 116 446 176 359 q 56 663 56 532 l 56 663 q 126 899 56 803 q 298 996 195 996 l 298 996 q 475 888 409 996 q 541 595 541 780 z m 435 604 l 435 604 q 397 852 435 762 q 297 942 359 942 l 297 942 q 201 872 237 942 q 165 681 165 803 l 165 681 q 202 505 165 571 q 301 438 239 438 l 301 438 q 373 457 340 438 q 433 519 405 477 l 433 519 q 434 530 433 522 q 435 553 435 538 l 435 553 q 435 576 435 563 q 435 604 435 590 z "}," ":{"ha":386,"x_min":null,"x_max":null,"o":""},"!":{"ha":460,"x_min":140,"x_max":326,"o":"m 320 896 l 320 896 q 298 668 320 862 q 258 293 275 474 l 258 293 l 205 293 q 169 668 191 474 q 146 896 146 862 l 146 896 q 171 961 146 935 q 233 987 195 987 l 233 987 q 296 961 271 987 q 320 896 320 935 z m 326 78 l 326 78 q 299 13 326 40 q 233 -14 271 -14 l 233 -14 q 168 13 195 -14 q 140 78 140 40 l 140 78 q 168 143 140 116 q 233 171 195 171 l 233 171 q 299 143 271 171 q 326 78 326 116 z "},"\"":{"ha":572,"x_min":80,"x_max":492,"o":"m 492 961 l 492 961 q 474 857 492 934 q 435 656 456 779 l 435 656 l 393 656 q 358 847 377 756 q 338 961 338 938 l 338 961 q 357 1015 338 992 q 415 1037 376 1037 l 415 1037 q 472 1015 452 1037 q 492 961 492 992 z m 233 961 l 233 961 q 215 857 233 934 q 176 656 197 779 l 176 656 l 134 656 q 98 853 116 771 q 80 961 80 935 l 80 961 q 99 1015 80 992 q 157 1037 118 1037 l 157 1037 q 213 1015 193 1037 q 233 961 233 992 z "},"#":{"ha":893,"x_min":104,"x_max":789,"o":"m 789 589 l 789 505 l 620 505 l 571 335 l 748 335 l 748 252 l 547 252 l 475 0 l 399 0 l 472 252 l 325 252 l 252 0 l 177 0 l 250 252 l 104 252 l 104 335 l 273 335 l 323 505 l 145 505 l 145 589 l 346 589 l 417 834 l 492 834 l 421 589 l 568 589 l 640 834 l 715 834 l 644 589 l 789 589 z m 496 334 l 547 507 l 397 507 l 347 334 l 496 334 z "},"$":{"ha":847,"x_min":105,"x_max":748,"o":"m 690 393 l 690 393 q 733 332 718 367 q 748 248 748 296 l 748 248 q 667 69 748 141 q 462 -12 585 -3 l 462 -12 l 462 -203 l 406 -203 l 406 -13 q 189 51 272 -10 q 105 203 105 113 l 105 203 q 123 265 105 243 q 172 286 140 286 l 172 286 q 229 268 208 286 q 249 226 249 250 l 249 226 q 236 171 249 208 q 220 120 223 134 l 220 120 q 288 63 239 85 q 406 41 336 41 l 406 41 l 406 384 q 354 403 376 395 q 296 426 332 411 l 296 426 q 174 510 218 458 q 130 644 130 562 l 130 644 q 212 809 130 742 q 406 878 293 876 l 406 878 l 406 1034 l 462 1034 l 462 878 q 581 859 529 877 q 665 813 632 840 l 665 813 q 714 753 697 786 q 730 690 730 721 l 730 690 q 716 638 730 660 q 669 617 702 617 l 669 617 q 614 634 636 617 q 592 672 592 651 l 592 672 q 597 722 592 697 q 607 766 603 747 l 607 766 q 593 780 605 770 q 566 800 582 791 l 566 800 q 522 817 549 809 q 462 824 494 824 l 462 824 l 462 509 q 506 493 488 500 q 551 475 524 486 l 551 475 q 628 440 593 459 q 690 393 663 420 z m 406 526 l 406 526 l 406 824 q 296 787 340 824 q 251 695 251 749 l 251 695 q 279 601 251 636 q 363 543 307 566 l 363 543 q 383 534 371 539 q 406 526 395 530 z m 621 193 l 621 193 q 592 289 621 248 q 494 357 563 330 l 494 357 q 477 363 485 361 q 462 369 469 366 l 462 369 l 462 41 q 581 86 541 46 q 621 193 621 127 z "},"%":{"ha":1135,"x_min":74,"x_max":1061,"o":"m 534 734 l 534 734 q 470 549 534 615 q 304 484 406 484 l 304 484 q 138 549 202 484 q 74 734 74 615 l 74 734 q 137 916 74 847 q 304 985 199 985 l 304 985 q 471 916 408 985 q 534 734 534 847 z m 420 734 l 420 734 q 391 879 420 823 q 304 935 361 935 l 304 935 q 217 879 246 935 q 189 734 189 823 l 189 734 q 218 589 189 644 q 304 534 247 534 l 304 534 q 390 589 361 534 q 420 734 420 644 z m 1061 229 l 1061 229 q 997 44 1061 110 q 831 -22 932 -22 l 831 -22 q 665 44 729 -22 q 601 229 601 110 l 601 229 q 664 411 601 342 q 831 480 726 480 l 831 480 q 998 411 935 480 q 1061 229 1061 342 z m 947 229 l 947 229 q 918 374 947 317 q 831 430 888 430 l 831 430 q 744 374 773 430 q 715 229 715 317 l 715 229 q 745 84 715 139 q 831 28 774 28 l 831 28 q 917 84 888 28 q 947 229 947 139 z m 921 966 l 1017 966 l 217 0 l 123 0 l 921 966 z "},"&":{"ha":987,"x_min":51,"x_max":986,"o":"m 986 610 l 986 562 q 905 546 946 558 q 843 506 865 533 l 843 506 q 814 458 829 490 q 779 382 800 426 l 779 382 q 738 297 759 339 q 684 213 717 255 l 684 213 q 750 142 711 180 q 817 87 789 104 l 817 87 q 894 60 844 71 q 976 48 944 50 l 976 48 l 976 0 l 696 0 l 595 115 q 544 65 573 91 q 484 20 515 39 l 484 20 q 413 -12 448 -1 q 329 -24 377 -24 l 329 -24 q 229 -9 279 -24 q 139 37 180 5 l 139 37 q 75 117 100 68 q 51 234 51 166 l 51 234 q 95 386 51 318 q 261 531 140 454 l 261 531 q 176 656 206 604 q 145 775 145 709 l 145 775 q 164 861 145 822 q 216 929 182 900 l 216 929 q 292 970 248 956 q 383 985 337 985 l 383 985 q 478 968 437 985 q 545 923 519 951 l 545 923 q 582 863 569 897 q 594 795 594 829 l 594 795 q 544 655 594 714 q 404 550 493 597 l 404 550 q 529 393 468 464 q 646 254 590 322 l 646 254 q 717 390 692 326 q 742 503 742 454 l 742 503 q 710 537 742 525 q 623 562 679 550 l 623 562 l 623 610 l 986 610 z m 507 782 l 507 782 q 476 888 507 851 q 389 925 446 925 l 389 925 q 336 912 357 925 q 300 880 315 899 l 300 880 q 281 839 287 861 q 275 800 275 817 l 275 800 q 299 706 275 753 q 375 590 323 658 l 375 590 q 476 675 445 629 q 507 782 507 721 z m 559 155 l 559 155 q 417 330 496 235 q 291 491 338 425 l 291 491 q 213 402 236 453 q 191 285 191 351 l 191 285 q 243 132 191 193 q 384 71 296 71 l 384 71 q 481 93 433 71 q 559 155 529 114 z "},"'":{"ha":299,"x_min":73,"x_max":226,"o":"m 226 961 l 226 961 q 208 857 226 934 q 169 656 191 779 l 169 656 l 127 656 q 91 853 109 771 q 73 961 73 935 l 73 961 q 92 1015 73 992 q 150 1037 111 1037 l 150 1037 q 206 1015 186 1037 q 226 961 226 992 z "},"(":{"ha":521,"x_min":79,"x_max":475,"o":"m 475 -167 l 475 -222 q 185 -36 290 -199 q 79 404 79 127 l 79 404 q 185 850 79 686 q 475 1039 290 1015 l 475 1039 l 475 983 q 277 817 345 959 q 210 403 210 674 l 210 403 q 276 1 210 144 q 475 -167 342 -142 l 475 -167 z "},")":{"ha":521,"x_min":45,"x_max":441,"o":"m 441 404 l 441 404 q 336 -36 441 127 q 45 -222 231 -199 l 45 -222 l 45 -167 q 245 1 178 -142 q 311 403 311 144 l 311 403 q 243 817 311 674 q 45 983 176 959 l 45 983 l 45 1039 q 336 850 231 1015 q 441 404 441 686 z "},"*":{"ha":656,"x_min":58,"x_max":598,"o":"m 598 745 l 598 745 q 584 709 598 720 q 547 697 570 697 l 547 697 q 476 712 532 697 q 349 734 419 726 l 349 734 q 406 664 379 692 q 450 617 432 636 l 450 617 q 478 583 468 597 q 488 551 488 568 l 488 551 q 472 519 488 532 q 437 505 456 505 l 437 505 q 414 512 425 505 q 396 532 404 519 l 396 532 q 375 595 385 552 q 328 723 364 639 l 328 723 q 283 595 296 642 q 260 532 270 548 l 260 532 q 242 512 252 519 q 219 505 233 505 l 219 505 q 184 518 200 505 q 168 551 168 531 l 168 551 q 178 581 168 567 q 207 617 187 595 l 207 617 q 252 665 224 635 q 308 734 280 696 l 308 734 q 184 712 241 728 q 109 697 127 697 l 109 697 q 73 708 87 697 q 58 745 58 720 l 58 745 q 73 781 58 768 q 109 793 87 793 l 109 793 q 181 779 130 793 q 308 758 232 765 l 308 758 q 252 826 281 793 q 207 875 223 858 l 207 875 q 178 910 188 895 q 168 941 168 924 l 168 941 q 184 973 168 960 q 219 987 201 987 l 219 987 q 242 980 231 987 q 260 960 252 973 l 260 960 q 286 887 270 943 q 328 769 301 830 l 328 769 q 373 890 359 838 q 396 960 387 942 l 396 960 q 414 980 404 972 q 437 987 425 987 l 437 987 q 472 974 456 987 q 488 941 488 961 l 488 941 q 451 876 488 913 q 349 758 413 839 l 349 758 q 476 780 422 766 q 547 793 530 793 l 547 793 q 584 781 570 793 q 598 745 598 769 z "},"+":{"ha":893,"x_min":98,"x_max":795,"o":"m 795 422 l 795 337 l 490 337 l 490 31 l 404 31 l 404 337 l 98 337 l 98 422 l 404 422 l 404 728 l 490 728 l 490 422 l 795 422 z "},",":{"ha":374,"x_min":66,"x_max":291,"o":"m 291 24 l 291 24 q 269 -68 291 -25 q 218 -143 247 -112 l 218 -143 q 157 -201 189 -176 q 97 -240 124 -226 l 97 -240 l 66 -195 q 124 -154 98 -174 q 166 -113 150 -134 l 166 -113 q 201 -62 186 -90 q 219 1 215 -34 l 219 1 l 184 1 q 114 25 139 1 q 88 89 88 49 l 88 89 q 111 144 88 117 q 174 171 134 171 l 174 171 q 262 132 233 171 q 291 24 291 93 z "},"-":{"ha":519,"x_min":58,"x_max":462,"o":"m 462 422 l 462 315 l 58 315 l 58 422 l 462 422 z "},".":{"ha":374,"x_min":96,"x_max":281,"o":"m 281 78 l 281 78 q 254 13 281 40 q 189 -14 227 -14 l 189 -14 q 123 13 151 -14 q 96 78 96 40 l 96 78 q 123 143 96 116 q 189 171 151 171 l 189 171 q 254 143 227 171 q 281 78 281 116 z "},"/":{"ha":651,"x_min":33,"x_max":590,"o":"m 500 1033 l 590 1033 l 121 -288 l 33 -288 l 500 1033 z "},":":{"ha":434,"x_min":124,"x_max":310,"o":"m 310 578 l 310 578 q 282 513 310 541 q 217 486 255 486 l 217 486 q 152 513 179 486 q 124 578 124 541 l 124 578 q 151 644 124 616 q 217 671 178 671 l 217 671 q 283 644 256 671 q 310 578 310 616 z m 310 78 l 310 78 q 282 13 310 40 q 217 -14 255 -14 l 217 -14 q 152 13 179 -14 q 124 78 124 40 l 124 78 q 152 143 124 116 q 217 171 179 171 l 217 171 q 282 143 255 171 q 310 78 310 116 z "},";":{"ha":434,"x_min":96,"x_max":321,"o":"m 310 578 l 310 578 q 282 513 310 541 q 217 486 255 486 l 217 486 q 152 513 179 486 q 124 578 124 541 l 124 578 q 151 644 124 616 q 217 671 178 671 l 217 671 q 283 644 256 671 q 310 578 310 616 z m 321 24 l 321 24 q 299 -68 321 -25 q 249 -143 277 -111 l 249 -143 q 187 -201 220 -176 q 127 -240 155 -226 l 127 -240 l 96 -195 q 154 -154 129 -174 q 197 -113 180 -133 l 197 -113 q 231 -62 217 -90 q 250 1 245 -34 l 250 1 l 215 1 q 144 25 170 1 q 119 89 119 49 l 119 89 q 142 144 119 117 q 205 171 165 171 l 205 171 q 292 132 263 171 q 321 24 321 93 z "},"<":{"ha":893,"x_min":131,"x_max":758,"o":"m 758 108 l 758 15 l 131 341 l 131 418 l 758 744 l 758 651 l 237 380 l 758 108 z "},"=":{"ha":893,"x_min":104,"x_max":789,"o":"m 789 548 l 789 463 l 104 463 l 104 548 l 789 548 z m 789 296 l 789 211 l 104 211 l 104 296 l 789 296 z "},">":{"ha":893,"x_min":135,"x_max":762,"o":"m 762 418 l 762 341 l 135 15 l 135 108 l 656 380 l 135 651 l 135 744 l 762 418 z "},"?":{"ha":665,"x_min":72,"x_max":596,"o":"m 523 901 l 523 901 q 578 813 560 862 q 596 706 596 764 l 596 706 q 516 501 596 581 q 296 406 436 422 l 296 406 l 296 256 l 234 256 l 234 513 q 319 527 277 516 q 394 561 361 537 l 394 561 q 448 622 429 586 q 467 721 467 657 l 467 721 q 424 877 467 823 q 298 931 381 931 l 298 931 q 244 922 267 931 q 210 905 220 913 l 210 905 q 219 858 213 888 q 224 811 224 827 l 224 811 q 203 765 224 786 q 140 745 181 745 l 140 745 q 87 770 103 745 q 72 828 72 795 l 72 828 q 87 881 72 855 q 134 932 102 907 l 134 932 q 207 969 161 954 q 304 985 254 985 l 304 985 q 431 962 376 985 q 523 901 487 939 z m 360 78 l 360 78 q 333 13 360 40 q 267 -14 305 -14 l 267 -14 q 202 13 229 -14 q 174 78 174 40 l 174 78 q 202 143 174 116 q 267 171 229 171 l 267 171 q 333 143 305 171 q 360 78 360 116 z "},"@":{"ha":1290,"x_min":58,"x_max":1283,"o":"m 1017 -46 l 1038 -81 q 877 -176 970 -140 q 669 -212 783 -212 l 669 -212 q 467 -179 566 -212 q 289 -79 368 -146 l 289 -79 q 162 88 210 -12 q 114 323 114 188 l 114 323 q 157 549 114 439 q 281 743 201 658 l 281 743 q 474 878 359 827 q 725 929 589 929 l 725 929 q 928 891 842 929 q 1069 792 1015 854 l 1069 792 q 1152 652 1124 731 q 1179 486 1179 572 l 1179 486 q 1088 207 1179 321 q 859 92 998 92 l 859 92 q 761 121 801 92 q 716 202 721 150 l 716 202 l 711 203 q 637 124 679 154 q 553 95 595 95 l 553 95 q 496 104 525 95 q 445 134 467 113 l 445 134 q 409 193 422 157 q 396 281 396 229 l 396 281 q 419 392 396 331 q 480 509 441 454 l 480 509 q 580 607 519 566 q 713 648 642 648 l 713 648 q 780 627 751 648 q 817 564 810 606 l 817 564 l 821 564 l 850 640 l 951 640 l 823 275 q 813 236 817 258 q 809 201 809 214 l 809 201 q 827 151 809 167 q 872 135 844 135 l 872 135 q 1048 234 977 135 q 1118 494 1118 332 l 1118 494 q 1093 642 1118 574 q 1017 762 1068 710 l 1017 762 q 892 844 967 814 q 720 873 817 873 l 720 873 q 540 838 627 873 q 380 732 452 802 l 380 732 q 267 563 311 664 q 224 334 224 462 l 224 334 q 258 118 224 212 q 353 -38 292 25 l 353 -38 q 496 -130 414 -99 q 673 -160 578 -160 l 673 -160 q 865 -131 781 -160 q 1017 -46 949 -102 l 1017 -46 z m 724 274 l 802 503 q 771 583 792 558 q 709 608 750 608 l 709 608 q 630 573 666 608 q 568 490 593 538 l 568 490 q 527 381 542 440 q 513 271 513 321 l 513 271 q 527 183 513 214 q 572 152 541 152 l 572 152 q 655 184 618 152 q 724 274 692 216 l 724 274 z m 141 928 l 111 928 l 111 864 q 262 783 198 864 l 262 783 l 277 800 l 277 815 q 217 880 262 880 l 217 880 l 217 960 l 186 993 q 141 928 163 993 l 141 928 z m 1213 968 l 1208 998 l 1144 987 q 1088 826 1158 901 l 1088 826 l 1105 813 l 1122 816 q 1176 885 1183 840 l 1176 885 l 1256 898 l 1283 932 q 1213 968 1280 955 l 1213 968 z m 124 -214 l 125 -244 l 189 -242 q 264 -87 186 -155 l 264 -87 l 248 -73 l 231 -73 q 170 -136 168 -91 l 170 -136 l 89 -140 l 58 -171 q 124 -214 58 -194 l 124 -214 z m 1153 -224 l 1182 -217 l 1168 -155 q 1003 -109 1083 -173 l 1003 -109 l 991 -127 l 995 -143 q 1068 -193 1024 -203 l 1068 -193 l 1086 -272 l 1122 -296 q 1153 -224 1144 -292 l 1153 -224 z "},"A":{"ha":533,"x_min":46,"x_max":515,"o":"m 515 48 l 515 0 l 326 0 l 326 48 q 367 62 351 52 q 384 87 384 72 l 384 87 q 383 102 384 93 q 381 117 382 111 l 381 117 l 343 333 l 184 333 q 169 250 175 286 q 159 185 163 215 l 159 185 q 153 138 155 156 q 152 108 152 119 l 152 108 q 172 66 152 81 q 218 48 192 51 l 218 48 l 218 0 l 46 0 l 46 48 q 67 56 54 50 q 87 73 79 62 l 87 73 q 107 112 100 92 q 121 167 115 132 l 121 167 q 197 574 155 348 q 271 976 239 800 l 271 976 l 296 976 l 448 146 q 459 103 453 119 q 476 71 465 87 l 476 71 q 495 55 484 62 q 515 48 507 49 l 515 48 z m 213 393 l 331 393 l 271 766 l 213 393 z "},"B":{"ha":495,"x_min":67,"x_max":479,"o":"m 428 451 l 428 451 q 465 376 450 422 q 479 264 479 330 l 479 264 q 464 148 479 197 q 424 66 449 98 l 424 66 q 370 19 400 35 q 307 3 340 3 l 307 3 l 67 3 l 67 51 q 92 57 76 52 q 116 67 109 61 l 116 67 q 132 93 127 77 q 136 134 136 109 l 136 134 l 136 825 q 132 866 136 848 q 116 895 128 884 l 116 895 q 92 910 105 905 q 70 917 79 916 l 70 917 l 70 965 l 304 965 q 356 955 331 965 q 404 919 380 945 l 404 919 q 438 854 425 895 q 452 755 452 814 l 452 755 q 442 665 452 705 q 415 597 432 625 l 415 597 q 377 551 398 570 q 331 522 356 532 l 331 522 l 331 516 q 380 495 353 511 q 428 451 407 479 z m 348 605 l 348 605 q 367 669 361 634 q 372 751 372 703 l 372 751 q 349 875 372 830 q 276 920 326 920 l 276 920 q 247 919 264 920 q 218 918 230 918 l 218 918 l 218 548 l 263 548 q 314 562 293 548 q 348 605 335 576 z m 398 283 l 398 283 q 368 416 398 364 q 281 467 337 467 l 281 467 q 242 466 258 467 q 218 465 226 465 l 218 465 l 218 146 q 236 85 218 106 q 288 65 254 65 l 288 65 q 370 121 341 65 q 398 283 398 176 z "},"C":{"ha":547,"x_min":73,"x_max":504,"o":"m 498 638 l 498 572 l 353 572 l 355 720 q 337 810 352 793 q 275 831 323 827 l 275 831 q 233 805 245 829 q 225 707 221 780 l 225 707 l 226 266 q 244 159 228 177 q 290 138 261 142 l 290 138 q 335 162 322 147 q 359 246 348 178 l 359 246 l 364 388 l 500 391 l 504 353 q 487 143 504 203 q 427 33 470 82 q 302 -16 384 -16 l 302 -16 q 163 24 218 -16 q 91 134 109 64 q 73 347 73 205 l 73 347 l 73 629 q 78 786 73 734 q 111 886 83 838 q 186 962 138 935 q 297 990 235 990 l 297 990 q 438 947 382 990 q 497 840 493 904 q 498 638 501 776 l 498 638 z "},"D":{"ha":568,"x_min":71,"x_max":543,"o":"m 543 475 l 543 475 q 519 262 543 353 q 458 115 496 172 l 458 115 q 372 28 420 57 q 274 0 325 0 l 274 0 l 71 0 l 71 48 q 97 52 81 48 q 118 60 113 56 l 118 60 q 133 86 128 69 q 138 128 138 104 l 138 128 l 138 823 q 134 864 138 846 q 118 893 130 882 l 118 893 q 95 908 107 903 q 73 914 82 913 l 73 914 l 73 962 l 288 962 q 375 936 332 962 q 450 863 418 909 l 450 863 q 518 705 493 803 q 543 475 543 608 z m 429 486 l 429 486 q 418 645 429 574 q 387 770 408 717 l 387 770 q 339 849 368 820 q 277 878 311 878 l 277 878 q 251 877 266 878 q 230 876 237 876 l 230 876 l 230 203 q 245 125 230 146 q 290 103 260 103 l 290 103 q 352 131 326 103 q 395 208 379 159 l 395 208 q 421 328 413 260 q 429 486 429 396 z "},"E":{"ha":624,"x_min":72,"x_max":597,"o":"m 364 983 l 482 987 q 559 966 515 986 l 559 966 l 497 829 l 497 937 q 203 654 318 867 l 203 654 l 185 576 l 185 561 l 182 541 l 290 537 q 325 608 316 537 l 325 608 l 351 608 q 377 537 359 537 l 377 537 l 385 537 q 490 600 438 600 l 490 600 q 559 506 559 587 l 559 506 q 516 440 559 459 l 516 440 l 496 435 l 486 433 l 473 436 q 394 483 438 436 l 394 483 l 377 483 q 351 420 359 483 l 351 420 l 333 420 q 307 483 316 420 l 307 483 l 191 482 l 185 467 l 185 420 q 469 81 281 140 l 469 81 l 488 73 l 444 208 l 556 62 l 597 24 l 317 10 l 473 46 l 425 56 q 72 475 72 182 l 72 475 l 72 537 q 477 951 72 832 l 477 951 l 364 983 z m 485 555 l 453 548 l 437 508 l 454 478 l 504 471 l 522 493 l 518 541 l 485 555 z "},"F":{"ha":574,"x_min":58,"x_max":553,"o":"m 553 964 l 543 788 l 523 836 q 477 884 503 870 q 425 905 452 899 l 425 905 q 392 909 410 907 q 349 910 373 910 l 349 910 l 243 910 l 243 523 l 294 523 q 342 523 328 519 q 377 540 357 527 l 377 540 q 403 576 397 562 q 413 630 409 591 l 413 630 l 422 646 l 422 396 l 413 417 q 393 443 399 438 q 372 463 387 448 l 372 463 q 340 483 349 478 q 300 490 332 488 l 300 490 l 243 488 l 243 136 q 249 96 243 113 q 269 67 254 78 l 269 67 q 298 56 276 62 q 332 48 320 49 l 332 48 l 332 0 l 58 0 l 58 48 q 94 53 72 50 q 123 60 116 56 l 123 60 q 142 86 136 69 q 148 128 148 104 l 148 128 l 148 824 q 143 864 148 846 q 123 892 138 881 l 123 892 q 91 907 111 901 q 58 916 71 914 l 58 916 l 58 964 l 553 964 z "},"G":{"ha":624,"x_min":53,"x_max":604,"o":"m 604 434 l 578 406 q 551 382 556 389 q 538 362 546 375 l 538 362 q 531 330 531 341 q 531 293 531 318 l 531 293 l 531 218 q 525 115 531 137 q 507 62 519 92 l 507 62 q 428 -1 480 21 q 326 -22 376 -22 l 326 -22 q 222 12 272 -22 q 135 111 172 47 l 135 111 q 75 267 97 175 q 53 473 53 359 l 53 473 q 74 677 53 583 q 134 840 95 771 l 134 840 q 224 946 172 908 q 335 983 276 983 l 335 983 q 418 964 382 983 q 480 916 453 944 l 480 916 l 509 960 l 531 1011 l 532 626 l 517 661 q 484 744 502 699 q 447 832 466 789 l 447 832 q 399 900 427 875 q 333 926 372 926 l 333 926 q 257 896 290 926 q 199 808 224 867 l 199 808 q 162 668 175 752 q 149 480 149 584 l 149 480 q 162 308 149 389 q 199 168 175 227 l 199 168 q 261 73 224 107 q 345 38 298 38 l 345 38 q 404 50 379 38 q 448 95 428 62 l 448 95 q 460 185 457 156 q 463 259 463 214 l 463 259 l 460 300 q 448 348 453 344 q 440 364 443 353 l 440 364 q 427 389 431 381 q 397 418 423 396 l 397 418 l 375 433 l 604 434 z "},"H":{"ha":568,"x_min":66,"x_max":542,"o":"m 542 48 l 542 0 l 351 0 l 351 48 q 374 52 359 50 q 394 60 389 55 l 394 60 q 408 85 404 68 q 413 128 413 102 l 413 128 l 413 471 l 197 471 l 197 136 q 200 96 197 112 q 216 67 204 79 l 216 67 q 235 55 221 61 q 257 48 249 49 l 257 48 l 257 0 l 66 0 l 66 48 q 89 52 74 50 q 109 60 104 55 l 109 60 q 123 85 119 68 q 128 128 128 102 l 128 128 l 128 823 q 124 862 128 844 q 109 890 119 880 l 109 890 q 88 906 100 899 q 66 914 75 913 l 66 914 l 66 962 l 257 962 l 257 914 q 235 908 248 913 q 216 898 222 903 l 216 898 q 200 871 204 890 q 197 829 197 852 l 197 829 l 197 531 l 413 531 l 413 823 q 409 862 413 844 q 394 890 404 880 l 394 890 q 373 906 385 899 q 351 914 360 913 l 351 914 l 351 962 l 542 962 l 542 914 q 520 908 533 913 q 500 898 507 903 l 500 898 q 485 871 489 890 q 481 829 481 852 l 481 829 l 481 136 q 485 96 481 112 q 500 67 489 79 l 500 67 q 520 55 506 61 q 542 48 534 49 l 542 48 z "},"I":{"ha":456,"x_min":54,"x_max":402,"o":"m 112 273 l 112 273 q 111 274 111 273 l 111 274 q 111 277 111 275 l 111 277 q 114 284 113 280 l 114 284 q 115 286 114 286 l 115 286 q 115 290 118 288 l 115 290 q 115 292 115 291 l 115 292 q 117 301 117 295 q 118 309 117 307 l 118 309 q 120 319 120 313 l 120 319 q 123 329 120 324 l 123 329 q 123 332 123 330 l 123 332 q 124 334 122 334 l 124 334 q 125 335 125 334 l 125 335 q 124 336 125 336 l 124 336 q 123 336 123 336 l 123 336 q 124 340 122 338 l 124 340 q 125 353 126 342 l 125 353 q 126 355 125 354 l 126 355 l 127 355 q 127 357 127 355 l 127 357 q 130 372 128 364 l 130 372 q 131 374 130 373 l 131 374 l 132 374 q 132 376 132 375 q 132 376 132 376 l 132 376 q 124 380 128 379 l 124 380 q 92 379 108 380 l 92 379 q 91 381 91 379 l 91 381 l 91 388 q 92 390 91 389 l 92 390 l 93 391 q 94 393 94 392 l 94 393 q 96 396 94 395 l 96 396 q 98 398 97 397 l 98 398 q 101 406 98 404 l 101 406 q 102 408 102 407 l 102 408 q 102 410 102 409 l 102 410 q 109 421 108 414 l 109 421 q 111 423 110 422 l 111 423 q 111 424 111 423 l 111 424 q 111 425 114 425 l 111 425 l 92 425 q 91 427 90 425 l 91 427 q 91 431 92 429 l 91 431 q 92 433 90 433 q 94 436 94 434 l 94 436 q 94 439 93 437 l 94 439 q 99 448 98 443 l 99 448 q 101 450 100 449 l 101 450 q 102 452 102 451 l 102 452 q 104 456 102 454 l 104 456 q 106 458 105 456 l 106 458 q 111 468 107 464 l 111 468 q 112 469 112 469 l 112 469 q 113 473 111 472 l 113 473 q 113 473 113 473 l 113 473 q 114 475 115 474 l 114 475 l 114 475 q 105 482 111 480 l 105 482 q 103 484 104 483 l 103 484 q 98 491 102 487 q 93 496 94 494 l 93 496 q 56 581 61 536 l 56 581 q 56 616 55 596 l 56 616 q 85 691 60 653 l 85 691 q 102 711 96 706 l 102 711 q 112 723 107 717 l 112 723 q 114 724 113 724 l 114 724 q 120 730 118 726 l 120 730 q 123 732 121 732 l 123 732 q 131 738 126 734 q 137 743 136 742 l 137 743 q 146 749 146 749 l 146 749 q 172 762 159 755 l 172 762 q 184 765 178 764 l 184 765 q 189 766 186 765 q 193 767 191 767 l 193 767 q 195 768 194 767 l 195 768 l 199 774 q 199 775 199 774 l 199 775 q 199 777 199 776 l 199 777 q 200 780 198 779 l 200 780 q 201 781 201 780 l 201 781 q 196 785 199 784 l 196 785 q 178 800 187 793 l 178 800 q 161 819 169 807 l 161 819 q 154 848 155 830 l 154 848 q 151 852 154 850 l 151 852 q 137 856 144 853 l 137 856 q 123 861 130 859 l 123 861 q 117 863 119 861 q 111 865 114 864 l 111 865 q 90 869 100 867 l 90 869 q 82 880 80 871 l 82 880 q 83 881 82 881 l 83 881 q 87 882 84 882 q 91 882 90 882 l 91 882 q 107 886 99 884 l 107 886 q 116 888 112 886 l 116 888 q 122 889 118 889 q 127 890 126 890 l 127 890 q 149 895 138 893 l 149 895 q 157 902 155 896 l 157 902 q 193 940 172 931 l 193 940 q 196 942 195 941 l 196 942 q 199 944 197 943 l 199 944 q 201 945 201 944 l 201 945 q 205 946 203 946 l 205 946 q 208 947 206 946 l 208 947 q 219 949 214 949 l 219 949 q 240 949 230 948 l 240 949 q 264 943 251 950 l 264 943 q 298 911 292 930 l 298 911 q 304 905 300 907 l 304 905 q 305 903 304 904 l 305 903 q 311 897 306 899 l 311 897 q 331 891 318 895 q 349 886 345 888 l 349 886 q 367 883 357 884 l 367 883 q 373 881 370 883 l 373 881 q 374 880 374 881 l 374 880 q 374 871 375 875 l 374 871 q 372 869 373 870 l 372 869 q 351 864 361 867 l 351 864 q 349 863 350 863 q 348 862 349 862 l 348 862 q 332 857 334 859 l 332 857 q 330 855 332 855 l 330 855 q 312 847 313 852 l 312 847 q 299 815 307 828 l 299 815 q 278 793 293 807 l 278 793 q 272 789 275 791 l 272 789 q 264 779 267 787 l 264 779 q 266 770 262 774 q 273 765 269 766 l 273 765 q 336 734 311 755 l 336 734 q 363 709 347 725 l 363 709 q 366 705 365 707 q 369 701 368 703 l 369 701 q 400 618 397 663 l 400 618 q 401 586 401 601 l 401 586 q 401 584 401 585 q 401 582 400 583 l 401 582 q 401 581 401 581 l 401 581 q 400 570 401 575 l 400 570 q 400 564 400 568 q 399 558 399 560 l 399 558 q 396 542 397 550 l 396 542 q 391 526 394 534 l 391 526 q 378 501 386 513 l 378 501 q 368 487 374 494 l 368 487 q 367 486 367 486 l 367 486 l 366 484 q 366 482 366 483 l 366 482 l 361 479 q 359 478 359 479 l 359 478 q 353 473 359 473 l 353 473 q 351 469 351 473 l 351 469 q 351 467 351 469 l 351 467 l 355 465 q 355 463 355 463 l 355 463 l 355 462 q 356 460 355 460 l 356 460 q 357 457 357 459 q 358 455 357 456 q 359 452 359 454 l 359 452 q 361 449 359 450 l 361 449 q 363 445 363 448 l 363 445 q 365 444 363 444 l 365 444 q 366 442 366 443 q 367 440 366 441 l 367 440 l 368 439 q 368 438 368 439 l 368 438 q 369 433 367 435 l 369 433 q 369 433 369 433 l 369 433 q 368 431 369 432 l 368 431 l 368 431 q 368 430 365 431 l 368 430 l 368 429 q 369 429 369 429 l 369 429 q 366 425 369 425 l 366 425 q 352 425 358 425 l 352 425 q 351 424 350 425 l 351 424 q 357 413 355 419 l 357 413 q 358 410 357 412 l 358 410 q 359 408 359 410 l 359 408 q 359 407 359 408 l 359 407 l 365 399 q 366 397 366 397 l 366 397 q 367 394 366 395 q 368 391 368 393 l 368 391 q 369 387 368 389 l 369 387 q 369 387 369 387 l 369 387 q 368 386 369 386 l 368 386 l 368 386 q 368 386 368 386 l 368 386 q 368 384 366 385 l 368 384 l 368 384 q 369 382 369 383 l 369 382 q 366 380 369 380 l 366 380 q 329 379 347 380 l 329 379 q 325 376 325 379 l 325 376 q 326 374 325 374 l 326 374 q 328 369 328 371 l 328 369 q 329 356 328 362 l 329 356 q 328 349 330 352 l 328 349 q 328 348 328 349 l 328 348 q 332 338 334 344 l 332 338 q 332 336 332 337 l 332 336 q 336 329 335 333 l 336 329 q 338 310 337 319 l 338 310 q 340 306 338 308 q 342 301 342 303 l 342 301 q 348 275 345 288 l 348 275 q 348 272 348 274 q 349 267 349 269 q 351 263 350 264 l 351 263 q 351 262 351 262 l 351 262 q 349 261 351 261 l 349 261 q 311 260 330 261 l 311 260 q 304 258 307 260 q 300 253 300 256 l 300 253 q 298 224 299 239 l 298 224 q 296 174 296 207 l 296 174 q 297 170 296 173 q 296 167 297 168 l 296 167 q 296 165 296 166 l 296 165 l 297 165 q 297 163 297 164 l 297 163 l 297 148 q 296 146 297 147 l 296 146 q 296 145 296 146 l 296 145 q 295 127 296 136 l 295 127 q 294 125 295 125 l 294 125 l 294 125 q 293 123 293 124 l 293 123 l 294 92 q 293 90 294 91 l 293 90 l 292 90 q 291 88 291 90 l 291 88 l 291 77 q 292 75 291 76 l 292 75 l 330 48 q 332 46 331 47 l 332 46 q 338 42 334 43 l 338 42 q 340 41 340 41 l 340 41 q 350 34 345 37 l 350 34 q 354 27 355 31 l 354 27 q 357 12 353 19 l 357 12 q 355 5 359 8 l 355 5 q 353 5 354 5 l 353 5 q 349 6 351 6 l 349 6 q 313 6 331 6 l 313 6 q 296 11 303 7 l 296 11 q 281 20 288 16 l 281 20 q 250 41 264 30 l 250 41 q 245 44 248 41 q 240 47 241 46 q 235 50 238 49 q 229 50 232 51 l 229 50 q 212 45 218 48 l 212 45 q 197 41 204 43 l 197 41 q 138 22 167 32 l 138 22 q 137 21 138 22 q 136 20 136 20 l 136 20 q 106 12 115 15 l 106 12 q 90 7 100 9 q 74 12 80 5 q 67 30 67 19 l 67 30 q 72 40 67 35 q 83 47 77 45 l 83 47 q 104 57 94 52 q 124 65 114 61 q 144 72 134 68 l 144 72 q 155 76 149 74 l 155 76 q 168 80 161 79 l 168 80 q 169 81 169 81 l 169 81 q 170 89 170 85 l 170 89 q 168 106 169 98 l 168 106 q 167 113 168 109 q 165 120 165 117 l 165 120 q 163 152 166 136 l 163 152 q 164 154 163 153 l 164 154 q 167 158 166 155 l 167 158 q 166 159 167 159 q 165 161 165 160 l 165 161 q 163 162 163 161 l 163 162 q 164 171 163 164 q 163 180 164 178 l 163 180 q 162 207 162 193 l 162 207 q 159 214 162 210 q 157 222 157 219 l 157 222 q 157 229 157 225 l 157 229 q 157 244 157 236 l 157 244 q 156 246 157 245 q 155 248 155 247 l 155 248 q 155 256 155 252 l 155 256 q 155 257 155 256 l 155 257 q 151 260 155 260 l 151 260 l 151 260 l 115 260 q 113 262 114 260 l 113 262 q 111 270 111 265 l 111 270 q 111 271 111 271 l 111 271 q 112 271 112 271 l 112 271 q 112 273 113 272 z m 317 539 l 317 539 q 319 542 319 540 l 319 542 q 320 545 319 543 l 320 545 q 328 561 326 551 l 328 561 q 328 563 328 562 l 328 563 q 329 564 329 563 l 329 564 q 330 566 330 565 l 330 566 q 330 569 330 567 q 331 571 331 570 l 331 571 q 332 587 333 580 l 332 587 q 330 592 332 588 q 330 598 329 595 l 330 598 q 330 600 330 600 l 330 600 q 323 616 328 608 l 323 616 q 313 631 317 624 l 313 631 q 298 640 309 637 l 298 640 q 296 639 296 641 l 296 639 l 296 539 q 296 538 296 539 l 296 538 q 297 536 297 537 l 297 536 q 297 524 297 530 l 297 524 q 296 522 297 523 l 296 522 l 296 522 q 296 521 295 521 l 296 521 q 302 523 300 520 q 305 525 304 525 q 307 527 307 526 l 307 527 q 309 530 307 529 l 309 530 l 309 530 q 309 532 310 530 l 309 532 l 309 532 q 309 532 309 532 l 309 532 q 311 534 310 534 l 311 534 q 317 538 316 535 l 317 538 q 317 539 317 539 z m 156 635 l 156 635 q 141 618 148 629 q 132 597 134 607 l 132 597 q 142 545 128 569 l 142 545 q 150 533 145 538 q 159 524 154 529 l 159 524 q 165 526 165 516 l 165 526 q 165 550 166 538 l 165 550 q 163 638 163 601 l 163 638 q 162 640 163 640 l 162 640 q 157 636 158 639 l 157 636 q 156 635 157 635 z "},"J":{"ha":538,"x_min":60,"x_max":517,"o":"m 517 962 l 517 914 q 485 909 504 913 q 452 898 466 905 l 452 898 q 431 871 437 890 q 426 829 426 852 l 426 829 l 426 259 q 414 164 426 214 q 378 75 401 114 l 378 75 q 313 3 351 28 q 228 -23 276 -23 l 228 -23 q 106 39 153 -23 q 60 206 60 101 l 60 206 q 76 288 60 252 q 123 323 92 323 l 123 323 q 167 301 150 323 q 184 241 184 278 l 184 241 q 178 197 184 219 q 164 159 172 176 l 164 159 q 149 122 157 143 q 136 84 140 101 l 136 84 q 166 45 146 62 q 221 28 187 28 l 221 28 q 276 51 255 28 q 308 111 298 73 l 308 111 q 322 198 318 146 q 327 313 327 250 l 327 313 l 327 823 q 322 862 327 846 q 300 890 317 878 l 300 890 q 264 907 286 901 q 229 914 243 913 l 229 914 l 229 962 l 517 962 z "},"K":{"ha":568,"x_min":69,"x_max":542,"o":"m 542 48 l 542 0 l 405 0 q 317 240 366 121 q 216 471 269 359 l 216 471 l 207 471 l 207 136 q 211 96 207 113 q 227 67 215 78 l 227 67 q 247 56 232 62 q 272 48 262 49 l 272 48 l 272 0 l 69 0 l 69 48 q 92 52 77 50 q 113 60 107 55 l 113 60 q 129 86 124 69 q 133 128 133 104 l 133 128 l 133 823 q 129 863 133 846 q 113 890 125 880 l 113 890 q 92 906 104 899 q 69 914 79 913 l 69 914 l 69 962 l 272 962 l 272 914 q 248 908 262 913 q 227 898 233 903 l 227 898 q 211 871 215 890 q 207 829 207 852 l 207 829 l 207 497 l 214 497 q 274 605 244 549 q 329 716 304 661 l 329 716 q 369 815 356 778 q 381 880 381 852 l 381 880 q 375 897 381 890 q 360 907 368 903 l 360 907 q 343 912 351 911 q 330 914 335 913 l 330 914 l 330 962 l 513 962 l 513 914 q 509 913 513 914 q 501 912 506 913 l 501 912 q 492 909 496 911 q 479 905 487 907 l 479 905 q 454 887 467 899 q 433 858 441 876 l 433 858 q 359 694 397 779 q 283 539 321 609 l 283 539 q 369 338 335 422 q 442 159 404 254 l 442 159 q 472 100 457 122 q 497 67 486 78 l 497 67 q 519 54 506 58 q 542 48 533 49 l 542 48 z "},"L":{"ha":568,"x_min":66,"x_max":530,"o":"m 516 162 l 530 193 l 530 0 l 66 0 l 66 48 q 96 53 77 50 q 122 62 115 56 l 122 62 q 140 87 134 71 q 146 131 146 104 l 146 131 l 146 820 q 141 861 146 843 q 122 889 136 878 l 122 889 q 95 905 113 897 q 66 914 78 913 l 66 914 l 66 962 l 317 962 l 317 914 q 286 907 304 913 q 259 897 268 901 l 259 897 q 240 869 245 888 q 235 827 235 849 l 235 827 l 235 180 q 239 118 235 136 q 256 84 243 101 l 256 84 q 287 61 274 66 q 332 53 299 56 l 332 53 q 364 54 347 53 q 396 60 380 56 l 396 60 q 422 66 410 64 q 458 85 435 69 l 458 85 q 485 112 471 100 q 516 162 498 123 l 516 162 z "},"M":{"ha":723,"x_min":33,"x_max":685,"o":"m 685 48 l 685 0 l 452 0 l 452 48 q 485 53 465 49 q 512 64 505 57 l 512 64 q 529 94 524 77 q 534 136 534 111 l 534 136 l 531 755 l 531 757 l 385 16 l 330 16 l 161 851 l 161 832 l 164 276 q 174 138 168 171 q 186 87 179 104 l 186 87 q 218 52 199 54 q 245 48 237 49 l 245 48 l 245 0 l 33 0 l 33 48 q 68 58 50 51 q 96 81 86 66 l 96 81 q 114 139 109 100 q 119 271 119 178 l 119 271 l 119 763 q 113 833 119 806 q 97 877 108 860 l 97 877 q 69 904 85 895 q 36 914 52 913 l 36 914 l 36 962 l 216 962 l 366 241 l 495 844 q 507 914 502 878 q 513 962 512 950 l 513 962 l 684 962 l 684 914 q 658 908 674 913 q 634 898 642 903 l 634 898 q 617 871 621 890 q 612 829 612 852 l 612 829 l 612 136 q 617 96 612 112 q 634 67 621 79 l 634 67 q 658 55 641 60 q 685 48 675 49 l 685 48 z "},"N":{"ha":509,"x_min":16,"x_max":469,"o":"m 467 962 l 454 943 q 427 894 437 922 q 404 792 418 866 l 404 792 q 382 561 385 648 q 406 277 379 474 l 406 277 l 469 2 l 349 -7 l 293 133 l 231 314 q 200 139 202 171 q 197 91 199 106 l 197 91 q 194 70 193 75 q 195 48 195 64 l 195 48 l 195 0 l 45 0 l 60 33 q 72 64 70 54 q 82 91 75 73 l 82 91 q 91 160 90 140 q 92 274 92 180 l 92 274 l 92 748 q 89 808 92 779 q 79 867 86 836 l 79 867 q 59 911 69 893 q 35 947 48 930 l 35 947 l 16 962 l 153 962 l 194 848 l 247 694 q 296 819 292 792 q 302 869 300 845 l 302 869 q 304 895 302 886 q 307 937 305 903 l 307 937 l 297 962 l 467 962 z "},"O":{"ha":673,"x_min":20,"x_max":643,"o":"m 368 10 l 368 10 q 361 8 366 9 q 354 7 357 7 l 354 7 q 316 7 336 7 l 316 7 q 293 9 305 7 l 293 9 q 268 16 280 12 l 268 16 q 188 55 225 27 q 122 119 150 82 l 122 119 q 61 234 83 172 l 61 234 q 31 353 39 297 l 31 353 q 23 416 26 385 l 23 416 q 22 424 23 418 q 21 431 22 429 l 21 431 q 22 507 20 469 l 22 507 q 22 512 22 509 q 23 517 23 516 l 23 517 q 31 585 27 563 l 31 585 q 72 726 41 656 l 72 726 q 117 805 90 768 l 117 805 q 171 865 140 838 l 171 865 q 302 926 228 913 l 302 926 q 323 927 313 928 l 323 927 q 347 927 335 927 l 347 927 q 367 924 349 927 l 367 924 q 502 858 444 913 q 593 724 559 802 l 593 724 q 636 543 628 640 l 636 543 q 638 411 643 469 l 638 411 q 633 362 636 386 l 633 362 q 600 230 626 298 l 600 230 q 564 155 586 191 q 513 89 542 119 q 446 37 484 58 q 368 10 409 16 z m 189 210 l 189 210 q 239 147 208 174 q 306 117 269 121 l 306 117 q 339 115 321 115 l 339 115 q 416 142 382 117 q 471 210 450 168 l 471 210 q 509 328 498 264 l 509 328 q 519 449 518 387 l 519 449 q 516 523 519 475 l 516 523 q 474 703 508 627 l 474 703 q 409 785 452 753 l 409 785 q 351 808 383 804 l 351 808 q 291 806 320 813 l 291 806 q 228 771 256 799 q 183 709 199 744 l 183 709 q 155 627 165 670 l 155 627 q 139 470 140 551 l 139 470 q 159 290 139 367 l 159 290 q 189 210 171 246 z "},"P":{"ha":515,"x_min":73,"x_max":478,"o":"m 376 949 l 73 949 l 98 928 l 98 88 l 73 0 l 224 0 l 224 232 q 427 274 224 274 l 427 274 l 478 337 l 475 877 l 376 949 z m 230 793 l 290 844 l 382 789 l 382 431 l 348 387 l 275 372 l 230 410 l 230 793 z "},"Q":{"ha":710,"x_min":-105,"x_max":708,"o":"m 576 825 l 576 825 q 645 671 620 762 q 670 472 670 581 l 670 472 q 654 311 670 385 q 607 178 637 237 l 607 178 q 539 80 578 122 q 450 14 499 39 l 450 14 q 487 -114 451 -57 q 566 -171 523 -171 l 566 -171 q 625 -168 604 -171 q 659 -161 645 -164 l 659 -161 l 659 -212 q 605 -230 637 -220 q 517 -239 573 -239 l 517 -239 q 454 -227 485 -239 q 399 -186 424 -214 l 399 -186 q 358 -115 374 -158 q 338 -9 342 -73 l 338 -9 q 212 30 270 -7 q 113 131 155 67 l 113 131 q 48 282 71 195 q 25 472 25 369 l 25 472 q 51 673 25 585 q 121 825 77 761 l 121 825 q 224 923 165 889 q 348 957 283 957 l 348 957 q 474 922 414 957 q 576 825 533 888 z m 487 197 l 487 197 q 523 314 512 248 q 534 461 534 380 l 534 461 q 522 614 534 545 q 485 732 509 684 l 485 732 q 424 808 460 781 q 340 836 388 836 l 340 836 q 250 804 288 836 q 190 720 213 773 l 190 720 q 157 603 168 670 q 146 461 146 535 l 146 461 q 158 312 146 378 q 193 195 170 246 l 193 195 q 254 116 218 144 q 340 88 290 88 l 340 88 q 426 117 388 88 q 487 197 463 145 z m -104 929 l -104 929 z m 101 821 l 101 821 q 101 821 82 882 z m 90 145 l 90 145 z m 52 161 l 52 161 q 52 161 -50 83 z m 610 141 l 610 141 z m 597 806 l 597 806 z "},"R":{"ha":524,"x_min":73,"x_max":507,"o":"m 376 949 l 73 949 l 98 928 l 98 88 l 73 0 l 224 0 l 224 232 q 427 274 224 274 l 427 274 l 478 337 l 475 877 l 376 949 z m 230 793 l 290 844 l 382 789 l 382 431 l 348 387 l 275 372 l 230 410 l 230 793 z m 379 270 l 290 262 l 366 50 l 336 36 l 336 -2 l 507 -3 l 503 33 l 465 52 l 379 270 z "},"S":{"ha":594,"x_min":71,"x_max":563,"o":"m 518 441 l 518 441 q 552 367 541 408 q 563 273 563 327 l 563 273 q 492 63 563 146 q 315 -20 420 -20 l 315 -20 q 218 0 267 -20 q 134 49 170 20 l 134 49 l 112 -1 l 71 -1 l 71 310 l 95 265 q 134 186 119 218 q 179 121 149 154 l 179 121 q 242 63 207 87 q 326 39 278 39 l 326 39 q 387 52 361 39 q 430 86 414 64 l 430 86 q 454 139 446 109 q 462 208 462 169 l 462 208 q 437 316 462 266 q 364 391 413 366 l 364 391 q 288 430 331 409 q 214 471 245 452 l 214 471 q 118 567 153 507 q 84 722 84 626 l 84 722 q 101 824 84 777 q 149 909 118 871 l 149 909 q 219 964 179 944 q 304 984 260 984 l 304 984 q 394 964 354 984 q 466 916 433 943 l 466 916 l 487 962 l 528 962 l 528 703 l 496 761 q 462 818 470 808 q 437 852 454 828 l 437 852 q 375 902 407 878 q 297 925 343 925 l 297 925 q 214 884 249 925 q 180 783 180 842 l 180 783 q 202 679 180 720 q 266 612 224 638 l 266 612 q 339 571 303 588 q 410 534 376 553 l 410 534 q 469 494 440 516 q 518 441 497 471 z "},"T":{"ha":594,"x_min":62,"x_max":530,"o":"m 530 960 l 528 753 l 519 775 q 510 801 515 788 q 484 842 504 813 l 484 842 q 450 886 463 880 q 421 901 437 892 l 421 901 q 395 906 409 904 q 349 895 382 908 l 349 895 l 338 870 l 337 137 q 342 96 337 115 q 361 67 347 77 l 361 67 q 389 54 368 62 q 422 45 411 46 l 422 45 l 422 -3 l 170 -3 l 170 45 q 202 51 180 47 q 232 61 224 55 l 232 61 q 251 86 245 70 q 256 131 256 103 l 256 131 l 256 852 l 241 884 q 201 902 214 900 q 172 901 188 905 l 172 901 q 145 891 159 899 q 111 854 132 883 l 111 854 q 93 810 99 821 q 75 768 87 799 l 75 768 l 62 745 l 63 960 l 530 960 z "},"U":{"ha":647,"x_min":50,"x_max":604,"o":"m 604 962 l 604 914 q 573 906 593 913 q 540 884 553 899 l 540 884 q 522 819 527 868 q 517 700 517 770 l 517 700 l 517 281 q 498 142 517 201 q 450 45 479 83 l 450 45 q 386 -7 419 9 q 323 -23 353 -23 l 323 -23 q 236 0 274 -23 q 172 61 198 22 l 172 61 q 134 150 146 100 q 121 254 121 199 l 121 254 l 121 823 q 116 862 121 846 q 99 892 112 878 l 99 892 q 75 907 90 901 q 50 914 60 913 l 50 914 l 50 962 l 275 962 l 275 914 q 248 908 264 913 q 224 898 232 903 l 224 898 q 207 871 211 890 q 203 829 203 852 l 203 829 l 203 298 q 208 217 203 259 q 226 138 212 174 l 226 138 q 266 77 241 100 q 336 53 292 53 l 336 53 q 397 79 378 53 q 439 163 417 106 l 439 163 q 452 240 448 212 q 462 338 455 268 l 462 338 l 465 694 q 453 842 456 823 q 444 884 451 862 l 444 884 q 414 906 432 900 q 384 914 396 913 l 384 914 l 384 962 l 604 962 z "},"V":{"ha":600,"x_min":6,"x_max":568,"o":"m 568 962 l 568 914 q 543 906 557 913 q 519 889 529 899 l 519 889 q 498 852 506 875 q 483 800 490 830 l 483 800 q 405 464 456 692 q 297 -12 353 235 l 297 -12 l 265 -12 q 157 494 209 250 q 86 823 105 737 l 86 823 q 74 860 81 844 q 53 890 66 876 l 53 890 q 30 907 43 901 q 6 914 17 913 l 6 914 l 6 962 l 234 962 l 234 914 q 185 904 205 911 q 165 878 165 897 l 165 878 q 166 860 165 870 q 170 844 168 850 l 170 844 q 216 627 184 777 q 308 199 248 477 l 308 199 q 376 496 337 325 q 427 730 414 667 l 427 730 q 442 816 440 792 q 444 854 444 840 l 444 854 q 436 881 444 870 q 415 899 429 891 l 415 899 q 389 909 402 905 q 362 914 376 912 l 362 914 l 362 962 l 568 962 z "},"W":{"ha":711,"x_min":-3,"x_max":685,"o":"m 685 962 l 685 914 q 666 906 677 913 q 645 888 654 899 l 645 888 q 626 853 633 873 q 613 800 618 834 l 613 800 q 557 434 589 643 q 488 -12 525 224 l 488 -12 l 457 -12 l 336 728 l 210 -12 l 180 -12 q 111 480 146 225 q 62 823 75 736 l 62 823 q 54 860 60 844 q 37 890 47 876 l 37 890 q 18 907 29 901 q -3 914 6 913 l -3 914 l -3 962 l 193 962 l 193 914 q 150 904 168 911 q 132 879 132 897 l 132 879 q 133 861 132 872 q 134 843 134 850 l 134 843 q 161 646 142 783 q 220 235 181 509 l 220 235 l 340 949 l 373 949 l 494 219 q 536 513 518 387 q 565 728 553 639 l 565 728 q 575 815 573 791 q 577 854 577 838 l 577 854 q 562 893 577 878 q 511 914 546 909 l 511 914 l 511 962 l 685 962 z "},"X":{"ha":571,"x_min":9,"x_max":527,"o":"m 527 48 l 527 0 l 289 0 l 289 48 q 336 59 318 50 q 355 87 355 68 l 355 87 q 346 129 355 97 q 325 200 338 161 l 325 200 q 291 302 311 243 q 252 414 271 361 l 252 414 q 180 225 220 336 q 140 94 140 114 l 140 94 q 151 61 140 72 q 199 48 161 51 l 199 48 l 199 0 l 9 0 l 9 48 q 33 53 18 50 q 56 66 47 57 l 56 66 q 86 107 75 85 q 109 159 98 129 l 109 159 q 168 308 132 218 q 232 470 204 397 l 232 470 q 179 616 211 528 q 110 806 146 705 l 110 806 q 85 866 94 848 q 62 897 77 884 l 62 897 q 38 908 54 904 q 14 914 23 913 l 14 914 l 14 962 l 250 962 l 250 914 q 206 904 229 913 q 184 878 184 896 l 184 878 q 193 833 184 865 q 214 764 202 801 l 214 764 q 242 680 227 726 q 279 574 258 634 l 279 574 q 350 761 320 677 q 379 869 379 844 l 379 869 q 366 901 379 891 q 320 914 352 911 l 320 914 l 320 962 l 510 962 l 510 914 q 487 909 501 913 q 463 897 472 905 l 463 897 q 434 860 444 880 q 410 803 425 840 l 410 803 q 357 672 381 733 q 299 522 333 610 l 299 522 q 363 347 328 445 q 431 159 398 248 l 431 159 q 456 101 441 128 q 479 63 470 73 l 479 63 q 502 51 488 54 q 527 48 517 49 l 527 48 z "},"Y":{"ha":577,"x_min":8,"x_max":547,"o":"m 547 962 l 547 914 q 526 905 541 913 q 505 888 511 897 l 505 888 q 484 863 490 872 q 463 817 478 854 l 463 817 q 405 666 431 743 q 340 471 379 589 l 340 471 q 320 401 325 428 q 315 325 315 375 l 315 325 l 315 141 q 321 99 315 117 q 341 70 327 81 l 341 70 q 371 57 349 64 q 405 48 392 49 l 405 48 l 405 0 l 142 0 l 142 48 q 175 53 153 50 q 206 63 197 57 l 206 63 q 225 91 220 73 q 231 134 231 109 l 231 134 l 231 368 q 223 408 231 379 q 205 472 216 437 l 205 472 q 152 642 181 551 q 102 799 123 734 l 102 799 q 78 857 88 838 q 55 892 68 877 l 55 892 q 32 907 45 902 q 8 914 19 913 l 8 914 l 8 962 l 248 962 l 248 914 q 191 905 208 913 q 174 882 174 897 l 174 882 q 177 867 174 878 q 184 842 179 857 l 184 842 q 196 801 189 824 q 210 758 203 779 l 210 758 q 248 637 228 697 q 298 481 267 577 l 298 481 q 393 748 361 652 q 426 863 426 844 l 426 863 q 419 888 426 879 q 401 903 413 898 l 401 903 q 376 910 390 909 q 351 914 363 912 l 351 914 l 351 962 l 547 962 z "},"Z":{"ha":495,"x_min":18,"x_max":462,"o":"m 444 192 l 462 239 l 447 0 l 18 0 l 18 24 l 334 848 l 334 886 q 288 918 315 915 q 204 922 262 921 l 204 922 q 124 877 144 893 q 80 825 105 860 l 80 825 l 52 770 l 56 962 l 456 962 l 456 939 l 155 127 l 149 83 q 227 55 174 57 q 332 68 281 52 l 332 68 q 406 116 386 96 q 444 192 425 136 l 444 192 z "},"[":{"ha":521,"x_min":114,"x_max":475,"o":"m 475 -148 l 475 -210 l 114 -210 l 114 1030 l 475 1030 l 475 968 l 235 968 l 235 -148 l 475 -148 z "},"\\":{"ha":651,"x_min":61,"x_max":618,"o":"m 151 1033 l 618 -288 l 530 -288 l 61 1033 l 151 1033 z "},"]":{"ha":521,"x_min":45,"x_max":407,"o":"m 407 1030 l 407 -210 l 45 -210 l 45 -148 l 286 -148 l 286 968 l 45 968 l 45 1030 l 407 1030 z "},"^":{"ha":893,"x_min":130,"x_max":764,"o":"m 486 987 l 764 540 l 665 540 l 448 895 l 228 540 l 130 540 l 409 987 l 486 987 z "},"_":{"ha":893,"x_min":-3,"x_max":897,"o":"m 897 -123 l 897 -191 l -3 -191 l -3 -123 l 897 -123 z "},"`":{"ha":694,"x_min":222,"x_max":501,"o":"m 501 774 l 501 774 l 475 753 q 351 850 406 808 q 269 913 296 892 l 269 913 q 233 949 243 935 q 222 990 222 962 l 222 990 q 238 1026 222 1010 q 278 1043 254 1043 l 278 1043 q 323 1031 304 1043 q 364 983 342 1019 l 364 983 q 418 898 387 946 q 501 774 450 850 z "},"a":{"ha":393,"x_min":54,"x_max":363,"o":"m 363 56 l 363 12 q 336 -6 348 1 q 309 -14 324 -14 l 309 -14 q 268 11 283 -14 q 248 83 252 36 l 248 83 l 245 83 q 199 9 224 35 q 139 -17 174 -17 l 139 -17 q 78 29 102 -17 q 54 150 54 75 l 54 150 q 60 219 54 189 q 76 274 65 250 l 76 274 q 98 310 84 294 q 123 336 111 326 l 123 336 q 184 378 138 347 q 246 427 231 410 l 246 427 l 246 494 q 244 528 246 503 q 237 576 243 553 l 237 576 q 218 620 230 601 q 183 638 205 638 l 183 638 q 155 628 168 638 q 136 606 142 617 l 136 606 q 139 566 136 592 q 142 517 142 539 l 142 517 q 132 473 142 493 q 102 454 121 454 l 102 454 q 78 478 86 454 q 71 532 71 502 l 71 532 q 81 591 71 563 q 109 642 92 620 l 109 642 q 145 674 124 661 q 187 688 167 688 l 187 688 q 236 680 216 688 q 275 646 257 672 l 275 646 q 300 578 292 621 q 309 467 309 535 l 309 467 q 308 295 309 370 q 307 132 307 220 l 307 132 q 312 90 307 105 q 326 63 316 74 l 326 63 q 341 56 330 57 q 363 56 352 56 l 363 56 z m 212 137 l 214 321 q 167 295 187 308 q 130 263 146 282 l 130 263 q 104 220 113 245 q 95 161 95 195 l 95 161 q 109 96 95 117 q 144 75 123 75 l 144 75 q 183 93 166 75 q 212 137 201 111 l 212 137 z "},"b":{"ha":469,"x_min":-11,"x_max":435,"o":"m 435 335 l 435 335 q 377 82 435 184 q 244 -20 320 -20 l 244 -20 q 179 -3 212 -20 q 119 42 147 14 l 119 42 l 89 -36 l 63 -26 q 66 94 65 24 q 67 231 67 165 l 67 231 l 67 892 q 61 939 67 916 q 44 972 54 962 l 44 972 q 18 985 37 981 q -11 991 0 989 l -11 991 l -11 1034 l 137 1050 l 143 1040 l 143 599 l 146 597 q 201 665 171 642 q 260 687 231 687 l 260 687 q 385 589 335 687 q 435 335 435 492 z m 345 334 l 345 334 q 340 419 345 376 q 323 495 335 463 l 323 495 q 295 548 313 528 q 252 568 277 568 l 252 568 q 212 553 229 568 q 181 511 195 537 l 181 511 l 181 186 q 189 154 183 172 q 204 120 195 136 l 204 120 q 226 94 214 104 q 256 84 239 84 l 256 84 q 321 151 296 84 q 345 334 345 218 z "},"c":{"ha":436,"x_min":58,"x_max":401,"o":"m 379 442 l 380 377 l 288 374 l 288 496 q 259 573 279 566 q 214 583 239 579 l 214 583 q 182 560 188 580 q 174 491 176 540 l 174 491 l 174 172 q 190 102 180 115 q 220 83 200 90 l 220 83 q 261 107 246 92 q 288 191 276 122 l 288 191 l 290 271 l 401 264 l 401 238 q 389 87 401 132 q 335 9 376 42 q 231 -24 293 -24 l 231 -24 q 126 4 168 -24 q 72 82 85 32 q 58 233 58 133 l 58 233 l 58 434 q 62 546 58 509 q 87 617 66 583 q 144 671 108 652 q 227 691 180 691 l 227 691 q 333 661 292 691 q 375 584 374 630 q 379 442 376 538 l 379 442 z "},"d":{"ha":559,"x_min":49,"x_max":533,"o":"m 533 56 l 533 12 l 379 -3 l 372 7 l 372 68 l 368 70 q 311 6 345 31 q 240 -19 277 -19 l 240 -19 q 168 6 203 -19 q 106 77 132 31 l 106 77 q 64 189 80 124 q 49 333 49 254 l 49 333 q 65 470 49 406 q 111 583 82 534 l 111 583 q 178 655 138 628 q 259 682 218 682 l 259 682 q 320 670 290 682 q 371 640 350 659 l 371 640 l 371 871 q 365 923 371 899 q 347 958 359 946 l 347 958 q 314 977 335 971 q 268 985 292 983 l 268 985 l 268 1027 l 448 1042 l 455 1032 l 455 136 q 461 97 455 113 q 479 68 467 80 l 479 68 q 504 58 488 60 q 533 56 519 56 l 533 56 z m 371 128 l 371 128 l 371 517 q 359 555 368 534 q 339 592 351 575 l 339 592 q 309 620 326 608 q 268 631 292 631 l 268 631 q 219 610 241 631 q 178 550 196 589 l 178 550 q 152 454 162 512 q 142 325 142 396 l 142 325 q 150 222 142 269 q 174 136 157 176 l 174 136 q 214 76 190 99 q 272 53 239 53 l 272 53 q 332 77 308 53 q 371 128 355 100 z "},"e":{"ha":433,"x_min":49,"x_max":402,"o":"m 374 182 l 402 154 q 335 29 377 75 q 239 -18 293 -18 l 239 -18 q 155 10 191 -18 q 95 86 119 38 l 95 86 q 60 197 72 134 q 49 332 49 261 l 49 332 q 61 457 49 396 q 97 568 73 519 l 97 568 q 154 644 120 615 q 231 673 189 673 l 231 673 q 305 650 274 673 q 356 589 336 627 l 356 589 q 384 501 374 551 q 393 391 393 450 l 393 391 l 393 347 l 129 347 q 136 231 129 283 q 160 138 144 178 l 160 138 q 201 78 176 100 q 262 56 227 56 l 262 56 q 324 83 298 56 q 374 182 350 111 l 374 182 z m 129 404 l 313 404 q 309 483 313 440 q 297 554 305 526 l 297 554 q 272 604 288 585 q 230 623 256 623 l 230 623 q 160 565 188 623 q 129 404 132 507 l 129 404 z "},"f":{"ha":386,"x_min":16,"x_max":345,"o":"m 345 972 l 345 972 q 335 920 345 941 q 304 899 325 899 l 304 899 q 281 908 292 899 q 263 932 271 917 l 263 932 q 248 966 255 947 q 235 997 241 985 l 235 997 q 192 933 208 995 q 176 736 176 871 l 176 736 l 176 668 l 283 668 l 283 603 l 176 603 l 176 121 q 182 82 176 97 q 200 60 188 67 l 200 60 q 227 50 210 54 q 256 45 244 46 l 256 45 l 256 0 l 37 0 l 37 45 q 57 47 47 46 q 75 53 68 49 l 75 53 q 93 74 87 59 q 98 115 98 90 l 98 115 l 98 603 l 16 603 l 16 668 l 98 668 l 98 711 q 147 959 98 864 q 270 1054 196 1054 l 270 1054 q 326 1030 307 1054 q 345 972 345 1006 z "},"g":{"ha":535,"x_min":28,"x_max":489,"o":"m 448 69 l 448 69 q 478 11 467 43 q 489 -70 489 -22 l 489 -70 q 474 -160 489 -118 q 429 -234 459 -203 l 429 -234 q 352 -283 397 -266 q 242 -301 308 -301 l 242 -301 q 82 -257 135 -301 q 28 -127 28 -212 l 28 -127 q 67 -18 28 -58 q 165 26 105 22 l 165 26 l 165 35 q 135 51 150 41 q 109 72 119 60 l 109 72 q 89 105 96 86 q 81 153 81 125 l 81 153 q 99 219 81 189 q 153 271 117 250 l 153 271 l 153 281 q 82 360 107 312 q 56 471 56 408 l 56 471 q 106 627 56 566 q 235 688 157 688 l 235 688 q 277 682 256 688 q 321 666 298 675 l 321 666 l 486 666 l 486 601 l 374 601 l 374 597 q 401 532 392 568 q 410 463 410 497 l 410 463 q 359 314 410 375 q 241 253 309 253 l 241 253 l 183 253 q 160 233 172 248 q 149 195 149 219 l 149 195 q 158 156 149 170 q 183 138 168 143 l 183 138 q 215 132 197 133 q 253 130 233 130 l 253 130 q 311 125 274 129 q 363 121 348 122 l 363 121 q 407 106 385 120 q 448 69 429 93 z m 318 466 l 318 466 q 295 592 318 545 q 232 640 273 640 l 232 640 q 193 626 209 640 q 167 589 177 613 l 167 589 q 153 535 157 566 q 149 470 149 503 l 149 470 q 173 347 149 395 q 233 300 196 300 l 233 300 q 296 347 274 300 q 318 466 318 394 z m 410 -95 l 410 -95 q 398 -33 410 -57 q 360 1 385 -8 l 360 1 q 305 7 347 3 q 208 10 263 10 l 208 10 q 135 -38 157 -4 q 113 -124 113 -71 l 113 -124 q 120 -170 113 -148 q 145 -210 127 -191 l 145 -210 q 190 -238 161 -227 q 259 -250 218 -250 l 259 -250 q 370 -211 330 -250 q 410 -95 410 -173 z "},"h":{"ha":536,"x_min":4,"x_max":509,"o":"m 509 45 l 509 0 l 294 0 l 294 45 q 317 47 304 46 q 337 53 330 49 l 337 53 q 356 74 350 59 q 361 114 361 90 l 361 114 l 361 458 q 340 568 361 529 q 286 606 318 606 l 286 606 q 243 595 263 606 q 208 568 224 584 l 208 568 q 185 534 193 551 q 172 505 177 517 l 172 505 l 172 121 q 178 83 172 98 q 197 60 184 68 l 197 60 q 217 50 207 53 q 240 45 228 46 l 240 45 l 240 0 l 25 0 l 25 45 q 46 48 35 46 q 65 53 58 50 l 65 53 q 83 74 77 59 q 90 114 90 90 l 90 114 l 90 892 q 83 939 90 916 q 65 973 76 962 l 65 973 q 37 986 57 982 q 4 991 16 989 l 4 991 l 4 1034 l 166 1050 l 172 1040 l 172 573 l 174 573 q 201 613 189 595 q 233 649 213 630 l 233 649 q 272 676 250 665 q 323 687 295 687 l 323 687 q 414 630 382 687 q 446 467 446 574 l 446 467 l 446 119 q 451 81 446 96 q 469 58 456 66 l 469 58 q 488 49 479 52 q 509 45 496 46 l 509 45 z "},"i":{"ha":309,"x_min":9,"x_max":305,"o":"m 136 1024 l 136 1024 l 164 1024 q 235 956 201 1024 l 235 956 l 263 956 l 263 939 q 210 886 218 947 l 210 886 l 178 860 l 178 802 q 305 661 270 808 l 305 661 l 305 652 q 256 509 305 545 l 256 509 l 270 408 l 235 408 l 235 382 l 256 281 q 206 180 206 281 l 206 180 l 206 87 l 214 78 l 214 70 l 206 61 l 263 2 l 220 2 l 150 53 l 30 2 l 16 2 l 16 10 q 100 70 16 41 l 100 70 l 108 205 q 58 289 108 273 l 58 289 l 73 408 q 44 425 44 408 l 44 425 l 44 450 l 58 517 q 9 652 9 569 l 9 652 q 135 806 9 785 l 135 806 l 142 829 l 142 848 l 138 859 l 109 878 l 93 904 l 89 939 q 57 956 44 939 l 57 956 l 94 956 q 136 1024 94 994 z m 37 692 l 37 692 l 37 646 q 72 554 37 561 l 72 554 l 83 554 l 106 577 l 106 704 q 81 743 106 762 l 81 743 q 37 692 37 750 z m 227 736 l 212 733 l 202 563 l 213 551 l 213 540 q 269 621 269 555 l 269 621 l 273 644 q 227 736 269 741 l 227 736 z "},"j":{"ha":321,"x_min":11,"x_max":307,"o":"m 299 665 l 299 38 q 283 -102 299 -37 q 241 -210 267 -168 l 241 -210 q 178 -280 213 -256 q 100 -304 142 -304 l 100 -304 q 33 -280 56 -304 q 11 -223 11 -256 l 11 -223 q 23 -172 11 -194 q 58 -150 35 -150 l 58 -150 q 84 -159 73 -150 q 105 -182 96 -168 l 105 -182 q 121 -212 113 -194 q 137 -247 130 -230 l 137 -247 q 191 -184 175 -247 q 207 16 207 -122 l 207 16 l 207 519 q 199 561 207 541 q 179 593 192 581 l 179 593 q 141 608 172 600 q 96 617 111 615 l 96 617 l 96 659 l 292 674 l 299 665 z m 307 939 l 307 939 q 288 871 307 900 q 242 842 269 842 l 242 842 q 198 870 217 842 q 180 932 180 897 l 180 932 q 198 998 180 970 q 242 1025 217 1025 l 242 1025 q 289 999 271 1025 q 307 939 307 973 z "},"k":{"ha":451,"x_min":4,"x_max":423,"o":"m 423 45 l 423 0 l 311 0 q 248 164 281 77 q 178 334 214 252 l 178 334 l 147 282 l 147 123 q 152 83 147 99 q 168 60 157 67 l 168 60 q 185 50 177 53 q 204 45 193 46 l 204 45 l 204 0 l 22 0 l 22 45 q 40 48 31 46 q 56 53 50 50 l 56 53 q 72 74 66 59 q 77 114 77 90 l 77 114 l 77 891 q 71 938 77 916 q 56 972 65 960 l 56 972 q 31 986 48 983 q 4 991 14 989 l 4 991 l 4 1034 l 142 1050 l 147 1040 l 147 332 q 211 446 176 385 q 268 554 245 507 l 268 554 q 275 570 271 560 q 278 586 278 580 l 278 586 q 262 613 278 604 q 231 625 245 622 l 231 625 l 231 669 l 394 669 l 394 627 q 338 584 362 610 q 301 538 314 559 l 301 538 q 275 494 292 525 q 229 414 258 464 l 229 414 q 298 250 260 346 q 355 112 337 155 l 355 112 q 385 60 372 72 q 423 45 398 47 l 423 45 z "},"l":{"ha":309,"x_min":1,"x_max":238,"o":"m 238 45 l 238 0 l 24 0 l 24 45 q 46 48 35 46 q 65 53 58 50 l 65 53 q 84 74 77 59 q 90 114 90 90 l 90 114 l 90 888 q 83 934 90 913 q 65 968 76 956 l 65 968 q 36 983 57 976 q 1 991 14 989 l 1 991 l 1 1034 l 166 1050 l 173 1040 l 173 122 q 179 83 173 98 q 197 60 184 68 l 197 60 q 216 50 207 53 q 238 45 226 46 l 238 45 z "},"m":{"ha":718,"x_min":39,"x_max":679,"o":"m 679 45 l 679 0 l 498 0 l 498 45 q 515 47 507 46 q 531 53 524 49 l 531 53 q 547 74 542 59 q 552 114 552 90 l 552 114 l 552 459 q 534 568 552 530 q 490 606 516 606 l 490 606 q 455 596 471 606 q 425 568 439 586 l 425 568 q 407 535 414 553 q 396 507 399 518 l 396 507 l 396 121 q 400 82 396 97 q 416 58 405 66 l 416 58 q 431 49 425 52 q 450 45 438 46 l 450 45 l 450 0 l 273 0 l 273 45 q 290 47 281 46 q 304 53 298 49 l 304 53 q 320 74 315 59 q 325 114 325 90 l 325 114 l 325 459 q 307 568 325 530 q 262 606 290 606 l 262 606 q 228 596 244 606 q 198 567 212 585 l 198 567 q 180 533 187 552 q 169 505 172 515 l 169 505 l 169 122 q 174 83 169 99 q 190 60 179 68 l 190 60 q 206 50 197 53 q 224 45 214 46 l 224 45 l 224 0 l 44 0 l 44 45 q 62 47 53 46 q 78 53 71 49 l 78 53 q 94 74 89 59 q 99 114 99 90 l 99 114 l 99 530 q 94 569 99 551 q 78 598 88 586 l 78 598 q 61 611 71 606 q 39 618 50 616 l 39 618 l 39 662 l 163 677 l 168 667 l 168 572 l 170 572 q 193 612 180 589 q 218 649 207 635 l 218 649 q 252 676 232 665 q 294 687 271 687 l 294 687 q 356 652 330 687 q 393 568 382 617 l 393 568 q 417 609 407 591 q 444 648 427 627 l 444 648 q 478 676 458 665 q 521 687 497 687 l 521 687 q 595 631 568 687 q 623 460 623 576 l 623 460 l 623 121 q 627 82 623 97 q 643 58 632 66 l 643 58 q 660 49 652 52 q 679 45 668 46 l 679 45 z "},"n":{"ha":522,"x_min":41,"x_max":473,"o":"m 473 45 l 473 0 l 283 0 l 283 45 q 303 47 293 46 q 321 53 314 49 l 321 53 q 338 74 332 59 q 343 114 343 90 l 343 114 l 343 458 q 323 568 343 529 q 276 606 304 606 l 276 606 q 238 595 256 606 q 208 568 221 584 l 208 568 q 187 534 195 552 q 176 505 179 516 l 176 505 l 176 121 q 181 83 176 98 q 197 60 186 68 l 197 60 q 216 50 206 53 q 235 45 225 46 l 235 45 l 235 0 l 45 0 l 45 45 q 64 47 55 46 q 81 53 74 49 l 81 53 q 97 74 92 59 q 102 114 102 90 l 102 114 l 102 527 q 97 569 102 550 q 81 601 92 589 l 81 601 q 63 613 73 609 q 41 618 53 616 l 41 618 l 41 662 l 170 677 l 176 667 l 176 573 l 178 573 q 201 612 187 589 q 228 649 216 635 l 228 649 q 262 676 242 665 q 308 687 283 687 l 308 687 q 390 627 363 687 q 417 467 417 567 l 417 467 l 417 119 q 422 81 417 96 q 438 58 427 66 l 438 58 q 454 49 448 52 q 473 45 461 46 l 473 45 z "},"o":{"ha":772,"x_min":10,"x_max":749,"o":"m 24 5 l 24 5 l 24 -35 q 59 -74 59 -35 l 59 -74 l 71 -87 l 83 -87 q 106 -47 106 -87 l 106 -47 l 94 -8 q 152 58 125 0 l 152 58 l 140 71 l 129 71 q 24 5 66 5 z m 703 341 l 703 341 q 681 202 703 271 q 617 87 659 134 l 617 87 q 509 6 570 33 q 370 -20 447 -20 l 370 -20 q 249 4 307 -20 q 146 74 191 28 l 146 74 q 76 185 102 119 q 50 332 50 250 l 50 332 q 141 588 50 488 q 380 688 233 688 l 380 688 q 612 593 521 688 q 703 341 703 498 z m 563 340 l 563 340 q 553 447 563 391 q 522 543 543 504 l 522 543 q 465 611 500 585 q 379 636 430 636 l 379 636 q 290 610 327 636 q 230 540 253 585 l 230 540 q 199 446 208 498 q 191 343 191 393 l 191 343 q 201 223 191 278 q 235 124 212 168 l 235 124 q 293 56 258 81 q 379 31 328 31 l 379 31 q 513 113 464 31 q 563 340 563 195 z m 95 739 l 95 739 l 56 733 q 22 693 61 699 l 22 693 l 10 680 l 12 668 q 54 651 15 645 l 54 651 l 92 668 q 165 621 105 639 l 165 621 l 177 633 l 175 645 q 95 739 101 697 z m 643 -77 q 578 27 644 -36 l 578 27 l 578 39 l 591 50 q 657 -8 648 22 l 657 -8 l 696 3 q 736 -20 736 2 l 736 -20 l 736 -32 l 722 -43 q 682 -78 683 -43 l 682 -78 l 643 -77 z m 745 651 q 634 597 703 656 l 634 597 l 623 598 l 612 612 q 677 671 646 667 l 677 671 l 670 712 q 697 749 674 751 l 697 749 l 709 748 l 719 733 q 749 690 715 694 l 749 690 l 745 651 z "},"p":{"ha":488,"x_min":22,"x_max":452,"o":"m 402 589 l 402 589 q 439 479 426 542 q 452 336 452 416 l 452 336 q 437 191 452 256 q 395 79 421 125 l 395 79 q 335 7 368 33 q 264 -18 302 -18 l 264 -18 q 205 -4 229 -18 q 168 28 182 9 l 168 28 l 165 28 l 165 -173 q 170 -214 165 -197 q 188 -237 176 -230 l 188 -237 q 215 -249 197 -243 q 245 -256 233 -255 l 245 -256 l 245 -301 l 22 -301 l 22 -256 q 46 -252 35 -254 q 68 -245 58 -250 l 68 -245 q 85 -222 80 -239 q 90 -182 90 -205 l 90 -182 l 90 530 q 83 569 90 550 q 68 600 77 588 l 68 600 q 47 612 60 608 q 22 618 35 616 l 22 618 l 22 662 l 158 677 l 164 669 l 164 593 l 167 592 q 219 660 188 633 q 281 687 250 687 l 281 687 q 349 661 318 687 q 402 589 380 634 z m 336 109 l 336 109 q 360 206 353 151 q 368 330 368 262 l 368 330 q 361 433 368 380 q 341 524 355 485 l 341 524 q 305 587 328 563 q 252 612 283 612 l 252 612 q 201 590 222 612 q 165 537 180 568 l 165 537 l 165 142 q 177 104 168 123 q 195 70 185 84 l 195 70 q 222 42 208 53 q 258 32 237 32 l 258 32 q 301 52 280 32 q 336 109 322 72 z "},"q":{"ha":579,"x_min":49,"x_max":551,"o":"m 551 -256 l 551 -301 l 303 -301 l 303 -256 q 332 -252 318 -254 q 357 -245 346 -250 l 357 -245 q 377 -222 371 -239 q 382 -182 382 -205 l 382 -182 l 382 65 l 380 66 q 358 38 372 54 q 330 12 345 22 l 330 12 q 294 -10 311 -2 q 251 -18 277 -18 l 251 -18 q 173 8 210 -18 q 109 80 136 33 l 109 80 q 65 194 81 126 q 49 342 49 261 l 49 342 q 67 481 49 418 q 117 591 86 544 l 117 591 q 187 661 146 635 q 268 687 228 687 l 268 687 q 322 679 298 687 q 362 659 345 670 l 362 659 q 391 636 376 650 q 411 617 405 622 l 411 617 l 450 705 l 477 700 q 472 576 475 650 q 469 448 469 503 l 469 448 l 469 -170 q 475 -211 469 -194 q 494 -237 481 -229 l 494 -237 q 523 -249 506 -244 q 551 -256 540 -254 l 551 -256 z m 382 124 l 382 124 l 382 524 q 370 561 378 541 q 349 597 361 582 l 349 597 q 317 625 336 614 q 274 635 298 635 l 274 635 q 183 553 220 635 q 146 328 146 471 l 146 328 q 153 224 146 271 q 178 138 160 178 l 178 138 q 220 78 195 100 q 284 55 245 55 l 284 55 q 341 76 318 55 q 382 124 365 96 z "},"r":{"ha":442,"x_min":41,"x_max":402,"o":"m 402 583 l 402 583 q 390 521 402 548 q 354 494 378 494 l 354 494 q 314 514 328 494 q 300 557 300 534 l 300 557 q 301 585 300 572 q 304 609 303 597 l 304 609 q 253 583 283 609 q 203 510 223 557 l 203 510 l 203 121 q 209 82 203 97 q 229 60 215 67 l 229 60 q 259 50 241 53 q 292 45 278 46 l 292 45 l 292 0 l 47 0 l 47 45 q 69 47 58 46 q 89 53 81 49 l 89 53 q 109 74 102 59 q 115 114 115 90 l 115 114 l 115 527 q 108 568 115 548 q 89 601 101 589 l 89 601 q 68 613 80 609 q 41 618 56 616 l 41 618 l 41 662 l 196 677 l 203 667 l 203 573 l 205 573 q 270 656 234 628 q 335 685 306 685 l 335 685 q 384 657 365 685 q 402 583 402 629 z "},"s":{"ha":369,"x_min":50,"x_max":342,"o":"m 309 328 l 309 328 q 334 271 325 303 q 342 193 342 239 l 342 193 q 302 41 342 100 q 196 -18 261 -18 l 196 -18 q 133 3 161 -18 q 92 42 104 24 l 92 42 l 83 -2 l 54 -2 l 50 231 l 77 231 q 91 169 80 204 q 116 105 101 134 l 116 105 q 153 55 131 75 q 202 35 175 35 l 202 35 q 261 64 240 35 q 281 149 281 94 l 281 149 q 275 198 281 177 q 256 234 269 218 l 256 234 q 223 262 242 250 q 180 287 204 275 l 180 287 q 139 313 162 296 q 100 352 116 330 l 100 352 q 71 410 82 376 q 60 492 60 445 l 60 492 q 96 631 60 574 q 192 688 132 688 l 192 688 q 239 677 215 688 q 278 653 263 667 l 278 653 l 288 688 l 316 688 l 322 473 l 294 473 q 258 590 286 545 q 191 635 231 635 l 191 635 q 139 608 158 635 q 121 541 121 580 l 121 541 q 127 490 121 510 q 146 455 133 469 l 146 455 q 176 430 157 441 q 220 403 194 418 l 220 403 q 270 370 247 389 q 309 328 294 351 z "},"t":{"ha":386,"x_min":9,"x_max":345,"o":"m 345 79 l 345 29 q 283 -2 313 11 q 212 -14 254 -14 l 212 -14 q 124 28 149 -14 q 98 148 98 71 l 98 148 l 98 601 l 9 601 l 9 666 l 100 666 l 100 874 l 192 874 l 192 666 l 334 666 l 334 601 l 193 601 l 193 227 q 195 157 193 185 q 206 108 197 129 l 206 108 q 230 78 214 88 q 274 68 246 68 l 274 68 q 311 71 286 68 q 345 79 335 74 l 345 79 z "},"u":{"ha":615,"x_min":24,"x_max":578,"o":"m 578 56 l 578 12 l 415 -3 l 408 7 l 408 92 l 405 92 q 377 55 393 75 q 342 20 362 36 l 342 20 q 298 -7 319 2 q 238 -17 277 -17 l 238 -17 q 137 41 172 -17 q 102 210 102 99 l 102 210 l 102 530 q 96 571 102 554 q 75 600 89 587 l 75 600 q 53 611 66 608 q 24 616 39 615 l 24 616 l 24 661 l 191 677 l 198 667 l 198 203 q 222 94 198 130 q 281 57 247 57 l 281 57 q 330 68 309 57 q 367 96 352 80 l 367 96 q 391 126 380 110 q 407 155 401 142 l 407 155 l 407 534 q 400 574 407 557 q 380 604 393 591 l 380 604 q 353 613 371 612 q 313 616 335 615 l 313 616 l 313 661 l 494 677 l 501 667 l 501 136 q 508 97 501 113 q 528 69 515 81 l 528 69 q 550 59 537 62 q 578 56 563 57 l 578 56 z "},"v":{"ha":448,"x_min":7,"x_max":434,"o":"m 434 669 l 434 627 q 400 605 416 622 q 372 547 384 589 l 372 547 q 323 357 349 456 q 271 150 298 258 l 271 150 q 254 76 262 119 q 237 -6 245 33 l 237 -6 l 205 -6 q 136 284 168 153 q 69 553 104 416 l 69 553 q 43 602 61 585 q 7 624 26 619 l 7 624 l 7 669 l 190 669 l 190 621 q 160 613 178 621 q 142 591 142 605 l 142 591 q 144 581 142 589 q 148 562 146 572 l 148 562 q 195 368 165 492 q 243 168 224 244 l 243 168 q 280 313 258 227 q 327 507 302 400 l 327 507 q 334 542 331 526 q 338 574 338 557 l 338 574 q 331 594 338 585 q 315 610 325 604 l 315 610 q 298 621 307 617 q 283 625 289 624 l 283 625 l 283 669 l 434 669 z "},"w":{"ha":685,"x_min":-3,"x_max":658,"o":"m 658 669 l 658 625 q 619 602 640 623 q 589 538 598 581 l 589 538 q 549 350 568 439 q 506 149 530 260 l 506 149 q 490 73 498 114 q 476 -5 482 33 l 476 -5 l 439 -5 l 326 488 l 212 -5 l 177 -5 q 114 294 144 146 q 60 552 83 442 l 60 552 q 34 602 53 584 q -3 624 14 621 l -3 624 l -3 669 l 184 669 l 184 621 q 154 614 171 621 q 138 591 138 607 l 138 591 q 139 580 138 589 q 143 561 141 571 l 143 561 q 174 402 157 490 q 218 174 191 314 l 218 174 l 326 655 l 368 655 l 477 180 q 514 356 496 271 q 546 516 532 441 l 546 516 q 551 548 549 534 q 554 577 554 563 l 554 577 q 547 599 554 589 q 531 614 541 608 l 531 614 q 512 623 522 620 q 498 625 502 625 l 498 625 l 498 669 l 658 669 z "},"x":{"ha":486,"x_min":8,"x_max":465,"o":"m 465 45 l 465 0 l 260 0 l 260 45 q 295 52 281 48 q 309 69 309 55 l 309 69 q 304 88 309 75 q 296 112 300 101 l 296 112 q 264 183 284 138 q 216 289 245 227 l 216 289 q 173 203 193 245 q 132 115 153 161 l 132 115 q 125 98 128 108 q 121 81 121 87 l 121 81 q 134 57 121 66 q 173 43 147 47 l 173 43 l 173 0 l 8 0 l 8 42 q 58 75 39 56 q 92 123 77 94 l 92 123 q 132 197 106 150 q 196 326 157 245 l 196 326 q 140 447 173 376 q 85 566 106 519 l 85 566 q 58 608 73 592 q 16 624 43 624 l 16 624 l 16 669 l 210 669 l 210 624 q 181 621 195 624 q 167 609 167 618 l 167 609 q 170 595 167 603 q 176 579 172 588 l 176 579 q 208 508 186 556 q 252 406 229 460 l 252 406 q 290 482 269 439 q 328 565 311 526 l 328 565 q 332 577 330 570 q 334 591 334 584 l 334 591 q 318 613 334 605 q 288 625 302 622 l 288 625 l 288 669 l 453 669 l 453 627 q 398 594 418 613 q 366 551 379 576 l 366 551 q 330 483 351 524 q 273 369 309 442 l 273 369 q 339 227 313 282 q 391 112 365 171 l 391 112 q 420 65 404 82 q 465 45 437 47 l 465 45 z "},"y":{"ha":497,"x_min":-13,"x_max":482,"o":"m -5 -218 l -5 -218 q 8 -163 -5 -184 q 39 -142 20 -142 l 39 -142 q 65 -150 54 -142 q 85 -171 76 -158 l 85 -171 q 99 -199 92 -181 q 112 -228 107 -216 l 112 -228 q 168 -132 136 -210 q 215 3 201 -55 l 215 3 q 135 291 171 164 q 59 553 98 418 l 59 553 q 29 602 50 585 q -13 624 8 619 l -13 624 l -13 669 l 198 669 l 198 621 q 164 613 184 621 q 144 591 144 605 l 144 591 q 147 581 144 591 q 151 562 150 571 l 151 562 q 206 368 170 494 q 262 165 242 241 l 262 165 q 306 316 283 238 q 357 499 329 393 l 357 499 q 366 535 360 512 q 372 574 372 557 l 372 574 q 351 607 372 591 q 311 625 330 622 l 311 625 l 311 669 l 482 669 l 482 627 q 445 603 468 623 q 411 547 422 583 l 411 547 q 312 205 355 359 q 246 -21 269 52 l 246 -21 q 193 -169 216 -116 q 149 -253 170 -222 l 149 -253 q 109 -291 127 -281 q 73 -301 92 -301 l 73 -301 q 16 -276 37 -301 q -5 -218 -5 -251 z "},"z":{"ha":433,"x_min":37,"x_max":389,"o":"m 389 236 l 389 0 l 37 0 l 37 36 l 283 614 l 222 614 q 163 612 184 614 q 123 598 141 610 l 123 598 q 100 555 111 591 q 81 463 89 520 l 81 463 l 54 463 l 54 669 l 387 669 l 387 641 l 136 55 q 172 54 153 54 q 212 54 191 54 l 212 54 q 249 54 230 54 q 298 58 269 55 l 298 58 q 325 76 316 59 q 339 115 334 93 l 339 115 q 351 169 344 134 q 363 236 357 203 l 363 236 l 389 236 z "},"{":{"ha":597,"x_min":49,"x_max":552,"o":"m 552 -172 l 552 -226 q 424 -216 481 -226 q 328 -179 367 -206 l 328 -179 q 269 -105 289 -151 q 249 18 249 -58 l 249 18 q 254 106 249 59 q 259 191 259 153 l 259 191 q 245 272 259 239 q 203 323 231 304 l 203 323 q 136 352 176 343 q 49 364 96 361 l 49 364 l 49 452 q 137 466 96 456 q 203 494 178 475 l 203 494 q 246 547 233 515 q 259 625 259 579 l 259 625 q 254 711 259 664 q 249 798 249 758 l 249 798 q 269 917 249 869 q 328 994 289 965 l 328 994 q 425 1032 367 1021 q 552 1042 482 1042 l 552 1042 l 552 987 q 489 980 525 985 q 432 962 453 974 l 432 962 q 392 919 408 949 q 377 840 377 890 l 377 840 l 377 681 q 360 563 377 610 q 310 487 343 516 l 310 487 q 237 444 279 460 q 144 418 195 428 l 144 418 l 144 397 q 236 372 193 388 q 310 329 279 357 l 310 329 q 359 254 342 300 q 377 135 377 207 l 377 135 l 377 -23 q 391 -101 377 -71 q 432 -146 406 -131 l 432 -146 q 491 -165 457 -161 q 552 -172 524 -170 l 552 -172 z "},"|":{"ha":521,"x_min":218,"x_max":304,"o":"m 304 1033 l 304 -288 l 218 -288 l 218 1033 l 304 1033 z "},"}":{"ha":597,"x_min":45,"x_max":549,"o":"m 549 452 l 549 364 q 461 352 502 361 q 395 323 421 342 l 395 323 q 353 272 367 304 q 338 191 338 239 l 338 191 q 343 106 338 153 q 349 18 349 59 l 349 18 q 329 -105 349 -58 q 269 -179 309 -151 l 269 -179 q 174 -216 231 -205 q 45 -226 117 -226 l 45 -226 l 45 -172 q 107 -165 73 -170 q 165 -146 141 -161 l 165 -146 q 206 -101 192 -131 q 220 -23 220 -71 l 220 -23 l 220 135 q 238 254 220 207 q 288 329 256 300 l 288 329 q 362 372 319 357 q 454 397 405 388 l 454 397 l 454 418 q 360 444 402 428 q 288 487 318 460 l 288 487 q 237 563 254 516 q 220 681 220 610 l 220 681 l 220 840 q 205 919 220 890 q 165 962 190 949 l 165 962 q 109 980 144 974 q 45 987 73 985 l 45 987 l 45 1042 q 173 1032 115 1042 q 269 994 231 1021 l 269 994 q 329 917 309 965 q 349 798 349 869 l 349 798 q 343 711 349 758 q 338 625 338 664 l 338 625 q 352 547 338 579 q 394 494 365 515 l 394 494 q 460 466 419 476 q 549 452 501 456 l 549 452 z "},"~":{"ha":893,"x_min":88,"x_max":805,"o":"m 752 505 l 805 484 q 773 421 795 459 q 724 357 751 384 l 724 357 q 654 304 691 323 q 574 285 617 285 l 574 285 q 484 299 525 285 q 410 331 444 314 l 410 331 q 341 363 375 349 q 274 377 308 377 l 274 377 q 199 346 229 377 q 141 258 170 315 l 141 258 l 88 279 q 120 341 97 304 q 170 406 142 378 l 170 406 q 237 456 196 435 q 319 478 278 478 l 319 478 q 410 464 370 478 q 485 432 450 449 l 485 432 q 552 400 522 414 q 619 386 582 386 l 619 386 q 697 419 667 386 q 752 505 727 452 l 752 505 z "},"":{"ha":460,"x_min":140,"x_max":326,"o":"m 326 888 l 326 888 q 299 823 326 850 q 233 796 271 796 l 233 796 q 168 823 195 796 q 140 888 140 850 l 140 888 q 168 953 140 926 q 233 981 195 981 l 233 981 q 299 953 271 981 q 326 888 326 926 z m 320 70 l 320 70 q 296 5 320 31 q 233 -22 271 -22 l 233 -22 q 171 4 195 -22 q 146 70 146 31 l 146 70 q 168 295 146 114 q 205 673 190 477 l 205 673 l 258 673 q 297 309 274 509 q 320 70 320 109 z "},"":{"ha":771,"x_min":96,"x_max":705,"o":"m 666 190 l 705 159 q 596 42 665 91 q 441 -13 526 -7 l 441 -13 l 441 -203 l 386 -203 l 386 -12 q 171 97 247 0 q 96 338 96 193 l 96 338 q 176 569 96 469 q 386 685 257 668 l 386 685 l 386 865 l 441 865 l 441 688 q 607 640 541 688 q 673 512 673 592 l 673 512 q 655 448 673 471 q 602 426 637 426 l 602 426 q 538 446 557 426 q 519 492 519 467 l 519 492 q 529 554 519 522 q 540 602 538 586 l 540 602 q 501 629 528 619 q 441 640 474 638 l 441 640 l 441 60 q 448 59 445 60 q 455 59 450 59 l 455 59 q 575 92 526 59 q 666 190 624 125 l 666 190 z m 386 68 l 386 68 l 386 637 q 329 609 356 629 q 281 554 302 588 l 281 554 q 247 466 260 520 q 233 344 233 412 l 233 344 q 273 163 233 235 q 386 68 313 92 z "},"":{"ha":864,"x_min":79,"x_max":790,"o":"m 203 126 l 203 120 l 790 120 l 790 0 l 79 0 l 79 100 q 156 150 126 116 q 201 229 185 184 l 201 229 q 222 320 216 270 q 228 421 228 370 l 228 421 l 115 421 l 115 486 l 228 486 q 222 568 226 513 q 218 657 218 622 l 218 657 q 303 894 218 801 q 526 987 389 987 l 526 987 q 631 969 586 987 q 705 924 676 951 l 705 924 q 751 860 735 895 q 768 787 768 824 l 768 787 q 751 727 768 753 q 697 702 735 702 l 697 702 q 634 722 657 702 q 611 768 611 742 l 611 768 q 620 829 611 798 q 631 876 628 861 l 631 876 q 594 914 623 895 q 524 933 566 933 l 524 933 q 472 926 500 933 q 417 897 445 920 l 417 897 q 374 836 391 876 q 357 734 357 795 l 357 734 q 360 614 357 691 q 363 486 363 537 l 363 486 l 632 486 l 632 421 l 363 421 q 323 253 363 329 q 203 126 282 178 l 203 126 z "},"":{"ha":772,"x_min":null,"x_max":null,"o":""},"":{"ha":854,"x_min":-8,"x_max":869,"o":"m 869 962 l 869 914 q 833 905 858 913 q 797 888 808 897 l 797 888 q 761 864 770 872 q 724 817 751 855 l 724 817 q 605 629 648 703 q 492 436 562 555 l 492 436 l 492 380 l 759 380 l 759 315 l 492 315 l 492 140 q 501 98 492 116 q 532 69 510 80 l 532 69 q 577 56 544 64 q 630 48 610 49 l 630 48 l 630 0 l 216 0 l 216 48 q 267 53 233 50 q 315 62 301 56 l 315 62 q 344 89 334 71 q 353 134 353 106 l 353 134 l 353 315 l 87 315 l 87 380 l 353 380 l 353 423 q 253 617 294 543 q 151 799 212 692 l 151 799 q 112 857 129 838 q 72 892 94 877 l 72 892 q 33 907 56 902 q -8 914 10 913 l -8 914 l -8 962 l 385 962 l 385 914 q 295 905 319 911 q 271 882 271 898 l 271 882 q 283 850 271 874 q 323 774 294 827 l 323 774 q 382 666 351 721 q 467 514 413 610 l 467 514 q 604 745 544 643 q 664 863 664 846 l 664 863 q 654 888 664 879 q 626 903 644 898 l 626 903 q 590 910 608 909 q 549 914 572 912 l 549 914 l 549 962 l 869 962 z "},"":{"ha":361,"x_min":null,"x_max":null,"o":""},"":{"ha":694,"x_min":82,"x_max":612,"o":"m 612 430 l 612 430 q 567 303 612 362 q 443 216 522 245 l 443 216 q 551 139 517 184 q 584 35 584 94 l 584 35 q 565 -48 584 -9 q 511 -115 546 -87 l 511 -115 q 425 -159 473 -144 q 310 -175 378 -175 l 310 -175 q 210 -163 248 -175 q 149 -133 172 -151 l 149 -133 q 116 -95 125 -115 q 107 -58 107 -75 l 107 -58 q 124 -9 107 -28 q 174 10 142 10 l 174 10 q 213 -3 197 10 q 239 -33 229 -16 l 239 -33 q 260 -74 250 -50 q 278 -116 270 -98 l 278 -116 q 301 -121 289 -119 q 334 -123 314 -123 l 334 -123 q 438 -85 396 -123 q 481 0 481 -47 l 481 0 q 446 80 481 41 q 292 165 411 119 l 292 165 q 130 268 177 210 q 82 404 82 326 l 82 404 q 122 522 82 469 q 245 610 162 574 l 245 610 q 140 687 173 645 q 107 787 107 728 l 107 787 q 125 865 107 829 q 178 928 142 900 l 178 928 q 264 970 212 954 q 380 986 317 986 l 380 986 q 481 974 441 986 q 543 943 521 961 l 543 943 q 573 905 564 926 q 582 868 582 884 l 582 868 q 564 819 582 837 q 515 801 547 801 l 515 801 q 477 813 493 801 q 450 844 462 825 l 450 844 q 430 884 437 865 q 411 927 422 904 l 411 927 q 385 932 401 930 q 355 934 369 934 l 355 934 q 252 899 292 934 q 212 812 212 863 l 212 812 q 226 764 212 785 q 267 726 240 743 l 267 726 q 339 687 293 707 q 419 653 385 667 l 419 653 q 566 556 520 611 q 612 430 612 500 z m 507 398 l 507 398 q 455 504 507 458 q 302 585 402 550 l 302 585 q 213 520 240 559 q 186 431 186 481 l 186 431 q 237 321 186 365 q 395 235 288 278 l 395 235 q 482 310 457 271 q 507 398 507 350 z "},"":{"ha":694,"x_min":121,"x_max":573,"o":"m 573 925 l 573 925 q 550 866 573 890 q 493 842 526 842 l 493 842 q 436 866 460 842 q 413 925 413 890 l 413 925 q 436 984 413 960 q 493 1008 460 1008 l 493 1008 q 550 984 526 1008 q 573 925 573 960 z m 281 925 l 281 925 q 258 866 281 890 q 201 842 235 842 l 201 842 q 145 866 168 842 q 121 925 121 890 l 121 925 q 145 984 121 960 q 201 1008 168 1008 l 201 1008 q 258 984 235 1008 q 281 925 281 960 z "},"":{"ha":1308,"x_min":54,"x_max":1254,"o":"m 1254 408 l 1254 408 q 1078 -15 1254 160 q 654 -191 902 -191 l 654 -191 q 230 -15 406 -191 q 54 408 54 160 l 54 408 q 230 832 54 656 q 654 1007 406 1007 l 654 1007 q 1078 832 902 1007 q 1254 408 1254 656 z m 1187 408 l 1187 408 q 1031 788 1187 629 q 654 947 876 947 l 654 947 q 276 788 431 947 q 121 408 121 629 l 121 408 q 276 28 121 188 q 654 -131 431 -131 l 654 -131 q 1031 28 876 -131 q 1187 408 1187 188 z m 893 291 l 932 274 q 895 202 918 239 q 840 139 871 165 l 840 139 q 765 92 805 109 q 666 75 725 75 l 666 75 q 532 98 593 75 q 426 163 471 120 l 426 163 q 358 267 382 206 q 334 401 334 327 l 334 401 q 359 534 334 473 q 433 643 385 596 l 433 643 q 544 714 478 688 q 686 741 610 741 l 686 741 q 769 727 725 741 q 834 697 812 713 l 834 697 l 865 742 l 905 742 l 908 496 l 871 496 q 843 569 858 536 q 803 631 829 602 l 803 631 q 745 675 779 659 q 659 691 710 691 l 659 691 q 526 615 578 691 q 474 408 474 540 l 474 408 q 537 212 474 284 q 694 140 600 140 l 694 140 q 810 176 762 140 q 893 291 859 212 l 893 291 z "},"":{"ha":694,"x_min":106,"x_max":633,"o":"m 633 480 l 633 439 q 584 425 606 431 q 536 418 562 418 l 536 418 q 466 440 492 418 q 433 500 440 461 l 433 500 l 429 500 q 348 438 392 460 q 247 416 304 416 l 247 416 q 146 454 186 416 q 106 551 106 493 l 106 551 q 115 612 106 586 q 141 659 125 639 l 141 659 q 178 687 157 676 q 222 706 199 697 l 222 706 q 332 744 269 725 q 431 783 395 764 l 431 783 l 431 820 q 427 848 431 827 q 414 886 423 869 l 414 886 q 381 921 403 906 q 323 937 359 937 l 323 937 q 280 928 301 937 q 250 909 260 920 l 250 909 q 255 879 251 899 q 260 843 260 858 l 260 843 q 239 809 260 823 q 186 794 218 794 l 186 794 q 144 815 157 794 q 132 859 132 836 l 132 859 q 197 948 132 911 q 330 985 262 985 l 330 985 q 413 978 376 985 q 479 952 451 971 l 479 952 q 524 898 508 932 q 540 807 540 864 l 540 807 q 538 671 540 728 q 536 541 536 614 l 536 541 q 544 508 536 521 q 568 486 552 495 l 568 486 q 596 480 578 481 q 633 480 614 480 l 633 480 z m 429 549 l 431 729 q 347 702 379 713 q 283 672 315 691 l 283 672 q 240 632 256 656 q 224 576 224 608 l 224 576 q 246 511 224 532 q 304 490 268 490 l 304 490 q 379 508 350 490 q 429 549 408 526 l 429 549 z "},"":{"ha":807,"x_min":115,"x_max":676,"o":"m 500 359 l 676 109 l 643 81 l 402 307 q 385 325 396 312 q 374 358 374 338 l 374 358 q 385 391 374 378 q 404 412 396 404 l 404 412 l 643 635 l 676 608 l 500 359 z m 242 359 l 418 109 l 385 81 l 144 307 q 126 325 138 312 q 115 358 115 338 l 115 358 q 126 391 115 378 q 146 412 136 403 l 146 412 l 385 635 l 418 608 l 242 359 z "},"":{"ha":893,"x_min":98,"x_max":789,"o":"m 789 442 l 789 52 l 699 52 l 699 357 l 98 357 l 98 442 l 789 442 z "},"":{"ha":1308,"x_min":54,"x_max":1254,"o":"m 1254 408 l 1254 408 q 1078 -15 1254 160 q 654 -191 902 -191 l 654 -191 q 230 -15 406 -191 q 54 408 54 160 l 54 408 q 230 832 54 656 q 654 1007 406 1007 l 654 1007 q 1078 832 902 1007 q 1254 408 1254 656 z m 1187 408 l 1187 408 q 1031 788 1187 629 q 654 947 876 947 l 654 947 q 276 788 431 947 q 121 408 121 629 l 121 408 q 276 28 121 188 q 654 -131 431 -131 l 654 -131 q 1031 28 876 -131 q 1187 408 1187 188 z m 1046 138 l 1046 98 l 851 98 q 739 250 787 189 q 642 372 692 311 l 642 372 l 571 372 l 571 195 q 577 167 571 180 q 600 149 583 155 l 600 149 q 631 142 607 146 q 667 138 654 138 l 667 138 l 667 98 l 369 98 l 369 138 q 402 142 381 139 q 433 149 423 144 l 433 149 q 455 166 448 155 q 461 195 461 178 l 461 195 l 461 630 q 456 658 461 646 q 433 676 452 670 l 433 676 q 401 685 419 681 q 369 690 382 688 l 369 690 l 369 729 l 703 729 q 777 721 741 729 q 844 695 814 713 l 844 695 q 891 649 873 677 q 909 579 909 620 l 909 579 q 869 463 909 505 q 750 399 829 421 l 750 399 q 843 287 805 333 q 910 203 880 240 l 910 203 q 947 168 929 179 q 983 151 966 156 l 983 151 q 1015 142 996 146 q 1046 138 1034 138 l 1046 138 z m 783 566 l 783 566 q 749 651 783 622 q 650 680 715 680 l 650 680 l 571 680 l 571 424 l 630 424 q 742 461 701 424 q 783 566 783 498 z "},"":{"ha":767,"x_min":null,"x_max":null,"o":""},"":{"ha":583,"x_min":71,"x_max":512,"o":"m 512 765 l 512 765 q 450 608 512 672 q 291 545 388 545 l 291 545 q 132 609 193 545 q 71 765 71 673 l 71 765 q 134 923 71 861 q 291 985 197 985 l 291 985 q 450 922 388 985 q 512 765 512 858 z m 412 760 l 412 760 q 378 889 412 844 q 290 935 345 935 l 290 935 q 203 889 235 935 q 171 767 171 844 l 171 767 q 203 642 171 688 q 293 595 235 595 l 293 595 q 375 637 338 595 q 412 760 412 679 z "},"":{"ha":893,"x_min":101,"x_max":792,"o":"m 792 85 l 792 0 l 101 0 l 101 85 l 404 85 l 404 357 l 101 357 l 101 442 l 404 442 l 404 748 l 490 748 l 490 442 l 792 442 l 792 357 l 490 357 l 490 85 l 792 85 z "},"":{"ha":463,"x_min":null,"x_max":null,"o":""},"":{"ha":463,"x_min":null,"x_max":null,"o":""},"":{"ha":694,"x_min":193,"x_max":472,"o":"m 472 990 l 472 990 q 460 948 472 964 q 425 913 448 932 l 425 913 q 337 844 391 886 q 219 753 282 802 l 219 753 l 193 774 q 278 902 254 865 q 330 983 302 939 l 330 983 q 371 1030 351 1018 q 416 1043 391 1043 l 416 1043 q 456 1026 441 1043 q 472 990 472 1010 z "},"":{"ha":787,"x_min":82,"x_max":768,"o":"m 768 56 l 768 13 q 712 -6 736 1 q 656 -13 687 -13 l 656 -13 q 569 14 604 -13 q 526 92 534 40 l 526 92 l 522 92 q 483 52 505 74 q 439 18 460 31 l 439 18 q 385 -6 412 2 q 308 -14 359 -14 l 308 -14 q 233 2 269 -14 q 179 41 197 18 l 179 41 l 175 41 l 175 1 q 193 -122 175 -45 q 211 -232 211 -199 l 211 -232 q 190 -283 211 -265 q 144 -301 169 -301 l 144 -301 q 99 -283 117 -301 q 82 -233 82 -264 l 82 -233 q 94 -129 82 -193 q 111 -30 106 -64 l 111 -30 q 117 37 115 7 q 119 92 119 66 l 119 92 l 119 669 l 247 669 l 247 210 q 278 101 247 139 q 358 62 310 62 l 358 62 q 425 73 395 62 q 473 98 454 84 l 473 98 q 503 127 490 112 q 524 157 517 143 l 524 157 l 524 669 l 652 669 l 652 137 q 661 91 652 108 q 690 64 670 74 l 690 64 q 724 57 702 58 q 768 56 745 56 l 768 56 z "},"":{"ha":694,"x_min":67,"x_max":678,"o":"m 678 962 l 678 912 l 603 912 l 603 -146 l 533 -146 l 533 912 l 425 912 l 425 -146 l 355 -146 l 355 479 q 145 542 224 479 q 67 718 67 604 l 67 718 q 140 895 67 828 q 328 962 212 962 l 328 962 l 678 962 z "},"":{"ha":388,"x_min":102,"x_max":288,"o":"m 288 379 l 288 379 q 261 314 288 341 q 195 288 233 288 l 195 288 q 130 314 157 288 q 102 379 102 341 l 102 379 q 130 445 102 417 q 195 472 157 472 l 195 472 q 261 445 233 472 q 288 379 288 417 z "},"":{"ha":463,"x_min":null,"x_max":null,"o":""},"":{"ha":463,"x_min":null,"x_max":null,"o":""},"":{"ha":694,"x_min":79,"x_max":616,"o":"m 616 704 l 616 704 q 542 495 616 578 q 342 411 468 411 l 342 411 q 156 491 233 411 q 79 696 79 571 l 79 696 q 154 904 79 823 q 351 985 229 985 l 351 985 q 542 907 469 985 q 616 704 616 828 z m 456 532 l 456 532 q 481 608 473 564 q 490 703 490 652 l 490 703 q 483 787 490 745 q 460 862 476 829 l 460 862 q 416 915 443 895 q 349 935 389 935 l 349 935 q 279 915 308 935 q 234 859 251 894 l 234 859 q 210 784 217 827 q 203 705 203 742 l 203 705 q 212 611 203 654 q 237 534 220 568 l 237 534 q 282 481 255 501 q 349 461 310 461 l 349 461 q 412 480 385 461 q 456 532 439 499 z "},"":{"ha":807,"x_min":131,"x_max":692,"o":"m 692 358 l 692 358 q 680 324 692 336 q 663 307 669 311 l 663 307 l 422 81 l 389 109 l 565 359 l 389 608 l 422 635 l 661 412 q 680 390 669 406 q 692 358 692 375 z m 433 358 l 433 358 q 422 324 433 336 q 405 307 410 311 l 405 307 l 164 81 l 131 109 l 307 359 l 131 608 l 164 635 l 403 412 q 421 392 410 406 q 433 358 433 377 z "},"":{"ha":1158,"x_min":null,"x_max":null,"o":""},"":{"ha":1158,"x_min":null,"x_max":null,"o":""},"":{"ha":1158,"x_min":null,"x_max":null,"o":""},"":{"ha":665,"x_min":68,"x_max":593,"o":"m 490 889 l 490 889 q 463 824 490 851 q 397 796 435 796 l 397 796 q 332 824 359 796 q 304 889 304 851 l 304 889 q 332 954 304 927 q 397 981 359 981 l 397 981 q 463 954 435 981 q 490 889 490 927 z m 593 139 l 593 139 q 578 86 593 112 q 531 35 563 60 l 531 35 q 457 -2 503 14 q 361 -18 411 -18 l 361 -18 q 234 5 289 -18 q 142 66 178 27 l 142 66 q 86 154 104 105 q 68 261 68 203 l 68 261 q 149 466 68 387 q 368 562 229 545 l 368 562 l 368 711 l 431 711 l 431 454 q 346 440 388 451 q 271 406 304 430 l 271 406 q 217 346 236 381 q 197 246 197 310 l 197 246 q 240 90 197 144 q 366 36 283 36 l 366 36 q 421 45 397 36 q 455 62 444 54 l 455 62 q 446 109 452 79 q 440 156 440 140 l 440 156 q 462 202 440 181 q 525 222 484 222 l 525 222 q 577 197 562 222 q 593 139 593 172 z "},"":{"ha":932,"x_min":-28,"x_max":964,"o":"m 964 48 l 964 0 l 563 0 l 563 48 q 651 62 616 52 q 686 87 686 72 l 686 87 q 684 102 686 93 q 680 117 683 111 l 680 117 l 600 333 l 263 333 q 232 250 244 286 q 211 185 220 215 l 211 185 q 199 138 202 156 q 195 108 195 119 l 195 108 q 238 66 195 81 q 334 48 281 51 l 334 48 l 334 0 l -28 0 l -28 48 q 16 56 -10 50 q 60 73 43 62 l 60 73 q 102 112 87 92 q 131 167 117 132 l 131 167 q 291 574 203 348 q 447 976 378 800 l 447 976 l 501 976 l 822 146 q 845 103 832 119 q 881 71 858 87 l 881 71 q 922 55 897 62 q 964 48 947 49 l 964 48 z m 287 393 l 576 393 l 430 766 l 287 393 z m 637 1048 l 637 1048 l 616 1022 q 474 1091 536 1061 q 381 1136 411 1121 l 381 1136 q 333 1169 348 1153 q 319 1213 319 1185 l 319 1213 q 336 1252 319 1236 q 381 1267 353 1267 l 381 1267 q 419 1258 401 1267 q 459 1224 436 1249 l 459 1224 q 529 1153 490 1192 q 637 1048 568 1114 z "},"":{"ha":926,"x_min":null,"x_max":null,"o":""},"":{"ha":926,"x_min":null,"x_max":null,"o":""},"":{"ha":932,"x_min":-28,"x_max":964,"o":"m 964 48 l 964 0 l 563 0 l 563 48 q 651 62 616 52 q 686 87 686 72 l 686 87 q 684 102 686 93 q 680 117 683 111 l 680 117 l 600 333 l 263 333 q 232 250 244 286 q 211 185 220 215 l 211 185 q 199 138 202 156 q 195 108 195 119 l 195 108 q 238 66 195 81 q 334 48 281 51 l 334 48 l 334 0 l -28 0 l -28 48 q 16 56 -10 50 q 60 73 43 62 l 60 73 q 102 112 87 92 q 131 167 117 132 l 131 167 q 291 574 203 348 q 447 976 378 800 l 447 976 l 501 976 l 822 146 q 845 103 832 119 q 881 71 858 87 l 881 71 q 922 55 897 62 q 964 48 947 49 l 964 48 z m 287 393 l 576 393 l 430 766 l 287 393 z m 696 1253 l 737 1238 q 717 1185 730 1212 q 680 1131 703 1158 l 680 1131 q 628 1089 655 1105 q 564 1073 602 1073 l 564 1073 q 496 1084 526 1073 q 446 1107 467 1095 l 446 1107 q 401 1132 422 1121 q 354 1143 380 1143 l 354 1143 q 322 1137 333 1143 q 300 1119 312 1132 l 300 1119 q 279 1087 290 1107 q 258 1050 268 1067 l 258 1050 l 219 1067 q 242 1120 226 1089 q 277 1173 258 1150 l 277 1173 q 327 1215 298 1198 q 388 1232 356 1232 l 388 1232 q 453 1221 426 1232 q 504 1197 481 1210 l 504 1197 q 547 1173 530 1183 q 591 1162 565 1162 l 591 1162 q 634 1169 618 1162 q 661 1187 651 1175 l 661 1187 q 679 1215 671 1200 q 696 1253 686 1230 l 696 1253 z "},"":{"ha":932,"x_min":-28,"x_max":964,"o":"m 964 48 l 964 0 l 563 0 l 563 48 q 651 62 616 52 q 686 87 686 72 l 686 87 q 684 102 686 93 q 680 117 683 111 l 680 117 l 600 333 l 263 333 q 232 250 244 286 q 211 185 220 215 l 211 185 q 199 138 202 156 q 195 108 195 119 l 195 108 q 238 66 195 81 q 334 48 281 51 l 334 48 l 334 0 l -28 0 l -28 48 q 16 56 -10 50 q 60 73 43 62 l 60 73 q 102 112 87 92 q 131 167 117 132 l 131 167 q 291 574 203 348 q 447 976 378 800 l 447 976 l 501 976 l 822 146 q 845 103 832 119 q 881 71 858 87 l 881 71 q 922 55 897 62 q 964 48 947 49 l 964 48 z m 287 393 l 576 393 l 430 766 l 287 393 z m 704 1165 l 704 1165 q 681 1106 704 1131 q 624 1082 657 1082 l 624 1082 q 567 1106 591 1082 q 544 1165 544 1131 l 544 1165 q 567 1224 544 1200 q 624 1249 591 1249 l 624 1249 q 681 1224 657 1249 q 704 1165 704 1200 z m 399 1165 l 399 1165 q 375 1106 399 1131 q 319 1082 352 1082 l 319 1082 q 262 1106 286 1082 q 239 1165 239 1131 l 239 1165 q 262 1224 239 1200 q 319 1249 286 1249 l 319 1249 q 375 1224 352 1249 q 399 1165 399 1200 z "},"":{"ha":932,"x_min":-28,"x_max":964,"o":"m 964 48 l 964 0 l 563 0 l 563 48 q 651 62 616 52 q 686 87 686 72 l 686 87 q 684 102 686 93 q 680 117 683 111 l 680 117 l 600 333 l 263 333 q 232 250 244 286 q 211 185 220 215 l 211 185 q 199 138 202 157 q 195 108 195 119 l 195 108 q 238 66 195 81 q 334 48 281 51 l 334 48 l 334 0 l -28 0 l -28 48 q 17 56 -10 50 q 60 73 43 62 l 60 73 q 102 112 87 92 q 131 167 117 132 l 131 167 q 284 558 200 340 q 444 966 369 777 l 444 966 q 336 1015 375 975 q 298 1116 298 1055 l 298 1116 q 349 1225 298 1183 q 473 1267 399 1267 l 473 1267 q 598 1226 549 1267 q 648 1116 648 1185 l 648 1116 q 608 1017 648 1058 q 505 967 569 975 l 505 967 l 822 146 q 845 103 832 119 q 881 71 858 87 l 881 71 q 921 55 896 61 q 964 48 947 49 l 964 48 z m 287 393 l 576 393 l 430 766 l 287 393 z m 562 1116 l 562 1116 q 539 1193 562 1162 q 473 1223 517 1223 l 473 1223 q 407 1194 430 1223 q 383 1116 383 1165 l 383 1116 q 406 1038 383 1069 q 473 1007 429 1007 l 473 1007 q 539 1038 516 1007 q 562 1116 562 1069 z "},"":{"ha":1348,"x_min":-66,"x_max":1316,"o":"m 1267 283 l 1316 283 l 1298 0 l 506 0 l 506 48 q 556 53 522 50 q 604 63 591 57 l 604 63 q 634 90 626 73 q 643 131 643 106 l 643 131 l 643 408 l 317 408 q 263 314 288 360 q 196 183 237 267 l 196 183 q 181 149 187 166 q 175 115 175 131 l 175 115 q 204 68 175 85 q 289 48 233 52 l 289 48 l 289 0 l -66 0 l -66 48 q -21 57 -47 50 q 22 74 5 64 l 22 74 q 67 112 46 87 q 104 165 87 136 l 104 165 q 310 524 209 345 q 519 899 411 703 l 519 899 q 467 909 503 905 q 404 914 432 913 l 404 914 l 404 962 l 1244 962 l 1244 730 l 1193 730 q 1135 840 1180 782 q 1048 903 1089 898 l 1048 903 q 998 907 1027 906 q 932 909 969 909 l 932 909 l 787 909 l 787 526 l 889 526 q 965 536 941 526 q 1008 569 990 546 l 1008 569 q 1033 622 1023 589 q 1047 684 1044 654 l 1047 684 l 1098 684 l 1098 307 l 1047 307 q 1033 376 1044 340 q 1008 429 1021 412 l 1008 429 q 960 463 987 455 q 889 471 934 471 l 889 471 l 787 471 l 787 182 q 793 114 787 139 q 817 76 800 89 l 817 76 q 866 59 836 63 q 952 56 896 56 l 952 56 q 1010 56 975 56 q 1069 58 1046 56 l 1069 58 q 1122 68 1097 62 q 1158 87 1147 75 l 1158 87 q 1224 186 1190 120 q 1267 283 1258 252 l 1267 283 z m 351 468 l 643 468 l 643 903 l 591 903 l 351 468 z "},"":{"ha":892,"x_min":53,"x_max":874,"o":"m 454 -140 l 454 -20 q 309 19 378 -14 q 185 109 239 52 l 185 109 q 89 265 125 173 q 53 472 53 357 l 53 472 q 88 681 53 587 q 186 843 123 775 l 186 843 q 332 947 248 910 q 511 983 416 983 l 511 983 q 640 966 583 983 q 750 916 698 948 l 750 916 l 778 962 l 832 962 l 838 619 l 783 619 q 750 728 772 669 q 699 827 728 787 l 699 827 q 622 900 667 873 q 519 926 577 926 l 519 926 q 397 897 454 926 q 299 810 340 867 l 299 810 q 237 671 260 755 q 215 481 215 586 l 215 481 q 238 312 215 389 q 305 177 262 235 l 305 177 q 408 87 349 119 q 541 54 467 54 l 541 54 q 642 72 595 54 q 722 117 688 89 l 722 117 q 781 185 755 147 q 823 268 807 223 l 823 268 l 874 243 q 726 44 819 105 q 507 -22 633 -18 l 507 -22 l 507 -67 q 562 -71 538 -67 q 612 -87 587 -75 l 612 -87 q 649 -118 635 -98 q 663 -168 663 -138 l 663 -168 q 642 -235 663 -208 q 581 -277 620 -262 l 581 -277 q 498 -296 544 -290 q 393 -301 453 -301 l 393 -301 l 393 -252 q 453 -252 420 -252 q 509 -245 486 -251 l 509 -245 q 551 -227 536 -239 q 566 -191 566 -214 l 566 -191 q 555 -164 566 -175 q 528 -149 545 -154 l 528 -149 q 492 -142 515 -144 q 454 -140 469 -140 l 454 -140 z "},"":{"ha":926,"x_min":null,"x_max":null,"o":""},"":{"ha":907,"x_min":58,"x_max":629,"o":"m 465 147 l 469 170 l 469 0 l 66 0 l 85 16 q 100 46 97 36 q 108 63 104 56 l 108 63 q 115 95 114 83 q 116 131 116 106 l 116 131 l 116 823 q 115 863 116 845 q 109 894 113 880 l 109 894 q 98 917 102 905 q 77 945 95 928 l 77 945 l 58 960 l 448 962 l 448 804 l 422 847 q 385 894 399 883 q 330 909 372 905 l 330 909 q 260 906 285 910 q 211 878 235 902 l 211 878 l 201 844 l 201 526 l 265 526 q 305 531 296 526 q 339 547 314 536 l 339 547 q 362 571 355 559 q 376 600 370 583 l 376 600 l 380 622 l 380 410 l 371 428 q 349 451 355 444 q 328 475 342 458 l 328 475 q 305 484 315 478 q 263 492 295 490 l 263 492 l 201 492 l 201 182 q 206 121 201 139 q 223 84 210 103 l 223 84 q 253 61 234 73 q 302 49 272 50 l 302 49 q 351 50 339 48 q 382 52 363 52 l 382 52 q 403 61 398 58 q 419 79 408 65 l 419 79 q 444 106 434 93 q 465 147 453 119 l 465 147 z m 567 1136 l 567 1136 q 474 1091 537 1121 q 332 1022 412 1061 l 332 1022 l 311 1048 q 412 1146 373 1107 q 489 1224 451 1184 l 489 1224 q 529 1257 511 1247 q 567 1267 547 1267 l 567 1267 q 611 1251 593 1267 q 629 1213 629 1236 l 629 1213 q 612 1166 629 1183 q 567 1136 594 1149 z "},"":{"ha":926,"x_min":null,"x_max":null,"o":""},"":{"ha":926,"x_min":null,"x_max":null,"o":""},"":{"ha":386,"x_min":null,"x_max":null,"o":""},"":{"ha":386,"x_min":null,"x_max":null,"o":""},"":{"ha":386,"x_min":null,"x_max":null,"o":""},"":{"ha":386,"x_min":null,"x_max":null,"o":""},"":{"ha":1003,"x_min":null,"x_max":null,"o":""},"":{"ha":633,"x_min":16,"x_max":564,"o":"m 467 962 l 454 943 q 427 894 437 922 q 404 792 418 866 l 404 792 q 382 561 385 648 q 406 277 379 474 l 406 277 l 469 2 l 349 -7 l 293 133 l 231 314 q 200 139 202 171 q 197 91 199 106 l 197 91 q 194 70 193 75 q 195 48 195 64 l 195 48 l 195 0 l 45 0 l 60 33 q 72 64 70 54 q 82 91 75 73 l 82 91 q 91 160 90 140 q 92 274 92 180 l 92 274 l 92 748 q 89 808 92 779 q 79 867 86 836 l 79 867 q 59 911 69 893 q 35 947 48 930 l 35 947 l 16 962 l 153 962 l 194 848 l 247 694 q 296 819 292 792 q 302 869 300 845 l 302 869 q 304 895 302 886 q 307 937 305 903 l 307 937 l 297 962 l 467 962 z m 522 1249 l 564 1233 q 543 1180 557 1207 q 506 1126 530 1153 l 506 1126 q 455 1084 481 1100 q 391 1068 428 1068 l 391 1068 q 323 1079 352 1068 q 273 1103 294 1090 l 273 1103 q 228 1127 249 1116 q 180 1138 206 1138 l 180 1138 q 149 1133 159 1138 q 127 1114 138 1127 l 127 1114 q 105 1082 116 1102 q 85 1046 94 1062 l 85 1046 l 45 1063 q 68 1115 52 1084 q 104 1168 85 1145 l 104 1168 q 153 1210 124 1193 q 214 1227 182 1227 l 214 1227 q 280 1216 252 1227 q 330 1192 307 1205 l 330 1192 q 374 1168 356 1178 q 417 1158 391 1158 l 417 1158 q 461 1164 444 1158 q 487 1182 477 1171 l 487 1182 q 505 1210 498 1195 q 522 1249 512 1225 l 522 1249 z "},"":{"ha":1080,"x_min":null,"x_max":null,"o":""},"":{"ha":1080,"x_min":null,"x_max":null,"o":""},"":{"ha":1080,"x_min":null,"x_max":null,"o":""},"":{"ha":1034,"x_min":54,"x_max":979,"o":"m 844 848 l 844 848 q 943 688 907 782 q 979 480 979 594 l 979 480 q 943 272 979 366 q 841 113 906 178 l 841 113 q 694 12 778 47 q 517 -23 611 -23 l 517 -23 q 331 15 416 -23 q 185 119 246 52 l 185 119 q 89 279 124 185 q 54 480 54 373 l 54 480 q 91 689 54 597 q 192 848 127 781 l 192 848 q 340 950 256 915 q 517 985 425 985 l 517 985 q 697 949 612 985 q 844 848 782 913 z m 743 212 l 743 212 q 798 324 781 261 q 815 465 815 387 l 815 465 q 796 612 815 545 q 739 726 777 679 l 739 726 q 646 799 702 772 q 517 825 589 825 l 517 825 q 378 794 435 825 q 286 714 321 764 l 286 714 q 235 601 252 666 q 218 465 218 536 l 218 465 q 236 322 218 386 q 292 210 254 259 l 292 210 q 384 134 328 161 q 517 107 439 107 l 517 107 q 648 135 589 107 q 743 212 706 162 z m 734 1260 l 776 1244 q 755 1192 769 1219 q 718 1138 742 1164 l 718 1138 q 667 1096 694 1112 q 603 1080 640 1080 l 603 1080 q 535 1091 564 1080 q 485 1114 506 1102 l 485 1114 q 440 1139 461 1128 q 393 1149 418 1149 l 393 1149 q 361 1144 372 1149 q 339 1126 351 1139 l 339 1126 q 317 1094 328 1114 q 297 1057 307 1074 l 297 1057 l 258 1074 q 281 1126 264 1096 q 316 1180 297 1157 l 316 1180 q 366 1222 336 1204 q 427 1239 395 1239 l 427 1239 q 492 1228 465 1239 q 543 1204 519 1217 l 543 1204 q 586 1179 568 1190 q 629 1169 604 1169 l 629 1169 q 673 1176 656 1169 q 699 1194 690 1182 l 699 1194 q 717 1221 710 1206 q 734 1260 724 1236 l 734 1260 z "},"":{"ha":1034,"x_min":54,"x_max":979,"o":"m 844 848 l 844 848 q 943 688 907 782 q 979 480 979 594 l 979 480 q 943 272 979 366 q 841 113 906 178 l 841 113 q 694 12 778 47 q 517 -23 611 -23 l 517 -23 q 331 15 416 -23 q 185 119 246 52 l 185 119 q 89 279 124 185 q 54 480 54 373 l 54 480 q 91 689 54 597 q 192 848 127 781 l 192 848 q 340 950 256 915 q 517 985 425 985 l 517 985 q 697 949 612 985 q 844 848 782 913 z m 743 212 l 743 212 q 798 324 781 261 q 815 465 815 387 l 815 465 q 796 612 815 545 q 739 726 777 679 l 739 726 q 646 799 702 772 q 517 825 589 825 l 517 825 q 378 794 435 825 q 286 714 321 764 l 286 714 q 235 601 252 666 q 218 465 218 536 l 218 465 q 236 322 218 386 q 292 210 254 259 l 292 210 q 384 134 328 161 q 517 107 439 107 l 517 107 q 648 135 589 107 q 743 212 706 162 z m 749 1173 l 749 1173 q 726 1114 749 1139 q 669 1090 703 1090 l 669 1090 q 613 1114 636 1090 q 589 1173 589 1139 l 589 1173 q 613 1232 589 1208 q 669 1257 636 1257 l 669 1257 q 726 1232 703 1257 q 749 1173 749 1208 z m 444 1173 l 444 1173 q 421 1114 444 1139 q 364 1090 397 1090 l 364 1090 q 308 1114 331 1090 q 284 1173 284 1139 l 284 1173 q 308 1232 284 1208 q 364 1257 331 1257 l 364 1257 q 421 1232 397 1257 q 444 1173 444 1208 z "},"":{"ha":811,"x_min":null,"x_max":null,"o":""},"":{"ha":1034,"x_min":54,"x_max":979,"o":"m 979 480 l 979 480 q 942 270 979 364 q 841 112 904 176 l 841 112 q 694 12 778 47 q 517 -24 611 -24 l 517 -24 q 355 5 430 -24 q 223 85 281 35 l 223 85 l 105 -58 l 62 -24 l 184 122 q 89 282 123 189 q 54 480 54 374 l 54 480 q 91 689 54 597 q 192 848 127 781 l 192 848 q 340 951 256 916 q 517 986 425 986 l 517 986 q 674 958 600 986 q 810 877 749 930 l 810 877 l 913 1001 l 957 966 l 850 838 q 944 682 909 772 q 979 480 979 592 z m 261 214 l 745 798 q 648 893 705 861 q 517 926 591 926 l 517 926 q 379 889 436 926 q 284 788 322 853 l 284 788 q 233 649 250 730 q 216 480 216 568 l 216 480 q 228 334 216 401 q 261 214 239 266 l 261 214 z m 745 165 l 745 165 q 800 306 782 228 q 817 480 817 384 l 817 480 q 806 626 817 557 q 773 747 795 694 l 773 747 l 289 165 q 383 71 326 105 q 517 37 440 37 l 517 37 q 648 70 591 37 q 745 165 706 102 z "},"":{"ha":1003,"x_min":null,"x_max":null,"o":""},"":{"ha":1003,"x_min":null,"x_max":null,"o":""},"":{"ha":1003,"x_min":null,"x_max":null,"o":""},"":{"ha":1050,"x_min":50,"x_max":785,"o":"m 604 962 l 604 914 q 573 906 593 913 q 540 884 553 899 l 540 884 q 522 819 527 868 q 517 700 517 770 l 517 700 l 517 281 q 498 142 517 201 q 450 45 479 83 l 450 45 q 386 -7 419 9 q 323 -23 353 -23 l 323 -23 q 236 0 274 -23 q 172 61 198 22 l 172 61 q 134 150 146 100 q 121 254 121 199 l 121 254 l 121 823 q 116 862 121 846 q 99 892 112 878 l 99 892 q 75 907 90 901 q 50 914 60 913 l 50 914 l 50 962 l 275 962 l 275 914 q 248 908 264 913 q 224 898 232 903 l 224 898 q 207 871 211 890 q 203 829 203 852 l 203 829 l 203 298 q 208 217 203 259 q 226 138 212 174 l 226 138 q 266 77 241 100 q 336 53 292 53 l 336 53 q 397 79 378 53 q 439 163 417 106 l 439 163 q 452 240 448 212 q 462 338 455 268 l 462 338 l 465 694 q 453 842 456 823 q 444 884 451 862 l 444 884 q 414 906 432 900 q 384 914 396 913 l 384 914 l 384 962 l 604 962 z m 785 1173 l 785 1173 q 762 1114 785 1139 q 705 1090 739 1090 l 705 1090 q 649 1114 672 1090 q 625 1173 625 1139 l 625 1173 q 649 1232 625 1208 q 705 1257 672 1257 l 705 1257 q 762 1232 739 1257 q 785 1173 785 1208 z m 480 1173 l 480 1173 q 457 1114 480 1139 q 400 1090 433 1090 l 400 1090 q 343 1114 367 1090 q 320 1173 320 1139 l 320 1173 q 343 1232 320 1208 q 400 1257 367 1257 l 400 1257 q 457 1232 433 1257 q 480 1173 480 1208 z "},"":{"ha":926,"x_min":null,"x_max":null,"o":""},"":{"ha":926,"x_min":null,"x_max":null,"o":""},"":{"ha":762,"x_min":40,"x_max":708,"o":"m 629 547 l 629 547 q 686 459 663 511 q 708 338 708 408 l 708 338 q 623 89 708 185 q 414 -7 538 -7 l 414 -7 q 370 -5 392 -7 q 332 0 347 -3 l 332 0 l 332 55 q 363 50 347 52 q 392 48 378 48 l 392 48 q 473 71 439 48 q 527 133 508 94 l 527 133 q 557 224 547 173 q 566 342 566 275 l 566 342 q 516 532 566 459 q 372 604 465 604 l 372 604 l 359 604 l 359 662 l 383 662 q 438 672 410 662 q 488 703 466 682 l 488 703 q 526 760 512 726 q 540 841 540 794 l 540 841 q 506 959 540 918 q 416 1000 472 1000 l 416 1000 q 299 927 336 1000 q 261 719 261 854 l 261 719 l 261 0 l 40 0 l 40 45 q 72 48 54 46 q 101 54 90 50 l 101 54 q 126 76 118 60 q 134 117 134 92 l 134 117 l 134 682 q 149 840 134 775 q 218 964 163 905 l 218 964 q 317 1032 264 1013 q 422 1051 371 1051 l 422 1051 q 510 1040 471 1051 q 585 1002 550 1029 l 585 1002 q 638 939 618 977 q 658 845 658 901 l 658 845 q 639 756 658 794 q 593 693 621 718 l 593 693 q 535 654 566 669 q 477 637 503 640 l 477 637 l 477 631 q 554 603 513 624 q 629 547 595 582 z "},"":{"ha":700,"x_min":54,"x_max":471,"o":"m 363 56 l 363 12 q 336 -6 348 1 q 309 -14 324 -14 l 309 -14 q 268 11 283 -14 q 248 83 252 36 l 248 83 l 245 83 q 199 9 224 35 q 139 -17 174 -17 l 139 -17 q 78 29 102 -17 q 54 150 54 75 l 54 150 q 60 219 54 189 q 76 274 65 250 l 76 274 q 98 310 84 294 q 123 336 111 326 l 123 336 q 184 378 138 347 q 246 427 231 410 l 246 427 l 246 494 q 244 528 246 503 q 237 576 243 553 l 237 576 q 218 620 230 601 q 183 638 205 638 l 183 638 q 155 628 168 638 q 136 606 142 617 l 136 606 q 139 566 136 592 q 142 517 142 539 l 142 517 q 132 473 142 493 q 102 454 121 454 l 102 454 q 78 478 86 454 q 71 532 71 502 l 71 532 q 81 591 71 563 q 109 642 92 620 l 109 642 q 145 674 124 661 q 187 688 167 688 l 187 688 q 236 680 216 688 q 275 646 257 672 l 275 646 q 300 578 292 621 q 309 467 309 535 l 309 467 q 308 295 309 370 q 307 132 307 220 l 307 132 q 312 90 307 105 q 326 63 316 74 l 326 63 q 341 56 330 57 q 363 56 352 56 l 363 56 z m 212 137 l 214 321 q 167 295 187 308 q 130 263 146 282 l 130 263 q 104 220 113 245 q 95 161 95 195 l 95 161 q 109 96 95 117 q 144 75 123 75 l 144 75 q 183 93 166 75 q 212 137 201 111 l 212 137 z m 471 774 l 471 774 l 445 753 q 320 850 375 808 q 239 913 265 892 l 239 913 q 202 949 213 935 q 192 990 192 962 l 192 990 q 208 1026 192 1010 q 248 1043 223 1043 l 248 1043 q 293 1031 274 1043 q 334 983 312 1019 l 334 983 q 388 898 357 946 q 471 774 419 850 z "},"":{"ha":700,"x_min":54,"x_max":500,"o":"m 363 56 l 363 12 q 336 -6 348 1 q 309 -14 324 -14 l 309 -14 q 268 11 283 -14 q 248 83 252 36 l 248 83 l 245 83 q 199 9 224 35 q 139 -17 174 -17 l 139 -17 q 78 29 102 -17 q 54 150 54 75 l 54 150 q 60 219 54 189 q 76 274 65 250 l 76 274 q 98 310 84 294 q 123 336 111 326 l 123 336 q 184 378 138 347 q 246 427 231 410 l 246 427 l 246 494 q 244 528 246 503 q 237 576 243 553 l 237 576 q 218 620 230 601 q 183 638 205 638 l 183 638 q 155 628 168 638 q 136 606 142 617 l 136 606 q 139 566 136 592 q 142 517 142 539 l 142 517 q 132 473 142 493 q 102 454 121 454 l 102 454 q 78 478 86 454 q 71 532 71 502 l 71 532 q 81 591 71 563 q 109 642 92 620 l 109 642 q 145 674 124 661 q 187 688 167 688 l 187 688 q 236 680 216 688 q 275 646 257 672 l 275 646 q 300 578 292 621 q 309 467 309 535 l 309 467 q 308 295 309 370 q 307 132 307 220 l 307 132 q 312 90 307 105 q 326 63 316 74 l 326 63 q 341 56 330 57 q 363 56 352 56 l 363 56 z m 212 137 l 214 321 q 167 295 187 308 q 130 263 146 282 l 130 263 q 104 220 113 245 q 95 161 95 195 l 95 161 q 109 96 95 117 q 144 75 123 75 l 144 75 q 183 93 166 75 q 212 137 201 111 l 212 137 z m 500 990 l 500 990 q 489 948 500 964 q 454 913 477 932 l 454 913 q 365 844 420 886 q 248 753 311 802 l 248 753 l 222 774 q 307 902 283 865 q 359 983 331 939 l 359 983 q 399 1030 380 1018 q 445 1043 419 1043 l 445 1043 q 485 1026 469 1043 q 500 990 500 1010 z "},"":{"ha":700,"x_min":54,"x_max":554,"o":"m 363 56 l 363 12 q 336 -6 348 1 q 309 -14 324 -14 l 309 -14 q 268 11 283 -14 q 248 83 252 36 l 248 83 l 245 83 q 199 9 224 35 q 139 -17 174 -17 l 139 -17 q 78 29 102 -17 q 54 150 54 75 l 54 150 q 60 219 54 189 q 76 274 65 250 l 76 274 q 98 310 84 294 q 123 336 111 326 l 123 336 q 184 378 138 347 q 246 427 231 410 l 246 427 l 246 494 q 244 528 246 503 q 237 576 243 553 l 237 576 q 218 620 230 601 q 183 638 205 638 l 183 638 q 155 628 168 638 q 136 606 142 617 l 136 606 q 139 566 136 592 q 142 517 142 539 l 142 517 q 132 473 142 493 q 102 454 121 454 l 102 454 q 78 478 86 454 q 71 532 71 502 l 71 532 q 81 591 71 563 q 109 642 92 620 l 109 642 q 145 674 124 661 q 187 688 167 688 l 187 688 q 236 680 216 688 q 275 646 257 672 l 275 646 q 300 578 292 621 q 309 467 309 535 l 309 467 q 308 295 309 370 q 307 132 307 220 l 307 132 q 312 90 307 105 q 326 63 316 74 l 326 63 q 341 56 330 57 q 363 56 352 56 l 363 56 z m 212 137 l 214 321 q 167 295 187 308 q 130 263 146 282 l 130 263 q 104 220 113 245 q 95 161 95 195 l 95 161 q 109 96 95 117 q 144 75 123 75 l 144 75 q 183 93 166 75 q 212 137 201 111 l 212 137 z m 392 1022 l 554 784 l 522 762 l 332 947 l 146 762 l 113 784 l 274 1019 q 296 1043 286 1036 q 335 1050 307 1050 l 335 1050 q 372 1043 362 1050 q 392 1022 382 1036 l 392 1022 z "},"":{"ha":700,"x_min":54,"x_max":602,"o":"m 363 56 l 363 12 q 336 -6 348 1 q 309 -14 324 -14 l 309 -14 q 268 11 283 -14 q 248 83 252 36 l 248 83 l 245 83 q 199 9 224 35 q 139 -17 174 -17 l 139 -17 q 78 29 102 -17 q 54 150 54 75 l 54 150 q 60 219 54 189 q 76 274 65 250 l 76 274 q 98 310 84 294 q 123 336 111 326 l 123 336 q 184 378 138 347 q 246 427 231 410 l 246 427 l 246 494 q 244 528 246 503 q 237 576 243 553 l 237 576 q 218 620 230 601 q 183 638 205 638 l 183 638 q 155 628 168 638 q 136 606 142 617 l 136 606 q 139 566 136 592 q 142 517 142 539 l 142 517 q 132 473 142 493 q 102 454 121 454 l 102 454 q 78 478 86 454 q 71 532 71 502 l 71 532 q 81 591 71 563 q 109 642 92 620 l 109 642 q 145 674 124 661 q 187 688 167 688 l 187 688 q 236 680 216 688 q 275 646 257 672 l 275 646 q 300 578 292 621 q 309 467 309 535 l 309 467 q 308 295 309 370 q 307 132 307 220 l 307 132 q 312 90 307 105 q 326 63 316 74 l 326 63 q 341 56 330 57 q 363 56 352 56 l 363 56 z m 212 137 l 214 321 q 167 295 187 308 q 130 263 146 282 l 130 263 q 104 220 113 245 q 95 161 95 195 l 95 161 q 109 96 95 117 q 144 75 123 75 l 144 75 q 183 93 166 75 q 212 137 201 111 l 212 137 z m 561 1010 l 602 995 q 582 942 595 969 q 545 888 568 915 l 545 888 q 493 846 520 862 q 429 830 467 830 l 429 830 q 361 841 391 830 q 311 865 332 852 l 311 865 q 266 889 288 878 q 219 900 245 900 l 219 900 q 188 895 198 900 q 165 876 177 889 l 165 876 q 144 844 155 864 q 123 808 133 824 l 123 808 l 84 825 q 107 877 91 846 q 142 930 123 907 l 142 930 q 192 972 163 955 q 253 989 221 989 l 253 989 q 318 978 291 989 q 369 954 346 967 l 369 954 q 412 930 395 940 q 456 920 430 920 l 456 920 q 499 926 483 920 q 526 944 516 932 l 526 944 q 544 972 536 957 q 561 1010 551 987 l 561 1010 z "},"":{"ha":700,"x_min":54,"x_max":560,"o":"m 363 56 l 363 12 q 336 -6 348 1 q 309 -14 324 -14 l 309 -14 q 268 11 283 -14 q 248 83 252 36 l 248 83 l 245 83 q 199 9 224 35 q 139 -17 174 -17 l 139 -17 q 78 29 102 -17 q 54 150 54 75 l 54 150 q 60 219 54 189 q 76 274 65 250 l 76 274 q 98 310 84 294 q 123 336 111 326 l 123 336 q 184 378 138 347 q 246 427 231 410 l 246 427 l 246 494 q 244 528 246 503 q 237 576 243 553 l 237 576 q 218 620 230 601 q 183 638 205 638 l 183 638 q 155 628 168 638 q 136 606 142 617 l 136 606 q 139 566 136 592 q 142 517 142 539 l 142 517 q 132 473 142 493 q 102 454 121 454 l 102 454 q 78 478 86 454 q 71 532 71 502 l 71 532 q 81 591 71 563 q 109 642 92 620 l 109 642 q 145 674 124 661 q 187 688 167 688 l 187 688 q 236 680 216 688 q 275 646 257 672 l 275 646 q 300 578 292 621 q 309 467 309 535 l 309 467 q 308 295 309 370 q 307 132 307 220 l 307 132 q 312 90 307 105 q 326 63 316 74 l 326 63 q 341 56 330 57 q 363 56 352 56 l 363 56 z m 212 137 l 214 321 q 167 295 187 308 q 130 263 146 282 l 130 263 q 104 220 113 245 q 95 161 95 195 l 95 161 q 109 96 95 117 q 144 75 123 75 l 144 75 q 183 93 166 75 q 212 137 201 111 l 212 137 z m 560 925 l 560 925 q 537 866 560 890 q 480 842 513 842 l 480 842 q 424 866 447 842 q 400 925 400 890 l 400 925 q 424 984 400 960 q 480 1008 447 1008 l 480 1008 q 537 984 513 1008 q 560 925 560 960 z m 269 925 l 269 925 q 245 866 269 890 q 189 842 222 842 l 189 842 q 132 866 155 842 q 109 925 109 890 l 109 925 q 132 984 109 960 q 189 1008 155 1008 l 189 1008 q 245 984 222 1008 q 269 925 269 960 z "},"":{"ha":700,"x_min":54,"x_max":509,"o":"m 363 56 l 363 12 q 336 -6 348 1 q 309 -14 324 -14 l 309 -14 q 268 11 283 -14 q 248 83 252 36 l 248 83 l 245 83 q 199 9 224 35 q 139 -17 174 -17 l 139 -17 q 78 29 102 -17 q 54 150 54 75 l 54 150 q 60 219 54 189 q 76 274 65 250 l 76 274 q 98 310 84 294 q 123 336 111 326 l 123 336 q 184 378 138 347 q 246 427 231 410 l 246 427 l 246 494 q 244 528 246 503 q 237 576 243 553 l 237 576 q 218 620 230 601 q 183 638 205 638 l 183 638 q 155 628 168 638 q 136 606 142 617 l 136 606 q 139 566 136 592 q 142 517 142 539 l 142 517 q 132 473 142 493 q 102 454 121 454 l 102 454 q 78 478 86 454 q 71 532 71 502 l 71 532 q 81 591 71 563 q 109 642 92 620 l 109 642 q 145 674 124 661 q 187 688 167 688 l 187 688 q 236 680 216 688 q 275 646 257 672 l 275 646 q 300 578 292 621 q 309 467 309 535 l 309 467 q 308 295 309 370 q 307 132 307 220 l 307 132 q 312 90 307 105 q 326 63 316 74 l 326 63 q 341 56 330 57 q 363 56 352 56 l 363 56 z m 212 137 l 214 321 q 167 295 187 308 q 130 263 146 282 l 130 263 q 104 220 113 245 q 95 161 95 195 l 95 161 q 109 96 95 117 q 144 75 123 75 l 144 75 q 183 93 166 75 q 212 137 201 111 l 212 137 z m 509 907 l 509 907 q 461 798 509 840 q 334 755 413 755 l 334 755 q 207 797 255 755 q 159 907 159 838 l 159 907 q 210 1015 159 973 q 334 1057 261 1057 l 334 1057 q 460 1016 410 1057 q 509 907 509 975 z m 424 907 l 424 907 q 401 983 424 953 q 334 1014 378 1014 l 334 1014 q 268 985 292 1014 q 245 907 245 956 l 245 907 q 268 829 245 860 q 334 799 291 799 l 334 799 q 401 829 378 799 q 424 907 424 859 z "},"":{"ha":1023,"x_min":55,"x_max":996,"o":"m 948 187 l 996 158 q 887 28 956 75 q 735 -18 819 -18 l 735 -18 q 589 13 649 -18 q 483 110 530 44 l 483 110 l 479 110 q 368 12 427 42 q 230 -18 309 -18 l 230 -18 q 104 27 153 -18 q 55 149 55 73 l 55 149 q 66 222 55 191 q 98 277 78 254 l 98 277 q 141 315 117 300 q 192 340 166 330 l 192 340 q 337 393 286 378 q 435 422 389 408 l 435 422 l 435 494 q 432 528 435 504 q 416 576 428 551 l 416 576 q 380 620 404 601 q 317 638 357 638 l 317 638 q 257 628 283 638 q 219 606 230 617 l 219 606 q 225 566 219 592 q 232 517 232 539 l 232 517 q 211 473 232 493 q 151 454 189 454 l 151 454 q 101 478 117 454 q 85 532 85 502 l 85 532 q 107 592 85 564 q 163 642 129 619 l 163 642 q 239 675 195 662 q 320 688 283 688 l 320 688 q 443 671 388 688 q 531 606 498 654 l 531 606 q 616 665 566 642 q 721 688 667 688 l 721 688 q 840 665 791 688 q 919 605 889 642 l 919 605 q 964 518 950 567 q 979 412 979 469 l 979 412 l 979 372 l 559 372 q 610 137 559 218 q 767 57 661 57 l 767 57 q 878 92 838 57 q 948 187 919 127 l 948 187 z m 559 428 l 845 428 q 840 497 845 455 q 823 565 834 539 l 823 565 q 782 616 808 596 q 713 637 756 637 l 713 637 q 603 575 645 637 q 559 428 560 514 l 559 428 z m 437 132 l 437 132 l 437 364 q 341 339 382 353 q 263 300 300 325 l 263 300 q 210 243 229 276 q 191 168 191 211 l 191 168 q 217 85 191 112 q 288 58 244 58 l 288 58 q 376 80 340 58 q 437 132 413 102 z "},"":{"ha":631,"x_min":49,"x_max":627,"o":"m 311 -140 l 311 -15 q 118 95 188 1 q 49 337 49 189 l 49 337 q 71 469 49 408 q 135 581 93 530 l 135 581 q 235 658 175 629 q 367 688 296 688 l 367 688 q 527 641 465 688 q 589 512 589 593 l 589 512 q 572 452 589 478 q 519 426 556 426 l 519 426 q 457 446 479 426 q 435 492 435 467 l 435 492 q 443 554 435 522 q 452 602 451 587 l 452 602 q 416 630 440 623 q 364 637 392 637 l 364 637 q 302 623 332 637 q 245 572 273 609 l 245 572 q 204 480 220 538 q 189 342 189 422 l 189 342 q 244 137 189 216 q 391 57 300 57 l 391 57 q 502 89 457 57 q 584 184 546 121 l 584 184 l 627 156 q 512 31 584 78 q 365 -18 441 -16 l 365 -18 l 365 -67 q 420 -71 395 -67 q 469 -87 444 -75 l 469 -87 q 507 -118 492 -98 q 521 -168 521 -138 l 521 -168 q 499 -235 521 -208 q 439 -277 477 -262 l 439 -277 q 356 -296 401 -290 q 250 -301 311 -301 l 250 -301 l 250 -252 q 311 -252 278 -252 q 366 -245 343 -251 l 366 -245 q 408 -227 393 -239 q 423 -191 423 -214 l 423 -191 q 413 -164 423 -175 q 386 -149 403 -154 l 386 -149 q 350 -142 372 -144 q 311 -140 327 -140 l 311 -140 z "},"":{"ha":671,"x_min":49,"x_max":471,"o":"m 374 182 l 402 154 q 335 29 377 75 q 239 -18 293 -18 l 239 -18 q 155 10 191 -18 q 95 86 119 38 l 95 86 q 60 197 72 134 q 49 332 49 261 l 49 332 q 61 457 49 396 q 97 568 73 519 l 97 568 q 154 644 120 615 q 231 673 189 673 l 231 673 q 305 650 274 673 q 356 589 336 627 l 356 589 q 384 501 374 551 q 393 391 393 450 l 393 391 l 393 347 l 129 347 q 136 231 129 283 q 160 138 144 178 l 160 138 q 201 78 176 100 q 262 56 227 56 l 262 56 q 324 83 298 56 q 374 182 350 111 l 374 182 z m 129 404 l 313 404 q 309 483 313 440 q 297 554 305 526 l 297 554 q 272 604 288 585 q 230 623 256 623 l 230 623 q 160 565 188 623 q 129 404 132 507 l 129 404 z m 471 774 l 471 774 l 446 753 q 321 850 376 808 q 239 913 266 892 l 239 913 q 203 949 214 935 q 193 990 193 962 l 193 990 q 208 1026 193 1010 q 248 1043 224 1043 l 248 1043 q 294 1031 275 1043 q 334 983 313 1019 l 334 983 q 389 898 357 946 q 471 774 420 850 z "},"":{"ha":671,"x_min":49,"x_max":517,"o":"m 374 182 l 402 154 q 335 29 377 75 q 239 -18 293 -18 l 239 -18 q 155 10 191 -18 q 95 86 119 38 l 95 86 q 60 197 72 134 q 49 332 49 261 l 49 332 q 61 457 49 396 q 97 568 73 519 l 97 568 q 154 644 120 615 q 231 673 189 673 l 231 673 q 305 650 274 673 q 356 589 336 627 l 356 589 q 384 501 374 551 q 393 391 393 450 l 393 391 l 393 347 l 129 347 q 136 231 129 283 q 160 138 144 178 l 160 138 q 201 78 176 100 q 262 56 227 56 l 262 56 q 324 83 298 56 q 374 182 350 111 l 374 182 z m 129 404 l 313 404 q 309 483 313 440 q 297 554 305 526 l 297 554 q 272 604 288 585 q 230 623 256 623 l 230 623 q 160 565 188 623 q 129 404 132 507 l 129 404 z m 517 990 l 517 990 q 506 948 517 964 q 471 913 494 932 l 471 913 q 382 844 437 886 q 264 753 328 802 l 264 753 l 239 774 q 324 902 300 865 q 376 983 348 939 l 376 983 q 416 1030 397 1018 q 462 1043 436 1043 l 462 1043 q 502 1026 486 1043 q 517 990 517 1010 z "},"":{"ha":671,"x_min":49,"x_max":574,"o":"m 374 182 l 402 154 q 335 29 377 75 q 239 -18 293 -18 l 239 -18 q 155 10 191 -18 q 95 86 119 38 l 95 86 q 60 197 72 134 q 49 332 49 261 l 49 332 q 61 457 49 396 q 97 568 73 519 l 97 568 q 154 644 120 615 q 231 673 189 673 l 231 673 q 305 650 274 673 q 356 589 336 627 l 356 589 q 384 501 374 551 q 393 391 393 450 l 393 391 l 393 347 l 129 347 q 136 231 129 283 q 160 138 144 178 l 160 138 q 201 78 176 100 q 262 56 227 56 l 262 56 q 324 83 298 56 q 374 182 350 111 l 374 182 z m 129 404 l 313 404 q 309 483 313 440 q 297 554 305 526 l 297 554 q 272 604 288 585 q 230 623 256 623 l 230 623 q 160 565 188 623 q 129 404 132 507 l 129 404 z m 412 1018 l 574 780 l 542 758 l 353 943 l 166 758 l 134 780 l 294 1015 q 316 1039 306 1032 q 355 1046 327 1046 l 355 1046 q 393 1039 382 1046 q 412 1018 403 1031 l 412 1018 z "},"":{"ha":671,"x_min":49,"x_max":585,"o":"m 374 182 l 402 154 q 335 29 377 75 q 239 -18 293 -18 l 239 -18 q 155 10 191 -18 q 95 86 119 38 l 95 86 q 60 197 72 134 q 49 332 49 261 l 49 332 q 61 457 49 396 q 97 568 73 519 l 97 568 q 154 644 120 615 q 231 673 189 673 l 231 673 q 305 650 274 673 q 356 589 336 627 l 356 589 q 384 501 374 551 q 393 391 393 450 l 393 391 l 393 347 l 129 347 q 136 231 129 283 q 160 138 144 178 l 160 138 q 201 78 176 100 q 262 56 227 56 l 262 56 q 324 83 298 56 q 374 182 350 111 l 374 182 z m 129 404 l 313 404 q 309 483 313 440 q 297 554 305 526 l 297 554 q 272 604 288 585 q 230 623 256 623 l 230 623 q 160 565 188 623 q 129 404 132 507 l 129 404 z m 585 925 l 585 925 q 561 866 585 890 q 505 842 538 842 l 505 842 q 448 866 471 842 q 425 925 425 890 l 425 925 q 448 984 425 960 q 505 1008 471 1008 l 505 1008 q 561 984 538 1008 q 585 925 585 960 z m 293 925 l 293 925 q 270 866 293 890 q 213 842 246 842 l 213 842 q 156 866 180 842 q 133 925 133 890 l 133 925 q 156 984 133 960 q 213 1008 180 1008 l 213 1008 q 270 984 246 1008 q 293 925 293 960 z "},"":{"ha":407,"x_min":28,"x_max":374,"o":"m 374 45 l 374 0 l 50 0 l 50 45 q 82 47 66 46 q 111 53 99 49 l 111 53 q 139 74 130 59 q 149 114 149 90 l 149 114 l 149 527 q 139 567 149 549 q 111 597 129 585 l 111 597 q 74 611 98 605 q 29 618 50 616 l 29 618 l 29 662 l 265 677 l 275 667 l 275 122 q 284 83 275 98 q 313 60 293 67 l 313 60 q 342 50 328 54 q 374 45 356 46 l 374 45 z m 307 774 l 307 774 l 281 753 q 156 850 211 808 q 75 913 101 892 l 75 913 q 38 949 49 935 q 28 990 28 962 l 28 990 q 43 1026 28 1010 q 83 1043 59 1043 l 83 1043 q 129 1031 110 1043 q 170 983 148 1019 l 170 983 q 224 898 193 946 q 307 774 255 850 z "},"":{"ha":407,"x_min":29,"x_max":374,"o":"m 374 45 l 374 0 l 50 0 l 50 45 q 82 47 66 46 q 111 53 99 49 l 111 53 q 139 74 130 59 q 149 114 149 90 l 149 114 l 149 527 q 139 567 149 549 q 111 597 129 585 l 111 597 q 74 611 98 605 q 29 618 50 616 l 29 618 l 29 662 l 265 677 l 275 667 l 275 122 q 284 83 275 98 q 313 60 293 67 l 313 60 q 342 50 328 54 q 374 45 356 46 l 374 45 z m 347 990 l 347 990 q 335 948 347 964 q 300 913 323 932 l 300 913 q 211 844 266 886 q 94 753 157 802 l 94 753 l 68 774 q 153 902 129 865 q 205 983 177 939 l 205 983 q 245 1030 226 1018 q 291 1043 265 1043 l 291 1043 q 331 1026 315 1043 q 347 990 347 1010 z "},"":{"ha":407,"x_min":-14,"x_max":380,"o":"m 374 45 l 374 0 l 50 0 l 50 45 q 82 47 66 46 q 111 53 99 49 l 111 53 q 139 74 130 59 q 149 114 149 90 l 149 114 l 149 527 q 139 567 149 549 q 111 597 129 585 l 111 597 q 74 611 98 605 q 29 618 50 616 l 29 618 l 29 662 l 265 677 l 275 667 l 275 122 q 284 83 275 98 q 313 60 293 67 l 313 60 q 342 50 328 54 q 374 45 356 46 l 374 45 z m 241 1015 l 380 780 l 347 760 l 182 943 l 19 760 l -14 780 l 123 1013 q 144 1036 131 1026 q 184 1046 157 1046 l 184 1046 q 225 1035 214 1046 q 241 1015 237 1024 l 241 1015 z "},"":{"ha":407,"x_min":-9,"x_max":384,"o":"m 374 45 l 374 0 l 50 0 l 50 45 q 82 47 66 46 q 111 53 99 49 l 111 53 q 139 74 130 59 q 149 114 149 90 l 149 114 l 149 527 q 139 567 149 549 q 111 597 129 585 l 111 597 q 74 611 98 605 q 29 618 50 616 l 29 618 l 29 662 l 265 677 l 275 667 l 275 122 q 284 83 275 98 q 313 60 293 67 l 313 60 q 342 50 328 54 q 374 45 356 46 l 374 45 z m 384 925 l 384 925 q 361 866 384 890 q 306 842 339 842 l 306 842 q 250 866 273 842 q 228 925 228 890 l 228 925 q 250 984 228 960 q 306 1008 273 1008 l 306 1008 q 361 984 339 1008 q 384 925 384 960 z m 146 925 l 146 925 q 124 866 146 890 q 68 842 102 842 l 68 842 q 13 866 35 842 q -9 925 -9 890 l -9 925 q 13 984 -9 960 q 68 1008 35 1008 l 68 1008 q 124 984 102 1008 q 146 925 146 960 z "},"":{"ha":772,"x_min":null,"x_max":null,"o":""},"":{"ha":821,"x_min":41,"x_max":669,"o":"m 473 45 l 473 0 l 283 0 l 283 45 q 303 47 293 46 q 321 53 314 49 l 321 53 q 338 74 332 59 q 343 114 343 90 l 343 114 l 343 458 q 323 568 343 529 q 276 606 304 606 l 276 606 q 238 595 256 606 q 208 568 221 584 l 208 568 q 187 534 195 552 q 176 505 179 516 l 176 505 l 176 121 q 181 83 176 98 q 197 60 186 68 l 197 60 q 216 50 206 53 q 235 45 225 46 l 235 45 l 235 0 l 45 0 l 45 45 q 64 47 55 46 q 81 53 74 49 l 81 53 q 97 74 92 59 q 102 114 102 90 l 102 114 l 102 527 q 97 569 102 550 q 81 601 92 589 l 81 601 q 63 613 73 609 q 41 618 53 616 l 41 618 l 41 662 l 170 677 l 176 667 l 176 573 l 178 573 q 201 612 187 589 q 228 649 216 635 l 228 649 q 262 676 242 665 q 308 687 283 687 l 308 687 q 390 627 363 687 q 417 467 417 567 l 417 467 l 417 119 q 422 81 417 96 q 438 58 427 66 l 438 58 q 454 49 448 52 q 473 45 461 46 l 473 45 z m 627 1010 l 669 995 q 648 942 662 969 q 611 888 635 915 l 611 888 q 560 846 587 862 q 496 830 533 830 l 496 830 q 428 841 457 830 q 378 865 399 852 l 378 865 q 333 889 354 878 q 286 900 311 900 l 286 900 q 254 895 264 900 q 232 876 243 889 l 232 876 q 210 844 221 864 q 190 808 199 824 l 190 808 l 151 825 q 174 877 157 846 q 209 930 190 907 l 209 930 q 258 972 229 955 q 319 989 288 989 l 319 989 q 385 978 357 989 q 435 954 412 967 l 435 954 q 479 930 461 940 q 522 920 496 920 l 522 920 q 566 926 549 920 q 592 944 583 932 l 592 944 q 610 972 603 957 q 627 1010 617 987 l 627 1010 z "},"":{"ha":749,"x_min":47,"x_max":701,"o":"m 701 341 l 701 341 q 678 202 701 271 q 614 87 656 134 l 614 87 q 506 6 568 33 q 368 -20 444 -20 l 368 -20 q 246 4 304 -20 q 144 74 189 28 l 144 74 q 74 185 100 119 q 47 332 47 250 l 47 332 q 139 588 47 488 q 378 688 230 688 l 378 688 q 609 593 518 688 q 701 341 701 498 z m 560 340 l 560 340 q 550 447 560 391 q 519 543 540 504 l 519 543 q 463 611 498 585 q 376 636 427 636 l 376 636 q 287 610 324 636 q 227 540 250 585 l 227 540 q 197 446 205 498 q 188 343 188 393 l 188 343 q 198 223 188 278 q 232 124 209 168 l 232 124 q 290 56 255 81 q 376 31 325 31 l 376 31 q 511 113 461 31 q 560 340 560 195 z m 533 774 l 533 774 l 507 753 q 382 850 437 808 q 301 913 328 892 l 301 913 q 265 949 275 935 q 254 990 254 962 l 254 990 q 270 1026 254 1010 q 310 1043 286 1043 l 310 1043 q 355 1031 336 1043 q 396 983 374 1019 l 396 983 q 450 898 419 946 q 533 774 481 850 z "},"":{"ha":749,"x_min":47,"x_max":701,"o":"m 701 341 l 701 341 q 678 202 701 271 q 614 87 656 134 l 614 87 q 506 6 568 33 q 368 -20 444 -20 l 368 -20 q 246 4 304 -20 q 144 74 189 28 l 144 74 q 74 185 100 119 q 47 332 47 250 l 47 332 q 139 588 47 488 q 378 688 230 688 l 378 688 q 609 593 518 688 q 701 341 701 498 z m 560 340 l 560 340 q 550 447 560 391 q 519 543 540 504 l 519 543 q 463 611 498 585 q 376 636 427 636 l 376 636 q 287 610 324 636 q 227 540 250 585 l 227 540 q 197 446 205 498 q 188 343 188 393 l 188 343 q 198 223 188 278 q 232 124 209 168 l 232 124 q 290 56 255 81 q 376 31 325 31 l 376 31 q 511 113 461 31 q 560 340 560 195 z m 504 990 l 504 990 q 492 948 504 964 q 457 913 480 932 l 457 913 q 369 844 423 886 q 251 753 314 802 l 251 753 l 225 774 q 310 902 286 865 q 362 983 334 939 l 362 983 q 403 1030 383 1018 q 448 1043 422 1043 l 448 1043 q 488 1026 473 1043 q 504 990 504 1010 z "},"":{"ha":749,"x_min":47,"x_max":701,"o":"m 701 341 l 701 341 q 678 202 701 271 q 614 87 656 134 l 614 87 q 506 6 568 33 q 368 -20 444 -20 l 368 -20 q 246 4 304 -20 q 144 74 189 28 l 144 74 q 74 185 100 119 q 47 332 47 250 l 47 332 q 139 588 47 488 q 378 688 230 688 l 378 688 q 609 593 518 688 q 701 341 701 498 z m 560 340 l 560 340 q 550 447 560 391 q 519 543 540 504 l 519 543 q 463 611 498 585 q 376 636 427 636 l 376 636 q 287 610 324 636 q 227 540 250 585 l 227 540 q 197 446 205 498 q 188 343 188 393 l 188 343 q 198 223 188 278 q 232 124 209 168 l 232 124 q 290 56 255 81 q 376 31 325 31 l 376 31 q 511 113 461 31 q 560 340 560 195 z m 437 1018 l 600 780 l 567 758 l 378 943 l 191 758 l 159 780 l 319 1015 q 341 1039 331 1032 q 380 1046 352 1046 l 380 1046 q 418 1039 408 1046 q 437 1018 428 1031 l 437 1018 z "},"":{"ha":749,"x_min":47,"x_max":701,"o":"m 701 341 l 701 341 q 678 202 701 271 q 614 87 656 134 l 614 87 q 506 6 568 33 q 368 -20 444 -20 l 368 -20 q 246 4 304 -20 q 144 74 189 28 l 144 74 q 74 185 100 119 q 47 332 47 250 l 47 332 q 139 588 47 488 q 378 688 230 688 l 378 688 q 609 593 518 688 q 701 341 701 498 z m 560 340 l 560 340 q 550 447 560 391 q 519 543 540 504 l 519 543 q 463 611 498 585 q 376 636 427 636 l 376 636 q 287 610 324 636 q 227 540 250 585 l 227 540 q 197 446 205 498 q 188 343 188 393 l 188 343 q 198 223 188 278 q 232 124 209 168 l 232 124 q 290 56 255 81 q 376 31 325 31 l 376 31 q 511 113 461 31 q 560 340 560 195 z m 597 1010 l 638 995 q 618 942 631 969 q 581 888 604 915 l 581 888 q 529 846 556 862 q 465 830 503 830 l 465 830 q 397 841 427 830 q 347 865 368 852 l 347 865 q 302 889 323 878 q 255 900 281 900 l 255 900 q 223 895 234 900 q 201 876 213 889 l 201 876 q 180 844 191 864 q 159 808 169 824 l 159 808 l 120 825 q 143 877 127 846 q 178 930 159 907 l 178 930 q 228 972 199 955 q 289 989 257 989 l 289 989 q 354 978 327 989 q 405 954 382 967 l 405 954 q 448 930 431 940 q 492 920 466 920 l 492 920 q 535 926 519 920 q 562 944 552 932 l 562 944 q 579 972 572 957 q 597 1010 587 987 l 597 1010 z "},"":{"ha":749,"x_min":47,"x_max":701,"o":"m 701 341 l 701 341 q 678 202 701 271 q 614 87 656 134 l 614 87 q 506 6 568 33 q 368 -20 444 -20 l 368 -20 q 246 4 304 -20 q 144 74 189 28 l 144 74 q 74 185 100 119 q 47 332 47 250 l 47 332 q 139 588 47 488 q 378 688 230 688 l 378 688 q 609 593 518 688 q 701 341 701 498 z m 560 340 l 560 340 q 550 447 560 391 q 519 543 540 504 l 519 543 q 463 611 498 585 q 376 636 427 636 l 376 636 q 287 610 324 636 q 227 540 250 585 l 227 540 q 197 446 205 498 q 188 343 188 393 l 188 343 q 198 223 188 278 q 232 124 209 168 l 232 124 q 290 56 255 81 q 376 31 325 31 l 376 31 q 511 113 461 31 q 560 340 560 195 z m 605 925 l 605 925 q 582 866 605 890 q 525 842 558 842 l 525 842 q 468 866 492 842 q 445 925 445 890 l 445 925 q 468 984 445 960 q 525 1008 492 1008 l 525 1008 q 582 984 558 1008 q 605 925 605 960 z m 313 925 l 313 925 q 290 866 313 890 q 233 842 267 842 l 233 842 q 177 866 200 842 q 153 925 153 890 l 153 925 q 177 984 153 960 q 233 1008 200 1008 l 233 1008 q 290 984 267 1008 q 313 925 313 960 z "},"":{"ha":893,"x_min":98,"x_max":795,"o":"m 534 655 l 534 655 q 509 593 534 619 q 447 568 483 568 l 447 568 q 385 593 411 568 q 359 655 359 619 l 359 655 q 385 716 359 691 q 447 741 411 741 l 447 741 q 509 716 483 741 q 534 655 534 691 z m 795 422 l 795 337 l 98 337 l 98 422 l 795 422 z m 534 104 l 534 104 q 509 43 534 68 q 447 18 483 18 l 447 18 q 385 43 411 18 q 359 104 359 68 l 359 104 q 385 165 359 140 q 447 191 411 191 l 447 191 q 509 165 483 191 q 534 104 534 140 z "},"":{"ha":749,"x_min":47,"x_max":701,"o":"m 701 341 l 701 341 q 678 202 701 271 q 614 87 656 134 l 614 87 q 506 6 568 33 q 368 -20 444 -20 l 368 -20 q 264 -2 314 -20 q 173 51 215 16 l 173 51 q 116 -20 144 16 q 87 -55 87 -55 l 87 -55 l 48 -26 l 138 85 q 72 192 97 131 q 47 332 47 254 l 47 332 q 139 588 47 488 q 378 688 230 688 l 378 688 q 486 671 437 688 q 574 622 534 654 l 574 622 l 649 718 l 688 688 l 608 589 q 676 479 652 543 q 701 341 701 416 z m 208 168 l 517 553 q 462 614 495 592 q 376 636 429 636 l 376 636 q 284 609 321 636 q 225 540 248 583 l 225 540 q 194 446 203 498 q 185 343 185 393 l 185 343 q 191 251 185 296 q 208 168 197 205 l 208 168 z m 517 122 l 517 122 q 552 220 541 168 q 563 340 563 272 l 563 340 q 557 427 563 382 q 540 507 552 471 l 540 507 l 231 121 q 288 55 254 79 q 376 31 323 31 l 376 31 q 459 56 424 31 q 517 122 495 81 z "},"":{"ha":799,"x_min":24,"x_max":578,"o":"m 578 56 l 578 12 l 415 -3 l 408 7 l 408 92 l 405 92 q 377 55 393 75 q 342 20 362 36 l 342 20 q 298 -7 319 2 q 238 -17 277 -17 l 238 -17 q 137 41 172 -17 q 102 210 102 99 l 102 210 l 102 530 q 96 571 102 554 q 75 600 89 587 l 75 600 q 53 611 66 608 q 24 616 39 615 l 24 616 l 24 661 l 191 677 l 198 667 l 198 203 q 222 94 198 130 q 281 57 247 57 l 281 57 q 330 68 309 57 q 367 96 352 80 l 367 96 q 391 126 380 110 q 407 155 401 142 l 407 155 l 407 534 q 400 574 407 557 q 380 604 393 591 l 380 604 q 353 613 371 612 q 313 616 335 615 l 313 616 l 313 661 l 494 677 l 501 667 l 501 136 q 508 97 501 113 q 528 69 515 81 l 528 69 q 550 59 537 62 q 578 56 563 57 l 578 56 z m 522 774 l 522 774 l 496 753 q 371 850 426 808 q 290 913 316 892 l 290 913 q 253 949 264 935 q 243 990 243 962 l 243 990 q 258 1026 243 1010 q 298 1043 274 1043 l 298 1043 q 344 1031 325 1043 q 385 983 363 1019 l 385 983 q 439 898 408 946 q 522 774 470 850 z "},"":{"ha":799,"x_min":24,"x_max":578,"o":"m 578 56 l 578 12 l 415 -3 l 408 7 l 408 92 l 405 92 q 377 55 393 75 q 342 20 362 36 l 342 20 q 298 -7 319 2 q 238 -17 277 -17 l 238 -17 q 137 41 172 -17 q 102 210 102 99 l 102 210 l 102 530 q 96 571 102 554 q 75 600 89 587 l 75 600 q 53 611 66 608 q 24 616 39 615 l 24 616 l 24 661 l 191 677 l 198 667 l 198 203 q 222 94 198 130 q 281 57 247 57 l 281 57 q 330 68 309 57 q 367 96 352 80 l 367 96 q 391 126 380 110 q 407 155 401 142 l 407 155 l 407 534 q 400 574 407 557 q 380 604 393 591 l 380 604 q 353 613 371 612 q 313 616 335 615 l 313 616 l 313 661 l 494 677 l 501 667 l 501 136 q 508 97 501 113 q 528 69 515 81 l 528 69 q 550 59 537 62 q 578 56 563 57 l 578 56 z m 548 990 l 548 990 q 536 948 548 964 q 501 913 524 932 l 501 913 q 413 844 467 886 q 295 753 358 802 l 295 753 l 269 774 q 354 902 330 865 q 406 983 378 939 l 406 983 q 447 1030 427 1018 q 492 1043 467 1043 l 492 1043 q 532 1026 517 1043 q 548 990 548 1010 z "},"":{"ha":799,"x_min":24,"x_max":609,"o":"m 578 56 l 578 12 l 415 -3 l 408 7 l 408 92 l 405 92 q 377 55 393 75 q 342 20 362 36 l 342 20 q 298 -7 319 2 q 238 -17 277 -17 l 238 -17 q 137 41 172 -17 q 102 210 102 99 l 102 210 l 102 530 q 96 571 102 554 q 75 600 89 587 l 75 600 q 53 611 66 608 q 24 616 39 615 l 24 616 l 24 661 l 191 677 l 198 667 l 198 203 q 222 94 198 130 q 281 57 247 57 l 281 57 q 330 68 309 57 q 367 96 352 80 l 367 96 q 391 126 380 110 q 407 155 401 142 l 407 155 l 407 534 q 400 574 407 557 q 380 604 393 591 l 380 604 q 353 613 371 612 q 313 616 335 615 l 313 616 l 313 661 l 494 677 l 501 667 l 501 136 q 508 97 501 113 q 528 69 515 81 l 528 69 q 550 59 537 62 q 578 56 563 57 l 578 56 z m 447 1018 l 609 780 l 576 758 l 387 943 l 201 758 l 168 780 l 329 1015 q 351 1039 340 1032 q 390 1046 361 1046 l 390 1046 q 427 1039 417 1046 q 447 1018 437 1031 l 447 1018 z "},"":{"ha":799,"x_min":24,"x_max":614,"o":"m 578 56 l 578 12 l 415 -3 l 408 7 l 408 92 l 405 92 q 377 55 393 75 q 342 20 362 36 l 342 20 q 298 -7 319 2 q 238 -17 277 -17 l 238 -17 q 137 41 172 -17 q 102 210 102 99 l 102 210 l 102 530 q 96 571 102 554 q 75 600 89 587 l 75 600 q 53 611 66 608 q 24 616 39 615 l 24 616 l 24 661 l 191 677 l 198 667 l 198 203 q 222 94 198 130 q 281 57 247 57 l 281 57 q 330 68 309 57 q 367 96 352 80 l 367 96 q 391 126 380 110 q 407 155 401 142 l 407 155 l 407 534 q 400 574 407 557 q 380 604 393 591 l 380 604 q 353 613 371 612 q 313 616 335 615 l 313 616 l 313 661 l 494 677 l 501 667 l 501 136 q 508 97 501 113 q 528 69 515 81 l 528 69 q 550 59 537 62 q 578 56 563 57 l 578 56 z m 614 925 l 614 925 q 591 866 614 890 q 534 842 568 842 l 534 842 q 478 866 501 842 q 454 925 454 890 l 454 925 q 478 984 454 960 q 534 1008 501 1008 l 534 1008 q 591 984 568 1008 q 614 925 614 960 z m 323 925 l 323 925 q 299 866 323 890 q 243 842 276 842 l 243 842 q 186 866 210 842 q 163 925 163 890 l 163 925 q 186 984 163 960 q 243 1008 210 1008 l 243 1008 q 299 984 276 1008 q 323 925 323 960 z "},"":{"ha":694,"x_min":null,"x_max":null,"o":""},"":{"ha":772,"x_min":null,"x_max":null,"o":""},"":{"ha":684,"x_min":-13,"x_max":594,"o":"m -5 -218 l -5 -218 q 8 -163 -5 -184 q 39 -142 20 -142 l 39 -142 q 65 -150 54 -142 q 85 -171 76 -158 l 85 -171 q 99 -199 92 -181 q 112 -228 107 -216 l 112 -228 q 168 -132 136 -210 q 215 3 201 -55 l 215 3 q 135 291 171 164 q 59 553 98 418 l 59 553 q 29 602 50 585 q -13 624 8 619 l -13 624 l -13 669 l 198 669 l 198 621 q 164 613 184 621 q 144 591 144 605 l 144 591 q 147 581 144 591 q 151 562 150 571 l 151 562 q 206 368 170 494 q 262 165 242 241 l 262 165 q 306 316 283 238 q 357 499 329 393 l 357 499 q 366 535 360 512 q 372 574 372 557 l 372 574 q 351 607 372 591 q 311 625 330 622 l 311 625 l 311 669 l 482 669 l 482 627 q 445 603 468 623 q 411 547 422 583 l 411 547 q 312 205 355 359 q 246 -21 269 52 l 246 -21 q 193 -169 216 -116 q 149 -253 170 -222 l 149 -253 q 109 -291 127 -281 q 73 -301 92 -301 l 73 -301 q 16 -276 37 -301 q -5 -218 -5 -251 z m 594 925 l 594 925 q 571 866 594 890 q 514 842 547 842 l 514 842 q 457 866 481 842 q 434 925 434 890 l 434 925 q 457 984 434 960 q 514 1008 481 1008 l 514 1008 q 571 984 547 1008 q 594 925 594 960 z m 302 925 l 302 925 q 279 866 302 890 q 222 842 256 842 l 222 842 q 166 866 189 842 q 142 925 142 890 l 142 925 q 166 984 142 960 q 222 1008 189 1008 l 222 1008 q 279 984 256 1008 q 302 925 302 960 z "},"":{"ha":926,"x_min":null,"x_max":null,"o":""},"":{"ha":772,"x_min":null,"x_max":null,"o":""},"":{"ha":926,"x_min":null,"x_max":null,"o":""},"":{"ha":772,"x_min":null,"x_max":null,"o":""},"":{"ha":926,"x_min":null,"x_max":null,"o":""},"":{"ha":772,"x_min":null,"x_max":null,"o":""},"":{"ha":1003,"x_min":null,"x_max":null,"o":""},"":{"ha":694,"x_min":null,"x_max":null,"o":""},"":{"ha":1003,"x_min":null,"x_max":null,"o":""},"":{"ha":694,"x_min":null,"x_max":null,"o":""},"":{"ha":1003,"x_min":null,"x_max":null,"o":""},"":{"ha":694,"x_min":null,"x_max":null,"o":""},"":{"ha":1003,"x_min":null,"x_max":null,"o":""},"":{"ha":694,"x_min":null,"x_max":null,"o":""},"":{"ha":1003,"x_min":null,"x_max":null,"o":""},"":{"ha":854,"x_min":null,"x_max":null,"o":""},"":{"ha":1003,"x_min":null,"x_max":null,"o":""},"":{"ha":772,"x_min":null,"x_max":null,"o":""},"":{"ha":926,"x_min":null,"x_max":null,"o":""},"":{"ha":772,"x_min":null,"x_max":null,"o":""},"":{"ha":926,"x_min":null,"x_max":null,"o":""},"":{"ha":772,"x_min":null,"x_max":null,"o":""},"":{"ha":926,"x_min":null,"x_max":null,"o":""},"":{"ha":772,"x_min":null,"x_max":null,"o":""},"":{"ha":926,"x_min":null,"x_max":null,"o":""},"":{"ha":772,"x_min":null,"x_max":null,"o":""},"":{"ha":926,"x_min":null,"x_max":null,"o":""},"":{"ha":772,"x_min":null,"x_max":null,"o":""},"":{"ha":1080,"x_min":null,"x_max":null,"o":""},"":{"ha":772,"x_min":null,"x_max":null,"o":""},"":{"ha":1080,"x_min":null,"x_max":null,"o":""},"":{"ha":772,"x_min":null,"x_max":null,"o":""},"":{"ha":1080,"x_min":null,"x_max":null,"o":""},"":{"ha":772,"x_min":null,"x_max":null,"o":""},"":{"ha":1080,"x_min":null,"x_max":null,"o":""},"":{"ha":772,"x_min":null,"x_max":null,"o":""},"":{"ha":1003,"x_min":null,"x_max":null,"o":""},"":{"ha":772,"x_min":null,"x_max":null,"o":""},"":{"ha":1003,"x_min":null,"x_max":null,"o":""},"":{"ha":772,"x_min":null,"x_max":null,"o":""},"":{"ha":386,"x_min":null,"x_max":null,"o":""},"":{"ha":386,"x_min":null,"x_max":null,"o":""},"":{"ha":386,"x_min":null,"x_max":null,"o":""},"":{"ha":386,"x_min":null,"x_max":null,"o":""},"":{"ha":386,"x_min":null,"x_max":null,"o":""},"":{"ha":386,"x_min":null,"x_max":null,"o":""},"":{"ha":386,"x_min":null,"x_max":null,"o":""},"":{"ha":309,"x_min":null,"x_max":null,"o":""},"":{"ha":386,"x_min":null,"x_max":null,"o":""},"":{"ha":386,"x_min":null,"x_max":null,"o":""},"":{"ha":1021,"x_min":null,"x_max":null,"o":""},"":{"ha":616,"x_min":null,"x_max":null,"o":""},"":{"ha":694,"x_min":null,"x_max":null,"o":""},"":{"ha":309,"x_min":null,"x_max":null,"o":""},"":{"ha":926,"x_min":null,"x_max":null,"o":""},"":{"ha":694,"x_min":null,"x_max":null,"o":""},"":{"ha":694,"x_min":null,"x_max":null,"o":""},"":{"ha":772,"x_min":null,"x_max":null,"o":""},"":{"ha":309,"x_min":null,"x_max":null,"o":""},"":{"ha":772,"x_min":null,"x_max":null,"o":""},"":{"ha":309,"x_min":null,"x_max":null,"o":""},"":{"ha":772,"x_min":null,"x_max":null,"o":""},"":{"ha":405,"x_min":null,"x_max":null,"o":""},"":{"ha":772,"x_min":null,"x_max":null,"o":""},"":{"ha":464,"x_min":null,"x_max":null,"o":""},"":{"ha":772,"x_min":null,"x_max":null,"o":""},"":{"ha":309,"x_min":null,"x_max":null,"o":""},"":{"ha":1003,"x_min":null,"x_max":null,"o":""},"":{"ha":772,"x_min":null,"x_max":null,"o":""},"":{"ha":1003,"x_min":null,"x_max":null,"o":""},"":{"ha":772,"x_min":null,"x_max":null,"o":""},"":{"ha":1003,"x_min":null,"x_max":null,"o":""},"":{"ha":772,"x_min":null,"x_max":null,"o":""},"":{"ha":839,"x_min":null,"x_max":null,"o":""},"":{"ha":1004,"x_min":null,"x_max":null,"o":""},"":{"ha":772,"x_min":null,"x_max":null,"o":""},"":{"ha":1080,"x_min":null,"x_max":null,"o":""},"":{"ha":772,"x_min":null,"x_max":null,"o":""},"":{"ha":1080,"x_min":null,"x_max":null,"o":""},"":{"ha":772,"x_min":null,"x_max":null,"o":""},"":{"ha":1080,"x_min":null,"x_max":null,"o":""},"":{"ha":772,"x_min":null,"x_max":null,"o":""},"":{"ha":1386,"x_min":54,"x_max":1354,"o":"m 680 59 l 680 59 l 680 903 q 623 905 652 904 q 575 906 593 906 l 575 906 q 433 883 496 906 q 321 807 370 859 l 321 807 q 246 677 273 758 q 218 486 218 596 l 218 486 q 320 175 218 294 q 586 56 421 56 l 586 56 q 628 57 604 56 q 680 59 652 58 z m 825 471 l 825 182 q 831 114 825 140 q 854 76 837 88 l 854 76 q 903 59 873 63 q 989 56 933 56 l 989 56 q 1047 56 1012 56 q 1107 58 1083 56 l 1107 58 q 1159 68 1135 62 q 1196 87 1184 75 l 1196 87 q 1261 186 1227 120 q 1305 283 1295 252 l 1305 283 l 1354 283 l 1335 0 l 553 0 q 287 67 408 0 q 106 248 165 135 l 106 248 q 68 355 82 296 q 54 488 54 415 l 54 488 q 99 698 54 608 q 219 848 144 788 l 219 848 q 387 934 292 906 q 576 962 481 962 l 576 962 l 1281 962 l 1281 730 l 1230 730 q 1172 840 1217 781 q 1086 903 1126 898 l 1086 903 q 1036 907 1065 906 q 969 909 1006 909 l 969 909 l 825 909 l 825 526 l 926 526 q 1000 535 975 526 q 1045 569 1024 543 l 1045 569 q 1070 622 1060 589 q 1084 684 1081 654 l 1084 684 l 1135 684 l 1135 307 l 1084 307 q 1070 376 1082 340 q 1045 429 1058 412 l 1045 429 q 999 463 1025 454 q 926 471 972 471 l 926 471 l 825 471 z "},"":{"ha":1134,"x_min":47,"x_max":1106,"o":"m 1059 187 l 1106 158 q 998 28 1067 75 q 846 -18 929 -18 l 846 -18 q 705 17 769 -18 q 601 115 640 52 l 601 115 q 497 16 559 52 q 359 -20 436 -20 l 359 -20 q 242 4 298 -20 q 142 74 185 28 l 142 74 q 73 185 98 119 q 47 332 47 250 l 47 332 q 68 470 47 406 q 132 584 90 534 l 132 584 q 234 660 173 632 q 372 688 296 688 l 372 688 q 511 649 450 688 q 606 557 573 610 l 606 557 q 701 651 642 614 q 830 688 760 688 l 830 688 q 948 666 901 688 q 1028 605 996 644 l 1028 605 q 1074 515 1059 567 q 1089 404 1089 463 l 1089 404 l 1089 355 l 666 355 q 721 131 668 205 q 878 57 774 57 l 878 57 q 989 92 948 57 q 1059 187 1029 127 l 1059 187 z m 666 412 l 956 412 q 952 491 956 452 q 933 563 948 530 l 933 563 q 892 616 919 595 q 822 637 865 637 l 822 637 q 709 571 753 637 q 666 412 666 506 l 666 412 z m 534 332 l 534 332 q 527 446 534 389 q 501 544 519 503 l 501 544 q 449 611 482 586 q 366 637 416 637 l 366 637 q 279 610 313 637 q 224 540 245 583 l 224 540 q 196 446 204 499 q 187 342 187 393 l 187 342 q 198 219 187 275 q 229 122 208 163 l 229 122 q 284 55 250 79 q 366 31 317 31 l 366 31 q 490 105 446 31 q 534 332 534 179 z "},"":{"ha":1003,"x_min":null,"x_max":null,"o":""},"":{"ha":463,"x_min":null,"x_max":null,"o":""},"":{"ha":1003,"x_min":null,"x_max":null,"o":""},"":{"ha":463,"x_min":null,"x_max":null,"o":""},"":{"ha":1003,"x_min":null,"x_max":null,"o":""},"":{"ha":463,"x_min":null,"x_max":null,"o":""},"":{"ha":926,"x_min":null,"x_max":null,"o":""},"":{"ha":694,"x_min":null,"x_max":null,"o":""},"":{"ha":926,"x_min":null,"x_max":null,"o":""},"":{"ha":694,"x_min":null,"x_max":null,"o":""},"":{"ha":926,"x_min":null,"x_max":null,"o":""},"":{"ha":694,"x_min":null,"x_max":null,"o":""},"":{"ha":926,"x_min":null,"x_max":null,"o":""},"":{"ha":694,"x_min":null,"x_max":null,"o":""},"":{"ha":848,"x_min":null,"x_max":null,"o":""},"":{"ha":386,"x_min":null,"x_max":null,"o":""},"":{"ha":848,"x_min":null,"x_max":null,"o":""},"":{"ha":521,"x_min":null,"x_max":null,"o":""},"":{"ha":848,"x_min":null,"x_max":null,"o":""},"":{"ha":386,"x_min":null,"x_max":null,"o":""},"":{"ha":1003,"x_min":null,"x_max":null,"o":""},"":{"ha":772,"x_min":null,"x_max":null,"o":""},"":{"ha":1003,"x_min":null,"x_max":null,"o":""},"":{"ha":772,"x_min":null,"x_max":null,"o":""},"":{"ha":1003,"x_min":null,"x_max":null,"o":""},"":{"ha":772,"x_min":null,"x_max":null,"o":""},"":{"ha":1003,"x_min":null,"x_max":null,"o":""},"":{"ha":772,"x_min":null,"x_max":null,"o":""},"":{"ha":1003,"x_min":null,"x_max":null,"o":""},"":{"ha":772,"x_min":null,"x_max":null,"o":""},"":{"ha":1003,"x_min":null,"x_max":null,"o":""},"":{"ha":772,"x_min":null,"x_max":null,"o":""},"":{"ha":1311,"x_min":null,"x_max":null,"o":""},"":{"ha":1003,"x_min":null,"x_max":null,"o":""},"":{"ha":926,"x_min":null,"x_max":null,"o":""},"":{"ha":694,"x_min":null,"x_max":null,"o":""},"":{"ha":854,"x_min":-30,"x_max":686,"o":"m 509 962 l 509 914 q 488 905 503 913 q 467 888 473 897 l 467 888 q 446 863 452 872 q 425 817 440 854 l 425 817 q 367 666 393 743 q 302 471 341 589 l 302 471 q 282 401 287 428 q 277 325 277 375 l 277 325 l 277 141 q 283 99 277 117 q 303 70 289 81 l 303 70 q 333 57 311 64 q 367 48 354 49 l 367 48 l 367 0 l 104 0 l 104 48 q 137 53 115 50 q 168 63 159 57 l 168 63 q 188 91 182 73 q 193 134 193 109 l 193 134 l 193 368 q 185 408 193 379 q 167 472 178 437 l 167 472 q 114 642 143 551 q 64 799 85 734 l 64 799 q 40 857 50 838 q 17 892 30 877 l 17 892 q -6 907 7 902 q -30 914 -19 913 l -30 914 l -30 962 l 210 962 l 210 914 q 153 905 170 913 q 136 882 136 897 l 136 882 q 139 867 136 878 q 146 842 141 857 l 146 842 q 158 801 151 824 q 172 758 165 779 l 172 758 q 210 637 190 697 q 260 481 229 577 l 260 481 q 355 748 323 652 q 388 863 388 844 l 388 863 q 381 888 388 879 q 363 903 375 898 l 363 903 q 338 910 352 909 q 313 914 325 912 l 313 914 l 313 962 l 509 962 z m 686 1173 l 686 1173 q 663 1114 686 1139 q 606 1090 640 1090 l 606 1090 q 550 1114 573 1090 q 526 1173 526 1139 l 526 1173 q 550 1232 526 1208 q 606 1257 573 1257 l 606 1257 q 663 1232 640 1257 q 686 1173 686 1208 z m 381 1173 l 381 1173 q 358 1114 381 1139 q 301 1090 334 1090 l 301 1090 q 244 1114 268 1090 q 221 1173 221 1139 l 221 1173 q 244 1232 221 1208 q 301 1257 268 1257 l 301 1257 q 358 1232 334 1257 q 381 1173 381 1208 z "},"":{"ha":848,"x_min":null,"x_max":null,"o":""},"":{"ha":694,"x_min":null,"x_max":null,"o":""},"":{"ha":848,"x_min":null,"x_max":null,"o":""},"":{"ha":694,"x_min":null,"x_max":null,"o":""},"":{"ha":848,"x_min":null,"x_max":null,"o":""},"":{"ha":694,"x_min":null,"x_max":null,"o":""},"":{"ha":309,"x_min":null,"x_max":null,"o":""},"":{"ha":721,"x_min":-119,"x_max":715,"o":"m 715 789 l 715 789 q 698 738 715 757 q 649 718 682 718 l 649 718 q 588 746 616 718 q 532 837 560 774 l 532 837 q 441 766 475 828 q 391 569 406 704 l 391 569 l 381 487 l 555 487 l 555 422 l 375 422 q 361 282 368 351 q 343 149 353 214 l 343 149 q 292 -47 324 27 q 214 -168 259 -121 l 214 -168 q 123 -229 174 -208 q 18 -250 73 -250 l 18 -250 q -83 -223 -47 -250 q -119 -155 -119 -195 l -119 -155 q -102 -104 -119 -125 q -54 -84 -85 -84 l -54 -84 q 6 -111 -22 -84 q 64 -201 35 -137 l 64 -201 q 152 -127 119 -194 q 203 66 184 -61 l 203 66 q 229 260 219 174 q 245 422 238 347 l 245 422 l 107 422 l 107 487 l 252 487 q 295 675 264 601 q 380 805 326 749 l 380 805 q 469 866 419 846 q 578 886 518 886 l 578 886 q 678 858 642 886 q 715 789 715 830 z "},"":{"ha":926,"x_min":null,"x_max":null,"o":""},"":{"ha":772,"x_min":null,"x_max":null,"o":""},"":{"ha":1389,"x_min":null,"x_max":null,"o":""},"":{"ha":1235,"x_min":null,"x_max":null,"o":""},"":{"ha":1080,"x_min":null,"x_max":null,"o":""},"":{"ha":848,"x_min":null,"x_max":null,"o":""},"":{"ha":463,"x_min":null,"x_max":null,"o":""},"":{"ha":463,"x_min":null,"x_max":null,"o":""},"":{"ha":1042,"x_min":174,"x_max":868,"o":"m 868 0 l 174 0 l 174 868 l 868 868 l 868 0 z m 195 846 l 195 22 l 846 22 l 846 846 l 195 846 z "},"":{"ha":463,"x_min":null,"x_max":null,"o":""},"":{"ha":463,"x_min":null,"x_max":null,"o":""},"":{"ha":463,"x_min":null,"x_max":null,"o":""},"":{"ha":463,"x_min":null,"x_max":null,"o":""},"":{"ha":463,"x_min":null,"x_max":null,"o":""},"":{"ha":463,"x_min":null,"x_max":null,"o":""},"":{"ha":463,"x_min":null,"x_max":null,"o":""},"":{"ha":463,"x_min":null,"x_max":null,"o":""},"":{"ha":463,"x_min":null,"x_max":null,"o":""},"":{"ha":927,"x_min":null,"x_max":null,"o":""},"":{"ha":386,"x_min":null,"x_max":null,"o":""},"":{"ha":1089,"x_min":null,"x_max":null,"o":""},"":{"ha":1164,"x_min":null,"x_max":null,"o":""},"":{"ha":533,"x_min":null,"x_max":null,"o":""},"":{"ha":1076,"x_min":null,"x_max":null,"o":""},"":{"ha":1188,"x_min":null,"x_max":null,"o":""},"":{"ha":1045,"x_min":null,"x_max":null,"o":""},"":{"ha":309,"x_min":null,"x_max":null,"o":""},"":{"ha":926,"x_min":null,"x_max":null,"o":""},"":{"ha":926,"x_min":null,"x_max":null,"o":""},"":{"ha":765,"x_min":null,"x_max":null,"o":""},"":{"ha":928,"x_min":null,"x_max":null,"o":""},"":{"ha":926,"x_min":null,"x_max":null,"o":""},"":{"ha":848,"x_min":null,"x_max":null,"o":""},"":{"ha":1003,"x_min":null,"x_max":null,"o":""},"":{"ha":1080,"x_min":null,"x_max":null,"o":""},"":{"ha":386,"x_min":null,"x_max":null,"o":""},"":{"ha":926,"x_min":null,"x_max":null,"o":""},"":{"ha":928,"x_min":null,"x_max":null,"o":""},"":{"ha":1157,"x_min":null,"x_max":null,"o":""},"":{"ha":1003,"x_min":null,"x_max":null,"o":""},"":{"ha":903,"x_min":null,"x_max":null,"o":""},"":{"ha":1080,"x_min":null,"x_max":null,"o":""},"":{"ha":1003,"x_min":null,"x_max":null,"o":""},"":{"ha":926,"x_min":null,"x_max":null,"o":""},"":{"ha":859,"x_min":null,"x_max":null,"o":""},"":{"ha":848,"x_min":null,"x_max":null,"o":""},"":{"ha":926,"x_min":null,"x_max":null,"o":""},"":{"ha":1108,"x_min":null,"x_max":null,"o":""},"":{"ha":926,"x_min":null,"x_max":null,"o":""},"":{"ha":1160,"x_min":null,"x_max":null,"o":""},"":{"ha":1038,"x_min":null,"x_max":null,"o":""},"":{"ha":386,"x_min":null,"x_max":null,"o":""},"":{"ha":926,"x_min":null,"x_max":null,"o":""},"":{"ha":803,"x_min":null,"x_max":null,"o":""},"":{"ha":619,"x_min":null,"x_max":null,"o":""},"":{"ha":772,"x_min":null,"x_max":null,"o":""},"":{"ha":309,"x_min":null,"x_max":null,"o":""},"":{"ha":760,"x_min":null,"x_max":null,"o":""},"":{"ha":803,"x_min":null,"x_max":null,"o":""},"":{"ha":799,"x_min":null,"x_max":null,"o":""},"":{"ha":694,"x_min":null,"x_max":null,"o":""},"":{"ha":773,"x_min":null,"x_max":null,"o":""},"":{"ha":619,"x_min":null,"x_max":null,"o":""},"":{"ha":612,"x_min":null,"x_max":null,"o":""},"":{"ha":772,"x_min":null,"x_max":null,"o":""},"":{"ha":772,"x_min":null,"x_max":null,"o":""},"":{"ha":309,"x_min":null,"x_max":null,"o":""},"":{"ha":694,"x_min":null,"x_max":null,"o":""},"":{"ha":694,"x_min":null,"x_max":null,"o":""},"":{"ha":800,"x_min":null,"x_max":null,"o":""},"":{"ha":694,"x_min":null,"x_max":null,"o":""},"":{"ha":622,"x_min":null,"x_max":null,"o":""},"":{"ha":772,"x_min":null,"x_max":null,"o":""},"":{"ha":958,"x_min":null,"x_max":null,"o":""},"":{"ha":790,"x_min":null,"x_max":null,"o":""},"":{"ha":669,"x_min":null,"x_max":null,"o":""},"":{"ha":857,"x_min":null,"x_max":null,"o":""},"":{"ha":549,"x_min":null,"x_max":null,"o":""},"":{"ha":760,"x_min":null,"x_max":null,"o":""},"":{"ha":901,"x_min":null,"x_max":null,"o":""},"":{"ha":729,"x_min":null,"x_max":null,"o":""},"":{"ha":990,"x_min":null,"x_max":null,"o":""},"":{"ha":1084,"x_min":null,"x_max":null,"o":""},"":{"ha":309,"x_min":null,"x_max":null,"o":""},"":{"ha":760,"x_min":null,"x_max":null,"o":""},"":{"ha":772,"x_min":null,"x_max":null,"o":""},"":{"ha":760,"x_min":null,"x_max":null,"o":""},"":{"ha":1084,"x_min":null,"x_max":null,"o":""},"":{"ha":927,"x_min":null,"x_max":null,"o":""},"":{"ha":1201,"x_min":null,"x_max":null,"o":""},"":{"ha":752,"x_min":null,"x_max":null,"o":""},"":{"ha":998,"x_min":null,"x_max":null,"o":""},"":{"ha":926,"x_min":null,"x_max":null,"o":""},"":{"ha":386,"x_min":null,"x_max":null,"o":""},"":{"ha":386,"x_min":null,"x_max":null,"o":""},"":{"ha":694,"x_min":null,"x_max":null,"o":""},"":{"ha":1468,"x_min":null,"x_max":null,"o":""},"":{"ha":1403,"x_min":null,"x_max":null,"o":""},"":{"ha":1186,"x_min":null,"x_max":null,"o":""},"":{"ha":809,"x_min":null,"x_max":null,"o":""},"":{"ha":882,"x_min":null,"x_max":null,"o":""},"":{"ha":998,"x_min":null,"x_max":null,"o":""},"":{"ha":926,"x_min":null,"x_max":null,"o":""},"":{"ha":911,"x_min":null,"x_max":null,"o":""},"":{"ha":926,"x_min":null,"x_max":null,"o":""},"":{"ha":752,"x_min":null,"x_max":null,"o":""},"":{"ha":941,"x_min":null,"x_max":null,"o":""},"":{"ha":926,"x_min":null,"x_max":null,"o":""},"":{"ha":1282,"x_min":null,"x_max":null,"o":""},"":{"ha":839,"x_min":null,"x_max":null,"o":""},"":{"ha":998,"x_min":null,"x_max":null,"o":""},"":{"ha":998,"x_min":null,"x_max":null,"o":""},"":{"ha":809,"x_min":null,"x_max":null,"o":""},"":{"ha":911,"x_min":null,"x_max":null,"o":""},"":{"ha":1157,"x_min":null,"x_max":null,"o":""},"":{"ha":1003,"x_min":null,"x_max":null,"o":""},"":{"ha":1080,"x_min":null,"x_max":null,"o":""},"":{"ha":998,"x_min":null,"x_max":null,"o":""},"":{"ha":926,"x_min":null,"x_max":null,"o":""},"":{"ha":1003,"x_min":null,"x_max":null,"o":""},"":{"ha":848,"x_min":null,"x_max":null,"o":""},"":{"ha":882,"x_min":null,"x_max":null,"o":""},"":{"ha":1056,"x_min":null,"x_max":null,"o":""},"":{"ha":926,"x_min":null,"x_max":null,"o":""},"":{"ha":1027,"x_min":null,"x_max":null,"o":""},"":{"ha":926,"x_min":null,"x_max":null,"o":""},"":{"ha":1273,"x_min":null,"x_max":null,"o":""},"":{"ha":1302,"x_min":null,"x_max":null,"o":""},"":{"ha":1099,"x_min":null,"x_max":null,"o":""},"":{"ha":1230,"x_min":null,"x_max":null,"o":""},"":{"ha":911,"x_min":null,"x_max":null,"o":""},"":{"ha":998,"x_min":null,"x_max":null,"o":""},"":{"ha":1403,"x_min":null,"x_max":null,"o":""},"":{"ha":1003,"x_min":null,"x_max":null,"o":""},"":{"ha":772,"x_min":null,"x_max":null,"o":""},"":{"ha":795,"x_min":null,"x_max":null,"o":""},"":{"ha":738,"x_min":null,"x_max":null,"o":""},"":{"ha":507,"x_min":null,"x_max":null,"o":""},"":{"ha":810,"x_min":null,"x_max":null,"o":""},"":{"ha":772,"x_min":null,"x_max":null,"o":""},"":{"ha":929,"x_min":null,"x_max":null,"o":""},"":{"ha":637,"x_min":null,"x_max":null,"o":""},"":{"ha":776,"x_min":null,"x_max":null,"o":""},"":{"ha":776,"x_min":null,"x_max":null,"o":""},"":{"ha":608,"x_min":null,"x_max":null,"o":""},"":{"ha":810,"x_min":null,"x_max":null,"o":""},"":{"ha":955,"x_min":null,"x_max":null,"o":""},"":{"ha":767,"x_min":null,"x_max":null,"o":""},"":{"ha":772,"x_min":null,"x_max":null,"o":""},"":{"ha":752,"x_min":null,"x_max":null,"o":""},"":{"ha":772,"x_min":null,"x_max":null,"o":""},"":{"ha":694,"x_min":null,"x_max":null,"o":""},"":{"ha":636,"x_min":null,"x_max":null,"o":""},"":{"ha":694,"x_min":null,"x_max":null,"o":""},"":{"ha":1143,"x_min":null,"x_max":null,"o":""},"":{"ha":694,"x_min":null,"x_max":null,"o":""},"":{"ha":795,"x_min":null,"x_max":null,"o":""},"":{"ha":724,"x_min":null,"x_max":null,"o":""},"":{"ha":1114,"x_min":null,"x_max":null,"o":""},"":{"ha":1143,"x_min":null,"x_max":null,"o":""},"":{"ha":868,"x_min":null,"x_max":null,"o":""},"":{"ha":998,"x_min":null,"x_max":null,"o":""},"":{"ha":724,"x_min":null,"x_max":null,"o":""},"":{"ha":709,"x_min":null,"x_max":null,"o":""},"":{"ha":1042,"x_min":null,"x_max":null,"o":""},"":{"ha":752,"x_min":null,"x_max":null,"o":""},"":{"ha":772,"x_min":null,"x_max":null,"o":""},"":{"ha":772,"x_min":null,"x_max":null,"o":""},"":{"ha":507,"x_min":null,"x_max":null,"o":""},"":{"ha":709,"x_min":null,"x_max":null,"o":""},"":{"ha":694,"x_min":null,"x_max":null,"o":""},"":{"ha":309,"x_min":null,"x_max":null,"o":""},"":{"ha":386,"x_min":null,"x_max":null,"o":""},"":{"ha":309,"x_min":null,"x_max":null,"o":""},"":{"ha":1259,"x_min":null,"x_max":null,"o":""},"":{"ha":1128,"x_min":null,"x_max":null,"o":""},"":{"ha":772,"x_min":null,"x_max":null,"o":""},"":{"ha":608,"x_min":null,"x_max":null,"o":""},"":{"ha":694,"x_min":null,"x_max":null,"o":""},"":{"ha":767,"x_min":null,"x_max":null,"o":""},"":{"ha":679,"x_min":null,"x_max":null,"o":""},"":{"ha":571,"x_min":null,"x_max":null,"o":""},"":{"ha":1311,"x_min":null,"x_max":null,"o":""},"":{"ha":1003,"x_min":null,"x_max":null,"o":""},"":{"ha":1311,"x_min":null,"x_max":null,"o":""},"":{"ha":1003,"x_min":null,"x_max":null,"o":""},"":{"ha":1311,"x_min":null,"x_max":null,"o":""},"":{"ha":1003,"x_min":null,"x_max":null,"o":""},"":{"ha":926,"x_min":null,"x_max":null,"o":""},"":{"ha":694,"x_min":null,"x_max":null,"o":""},"":{"ha":893,"x_min":69,"x_max":824,"o":"m 824 422 l 824 337 l 69 337 l 69 422 l 824 422 z "},"":{"ha":1190,"x_min":69,"x_max":1121,"o":"m 1121 422 l 1121 337 l 69 337 l 69 422 l 1121 422 z "},"":{"ha":1389,"x_min":null,"x_max":null,"o":""},"":{"ha":767,"x_min":null,"x_max":null,"o":""},"":{"ha":315,"x_min":52,"x_max":252,"o":"m 228 1035 l 252 994 q 201 963 220 976 q 161 928 181 949 l 161 928 q 132 885 142 908 q 117 827 121 863 l 117 827 l 150 827 q 216 807 192 827 q 240 746 240 786 l 240 746 q 219 693 240 718 q 160 668 197 668 l 160 668 q 77 706 102 668 q 52 807 52 745 l 52 807 q 71 887 52 851 q 117 952 90 924 l 117 952 q 176 1002 144 981 q 228 1035 207 1022 l 228 1035 z "},"":{"ha":315,"x_min":62,"x_max":263,"o":"m 263 899 l 263 899 q 244 817 263 854 q 197 753 224 780 l 197 753 q 138 703 170 725 q 85 671 105 681 l 85 671 l 62 711 q 116 744 90 727 q 155 777 141 762 l 155 777 q 184 820 173 798 q 197 878 195 842 l 197 878 l 165 878 q 98 899 122 878 q 75 960 75 921 l 75 960 q 96 1012 75 987 q 155 1037 118 1037 l 155 1037 q 238 999 213 1037 q 263 899 263 960 z "},"":{"ha":315,"x_min":62,"x_max":263,"o":"m 263 22 l 263 22 q 244 -59 263 -22 q 197 -123 224 -96 l 197 -123 q 138 -173 170 -151 q 85 -205 105 -195 l 85 -205 l 62 -165 q 116 -132 90 -149 q 155 -99 141 -115 l 155 -99 q 184 -57 173 -79 q 197 1 195 -35 l 197 1 l 165 1 q 98 23 122 1 q 75 83 75 45 l 75 83 q 96 136 75 111 q 155 161 118 161 l 155 161 q 238 122 213 161 q 263 22 263 84 z "},"":{"ha":309,"x_min":null,"x_max":null,"o":""},"":{"ha":570,"x_min":54,"x_max":505,"o":"m 230 1035 l 254 994 q 203 963 222 976 q 163 928 183 949 l 163 928 q 134 885 144 907 q 119 827 123 863 l 119 827 l 152 827 q 218 807 194 827 q 242 746 242 786 l 242 746 q 221 693 242 718 q 162 668 199 668 l 162 668 q 79 706 104 668 q 54 807 54 745 l 54 807 q 73 887 54 851 q 119 952 92 924 l 119 952 q 178 1002 146 981 q 230 1035 209 1022 l 230 1035 z m 481 1035 l 505 994 q 454 963 473 976 q 414 928 434 949 l 414 928 q 384 885 394 907 q 370 827 374 863 l 370 827 l 403 827 q 469 807 445 827 q 493 746 493 786 l 493 746 q 472 693 493 718 q 413 668 450 668 l 413 668 q 330 706 355 668 q 304 807 304 745 l 304 807 q 323 887 304 851 q 370 952 342 924 l 370 952 q 429 1002 397 981 q 481 1035 460 1022 l 481 1035 z "},"":{"ha":570,"x_min":64,"x_max":516,"o":"m 265 899 l 265 899 q 245 817 265 854 q 199 753 226 780 l 199 753 q 140 703 172 725 q 87 671 107 681 l 87 671 l 64 711 q 118 744 92 727 q 157 777 143 762 l 157 777 q 186 820 175 798 q 199 878 197 842 l 199 878 l 167 878 q 100 899 124 878 q 77 960 77 921 l 77 960 q 98 1012 77 987 q 157 1037 120 1037 l 157 1037 q 240 999 215 1037 q 265 899 265 960 z m 516 899 l 516 899 q 496 817 516 854 q 450 753 477 780 l 450 753 q 391 703 423 725 q 338 671 358 681 l 338 671 l 315 711 q 369 744 343 727 q 408 777 394 762 l 408 777 q 437 820 426 798 q 450 878 448 842 l 450 878 l 418 878 q 351 899 375 878 q 328 960 328 921 l 328 960 q 349 1012 328 987 q 408 1037 371 1037 l 408 1037 q 491 999 466 1037 q 516 899 516 960 z "},"":{"ha":570,"x_min":64,"x_max":516,"o":"m 265 22 l 265 22 q 245 -59 265 -22 q 199 -123 226 -96 l 199 -123 q 140 -173 172 -151 q 87 -205 107 -195 l 87 -205 l 64 -165 q 118 -132 92 -149 q 157 -99 143 -115 l 157 -99 q 186 -57 175 -79 q 199 1 197 -35 l 199 1 l 167 1 q 100 23 124 1 q 77 83 77 45 l 77 83 q 98 136 77 111 q 157 161 120 161 l 157 161 q 240 122 215 161 q 265 22 265 84 z m 516 22 l 516 22 q 496 -59 516 -22 q 450 -123 477 -96 l 450 -123 q 391 -173 423 -151 q 338 -205 358 -195 l 338 -205 l 315 -165 q 369 -132 343 -149 q 408 -99 394 -115 l 408 -99 q 437 -57 426 -79 q 450 1 448 -35 l 450 1 l 418 1 q 351 23 375 1 q 328 83 328 45 l 328 83 q 349 136 328 111 q 408 161 371 161 l 408 161 q 491 122 466 161 q 516 22 516 84 z "},"":{"ha":656,"x_min":69,"x_max":586,"o":"m 586 724 l 586 724 q 572 689 586 701 q 535 676 557 676 l 535 676 q 462 689 518 676 q 345 709 406 703 l 345 709 q 366 381 355 542 q 377 199 377 220 l 377 199 q 366 163 377 177 q 329 149 355 149 l 329 149 q 293 163 306 149 q 281 199 281 177 l 281 199 q 288 329 281 214 q 311 709 296 443 l 311 709 q 191 689 244 703 q 120 676 138 676 l 120 676 q 83 688 98 676 q 69 724 69 701 l 69 724 q 83 761 69 749 q 120 772 98 772 l 120 772 q 194 758 140 772 q 311 736 247 743 l 311 736 q 291 864 302 809 q 279 936 279 919 l 279 936 q 292 972 279 958 q 329 987 305 987 l 329 987 q 366 972 354 987 q 378 936 378 958 l 378 936 q 365 861 378 918 q 345 736 352 804 l 345 736 q 468 759 418 745 q 535 772 517 772 l 535 772 q 572 761 557 772 q 586 724 586 750 z "},"":{"ha":656,"x_min":69,"x_max":586,"o":"m 586 404 l 586 404 q 572 368 586 379 q 535 356 557 356 l 535 356 q 462 371 518 356 q 345 392 406 385 l 345 392 q 365 268 351 325 q 378 193 378 211 l 378 193 q 367 156 378 170 q 329 142 355 142 l 329 142 q 293 156 306 142 q 279 193 279 170 l 279 193 q 291 263 279 214 q 311 392 302 313 l 311 392 q 186 369 235 382 q 120 356 138 356 l 120 356 q 83 367 98 356 q 69 404 69 378 l 69 404 q 83 440 69 427 q 120 452 98 452 l 120 452 q 188 440 140 452 q 311 419 235 427 l 311 419 q 301 487 308 456 q 292 553 294 518 l 292 553 l 292 575 q 301 642 294 610 q 311 709 309 673 l 311 709 q 191 689 244 703 q 120 676 138 676 l 120 676 q 83 688 98 676 q 69 724 69 701 l 69 724 q 83 761 69 749 q 120 772 98 772 l 120 772 q 185 759 138 772 q 311 736 233 746 l 311 736 q 291 864 302 809 q 279 936 279 919 l 279 936 q 292 972 279 958 q 329 987 305 987 l 329 987 q 366 972 354 987 q 378 936 378 958 l 378 936 q 365 861 378 918 q 345 736 352 804 l 345 736 q 468 759 418 745 q 535 772 517 772 l 535 772 q 572 761 557 772 q 586 724 586 750 l 586 724 q 572 689 586 701 q 535 676 557 676 l 535 676 q 462 689 518 676 q 345 709 406 703 l 345 709 q 354 641 347 673 q 363 575 361 610 l 363 575 l 363 553 q 354 487 361 518 q 345 419 347 456 l 345 419 q 468 440 418 427 q 535 452 517 452 l 535 452 q 572 440 557 452 q 586 404 586 428 z "},"":{"ha":545,"x_min":94,"x_max":452,"o":"m 452 406 l 452 406 q 399 280 452 332 q 273 227 347 227 l 273 227 q 146 280 199 227 q 94 406 94 332 l 94 406 q 146 533 94 480 q 273 585 199 585 l 273 585 q 399 533 347 585 q 452 406 452 480 z "},"":{"ha":1121,"x_min":100,"x_max":1025,"o":"m 1025 74 l 1025 74 q 999 12 1025 38 q 937 -14 972 -14 l 937 -14 q 874 12 901 -14 q 848 74 848 38 l 848 74 q 874 136 848 110 q 937 163 900 163 l 937 163 q 999 136 973 163 q 1025 74 1025 110 z m 652 74 l 652 74 q 625 12 652 37 q 563 -14 598 -14 l 563 -14 q 500 12 527 -14 q 474 74 474 38 l 474 74 q 500 136 474 110 q 563 163 526 163 l 563 163 q 625 136 599 163 q 652 74 652 110 z m 278 74 l 278 74 q 251 12 278 37 q 189 -14 224 -14 l 189 -14 q 127 12 153 -14 q 100 74 100 38 l 100 74 q 126 136 100 110 q 189 163 153 163 l 189 163 q 252 136 225 163 q 278 74 278 110 z "},"":{"ha":1389,"x_min":null,"x_max":null,"o":""},"":{"ha":260,"x_min":null,"x_max":null,"o":""},"":{"ha":492,"x_min":null,"x_max":null,"o":""},"":{"ha":576,"x_min":119,"x_max":435,"o":"m 252 359 l 435 109 l 401 81 l 147 307 q 130 325 140 313 q 119 358 119 338 l 119 358 q 129 391 119 378 q 149 412 140 404 l 149 412 l 401 635 l 435 608 l 252 359 z "},"":{"ha":576,"x_min":142,"x_max":458,"o":"m 458 358 l 458 358 q 447 324 458 336 q 429 307 435 312 l 429 307 l 175 81 l 142 109 l 324 359 l 142 608 l 175 635 l 427 412 q 446 391 435 406 q 458 358 458 375 z "},"":{"ha":694,"x_min":null,"x_max":null,"o":""},"":{"ha":463,"x_min":null,"x_max":null,"o":""},"":{"ha":113,"x_min":-241,"x_max":352,"o":"m 259 962 l 352 962 l -149 0 l -241 0 l 259 962 z "},"":{"ha":507,"x_min":null,"x_max":null,"o":""},"":{"ha":772,"x_min":null,"x_max":null,"o":""},"":{"ha":772,"x_min":null,"x_max":null,"o":""},"":{"ha":1519,"x_min":null,"x_max":null,"o":""},"":{"ha":793,"x_min":113,"x_max":682,"o":"m 555 281 l 682 155 l 623 96 l 496 220 q 449 200 475 208 q 397 192 424 192 l 397 192 q 346 200 372 192 q 299 220 319 208 l 299 220 l 171 94 l 113 155 l 238 281 q 217 329 224 302 q 210 379 210 355 l 210 379 q 217 431 210 408 q 238 477 224 454 l 238 477 l 113 605 l 173 663 l 299 538 q 346 558 316 549 q 397 566 376 566 l 397 566 q 450 558 424 566 q 495 538 476 550 l 495 538 l 621 663 l 682 606 l 555 477 q 577 430 569 456 q 585 379 585 404 l 585 379 q 576 326 585 353 q 555 281 568 300 l 555 281 z m 507 379 l 507 379 q 474 458 507 425 q 397 491 442 491 l 397 491 q 319 458 351 491 q 287 379 287 426 l 287 379 q 319 300 287 334 q 397 267 351 267 l 397 267 q 474 300 442 267 q 507 379 507 332 z "},"":{"ha":1230,"x_min":null,"x_max":null,"o":""},"":{"ha":449,"x_min":null,"x_max":null,"o":""},"":{"ha":1490,"x_min":null,"x_max":null,"o":""},"":{"ha":1309,"x_min":66,"x_max":1259,"o":"m 1259 532 l 1259 497 l 1024 497 l 1024 532 q 1055 534 1035 532 q 1082 539 1075 536 l 1082 539 q 1097 551 1093 547 q 1101 566 1101 556 l 1101 566 l 1101 872 l 1090 872 l 925 512 l 903 512 l 743 879 l 732 879 l 732 632 q 737 577 732 596 q 752 549 741 559 l 752 549 q 782 538 761 544 q 819 532 803 532 l 819 532 l 819 497 l 605 497 l 605 531 q 637 536 616 533 q 669 547 659 539 l 669 547 q 685 571 681 555 q 689 629 689 587 l 689 629 l 689 865 q 684 892 689 881 q 669 911 679 903 l 669 911 q 644 923 659 919 q 609 928 629 926 l 609 928 l 609 962 l 798 962 l 941 642 l 1060 905 q 1071 937 1067 922 q 1077 962 1075 952 l 1077 962 l 1259 962 l 1259 928 q 1229 924 1247 927 q 1204 919 1211 922 l 1204 919 q 1191 909 1194 917 q 1188 895 1188 902 l 1188 895 l 1188 566 q 1191 551 1188 557 q 1204 541 1194 545 l 1204 541 q 1227 535 1211 538 q 1259 532 1244 532 l 1259 532 z m 526 962 l 526 828 l 494 828 q 466 884 487 850 q 426 922 446 918 l 426 922 q 397 924 411 923 q 373 924 382 924 l 373 924 l 340 924 l 340 569 q 343 553 340 559 q 357 542 346 547 l 357 542 q 382 536 363 540 q 416 532 400 532 l 416 532 l 416 497 l 176 497 l 176 532 q 210 535 190 532 q 235 539 229 537 l 235 539 q 249 550 245 543 q 252 565 252 557 l 252 565 l 252 924 l 219 924 q 192 923 209 924 q 166 922 175 922 l 166 922 q 125 884 145 918 q 98 828 105 850 l 98 828 l 66 828 l 66 962 l 526 962 z "},"":{"ha":1082,"x_min":4,"x_max":1080,"o":"m 747 144 l 747 121 l 898 121 q 981 166 945 121 q 1038 263 1017 212 l 1038 263 l 1080 248 l 1001 0 l 619 0 l 619 46 q 701 166 661 105 q 764 278 741 227 l 764 278 q 806 394 792 338 q 819 530 819 450 l 819 530 q 807 660 819 586 q 768 789 795 734 l 768 789 q 674 892 730 859 q 542 925 618 925 l 542 925 q 407 889 464 925 q 317 788 351 853 l 317 788 q 277 665 290 734 q 265 530 265 595 l 265 530 q 279 398 265 458 q 321 277 292 338 l 321 277 q 380 171 347 221 q 465 46 413 120 l 465 46 l 465 0 l 83 0 l 4 248 l 46 263 q 70 215 56 239 q 101 170 83 191 l 101 170 q 139 135 119 148 q 186 121 159 121 l 186 121 l 338 121 l 338 144 q 242 255 289 199 q 168 360 196 311 l 168 360 q 119 473 136 414 q 102 606 102 532 l 102 606 q 230 875 102 764 q 542 985 359 985 l 542 985 q 854 875 725 985 q 983 606 983 764 l 983 606 q 965 473 983 534 q 918 360 948 412 l 918 360 q 843 255 886 307 q 747 144 800 202 l 747 144 z "},"":{"ha":833,"x_min":null,"x_max":null,"o":""},"":{"ha":1158,"x_min":null,"x_max":null,"o":""},"":{"ha":1158,"x_min":null,"x_max":null,"o":""},"":{"ha":1158,"x_min":null,"x_max":null,"o":""},"":{"ha":1158,"x_min":null,"x_max":null,"o":""},"":{"ha":1389,"x_min":null,"x_max":null,"o":""},"":{"ha":694,"x_min":null,"x_max":null,"o":""},"":{"ha":1389,"x_min":null,"x_max":null,"o":""},"":{"ha":694,"x_min":null,"x_max":null,"o":""},"":{"ha":1389,"x_min":null,"x_max":null,"o":""},"":{"ha":694,"x_min":null,"x_max":null,"o":""},"":{"ha":694,"x_min":null,"x_max":null,"o":""},"":{"ha":800,"x_min":59,"x_max":735,"o":"m 494 161 l 494 161 q 544 276 522 212 q 572 386 565 341 l 572 386 q 562 443 570 416 q 532 492 553 469 l 532 492 q 485 527 513 514 q 416 540 456 540 l 416 540 q 260 444 328 540 q 192 220 192 348 l 192 220 q 198 148 192 180 q 219 89 203 116 l 219 89 q 259 48 234 63 q 322 33 285 33 l 322 33 q 419 69 375 33 q 494 161 463 106 z m 311 901 l 311 901 q 314 868 312 888 q 317 827 317 848 l 317 827 q 299 769 316 791 q 239 747 283 747 l 239 747 q 185 769 203 747 q 168 821 168 791 l 168 821 q 184 876 168 847 q 230 928 201 905 l 230 928 q 308 971 260 954 q 416 987 356 987 l 416 987 q 561 956 501 987 q 661 872 621 925 l 661 872 q 717 751 699 819 q 735 609 735 684 l 735 609 q 711 404 735 516 q 636 202 686 292 l 636 202 q 493 34 573 89 q 321 -22 414 -22 l 321 -22 q 127 56 196 -22 q 59 261 59 134 l 59 261 q 156 511 59 402 q 372 619 254 619 l 372 619 q 509 588 455 619 q 593 496 563 556 l 593 496 q 598 555 597 526 q 600 623 600 585 l 600 623 q 591 742 600 682 q 562 842 581 802 l 562 842 q 505 909 541 885 q 415 934 469 934 l 415 934 q 353 924 378 934 q 311 901 328 913 z "},"":{"ha":928,"x_min":13,"x_max":916,"o":"m 916 34 l 916 0 l 13 0 l 13 34 l 451 976 l 504 976 l 916 34 z m 121 117 l 724 117 l 430 791 l 121 117 z "},"":{"ha":1159,"x_min":66,"x_max":1096,"o":"m 66 962 l 1096 962 l 1096 901 l 957 901 l 957 -145 q 965 -185 957 -169 q 996 -214 972 -201 l 996 -214 q 1037 -226 1007 -220 q 1083 -233 1066 -232 l 1083 -233 l 1083 -281 l 684 -281 l 684 -233 q 731 -229 700 -231 q 773 -220 762 -226 l 773 -220 q 803 -196 793 -212 q 812 -153 812 -179 l 812 -153 l 812 901 l 347 901 l 347 -145 q 354 -185 347 -169 q 385 -214 362 -201 l 385 -214 q 426 -226 397 -220 q 473 -233 456 -232 l 473 -233 l 473 -281 l 73 -281 l 73 -233 q 120 -229 90 -231 q 163 -220 151 -226 l 163 -220 q 193 -196 183 -212 q 202 -153 202 -179 l 202 -153 l 202 901 l 66 901 l 66 962 z "},"":{"ha":979,"x_min":14,"x_max":939,"o":"m 22 932 l 22 962 l 829 962 l 859 690 l 811 690 q 726 828 781 764 q 626 902 671 892 l 626 902 q 573 907 606 906 q 507 909 541 909 l 507 909 l 212 909 l 606 393 l 606 374 l 159 -159 l 699 -159 q 766 -142 735 -159 q 819 -98 796 -125 l 819 -98 q 863 -34 844 -69 q 894 31 882 1 l 894 31 l 939 17 l 859 -281 l 14 -281 l 14 -248 l 486 321 l 22 932 z "},"":{"ha":811,"x_min":null,"x_max":null,"o":""},"":{"ha":929,"x_min":29,"x_max":970,"o":"m 890 1156 l 970 1156 l 459 -85 l 414 -85 l 154 549 l 29 549 l 29 612 l 273 612 l 469 122 l 890 1156 z "},"":{"ha":996,"x_min":52,"x_max":944,"o":"m 944 382 l 944 382 q 876 181 944 263 q 713 100 808 100 l 713 100 q 591 141 647 100 q 490 263 536 182 l 490 263 q 398 140 452 180 q 281 100 344 100 l 281 100 q 116 178 180 100 q 52 382 52 256 l 52 382 q 120 585 52 505 q 282 665 189 665 l 282 665 q 403 625 348 665 q 505 501 458 585 l 505 501 q 596 623 541 582 q 715 664 650 664 l 715 664 q 880 586 817 664 q 944 382 944 508 z m 886 380 l 886 380 q 841 501 886 456 q 722 546 795 546 l 722 546 q 604 524 654 546 q 529 457 555 501 l 529 457 q 627 276 582 332 q 742 220 672 220 l 742 220 q 847 266 809 220 q 886 380 886 311 z m 467 307 l 467 307 q 367 490 413 435 q 254 544 321 544 l 254 544 q 148 498 186 544 q 110 385 110 453 l 110 385 q 155 263 110 309 q 273 218 201 218 l 273 218 q 391 241 339 218 q 467 307 442 264 z "},"":{"ha":1360,"x_min":null,"x_max":null,"o":""},"":{"ha":998,"x_min":null,"x_max":null,"o":""},"":{"ha":694,"x_min":14,"x_max":680,"o":"m 285 16 l 285 648 q 302 836 285 757 q 360 964 319 916 l 360 964 q 440 1027 393 1003 q 532 1050 488 1050 l 532 1050 q 602 1039 574 1050 q 646 1013 629 1028 l 646 1013 q 672 978 664 996 q 680 940 680 959 l 680 940 q 664 896 680 913 q 617 878 648 878 l 617 878 q 552 912 568 878 q 535 998 535 947 l 535 998 q 529 999 531 999 q 526 1000 528 1000 l 526 1000 q 522 1001 525 1001 q 513 1001 518 1001 l 513 1001 q 461 979 481 1001 q 429 920 441 958 l 429 920 q 413 833 417 884 q 409 737 409 783 l 409 737 l 409 102 q 394 -82 409 -1 q 334 -214 378 -162 l 334 -214 q 253 -279 298 -256 q 162 -301 209 -301 l 162 -301 q 94 -291 121 -301 q 48 -264 66 -281 l 48 -264 q 22 -229 31 -248 q 14 -191 14 -210 l 14 -191 q 29 -148 14 -167 q 77 -128 45 -128 l 77 -128 q 140 -160 121 -128 q 159 -249 159 -192 l 159 -249 q 164 -250 162 -250 q 168 -251 167 -251 l 168 -251 q 172 -251 170 -251 q 181 -252 174 -252 l 181 -252 q 234 -229 214 -252 q 265 -171 255 -206 l 265 -171 q 281 -88 277 -132 q 285 16 285 -43 l 285 16 z "},"":{"ha":893,"x_min":102,"x_max":791,"o":"m 740 378 l 791 357 q 759 292 779 323 q 713 235 739 260 l 713 235 q 648 186 682 205 q 568 168 614 168 l 568 168 q 483 181 522 168 q 411 209 444 193 l 411 209 q 346 236 382 222 q 281 250 309 250 l 281 250 q 207 220 233 250 q 153 138 181 190 l 153 138 l 102 159 q 132 219 113 187 q 180 279 152 251 l 180 279 q 245 325 206 306 q 324 345 285 345 l 324 345 q 412 332 373 345 q 484 303 450 319 l 484 303 q 548 275 519 287 q 612 262 576 262 l 612 262 q 686 295 658 262 q 740 378 714 328 l 740 378 z m 740 637 l 791 616 q 759 551 779 583 q 713 494 739 519 l 713 494 q 648 446 682 464 q 568 427 614 427 l 568 427 q 483 440 522 427 q 411 468 444 452 l 411 468 q 346 495 382 481 q 281 509 309 509 l 281 509 q 207 479 233 509 q 153 397 181 449 l 153 397 l 102 418 q 132 478 113 446 q 180 538 152 510 l 180 538 q 245 584 206 565 q 324 604 285 604 l 324 604 q 412 591 373 604 q 484 562 450 578 l 484 562 q 548 534 519 546 q 612 522 576 522 l 612 522 q 686 554 658 522 q 740 637 714 587 l 740 637 z "},"":{"ha":893,"x_min":104,"x_max":789,"o":"m 789 296 l 789 211 l 438 211 l 377 0 l 298 0 l 359 211 l 104 211 l 104 296 l 384 296 l 432 463 l 104 463 l 104 548 l 455 548 l 516 759 l 595 759 l 534 548 l 789 548 l 789 463 l 509 463 l 462 296 l 789 296 z "},"":{"ha":810,"x_min":null,"x_max":null,"o":""},"":{"ha":893,"x_min":123,"x_max":770,"o":"m 770 230 l 770 136 l 123 401 l 123 479 l 770 745 l 770 651 l 245 441 l 770 230 z m 123 85 l 770 85 l 770 0 l 123 0 l 123 85 z "},"":{"ha":893,"x_min":123,"x_max":770,"o":"m 770 479 l 770 401 l 123 136 l 123 230 l 648 441 l 123 651 l 123 745 l 770 479 z m 770 85 l 770 0 l 123 0 l 123 85 l 770 85 z "},"":{"ha":839,"x_min":null,"x_max":null,"o":""},"":{"ha":811,"x_min":null,"x_max":null,"o":""},"":{"ha":839,"x_min":null,"x_max":null,"o":""},"":{"ha":839,"x_min":null,"x_max":null,"o":""},"":{"ha":984,"x_min":null,"x_max":null,"o":""},"":{"ha":868,"x_min":null,"x_max":null,"o":""},"":{"ha":984,"x_min":null,"x_max":null,"o":""},"":{"ha":984,"x_min":null,"x_max":null,"o":""},"":{"ha":984,"x_min":null,"x_max":null,"o":""},"":{"ha":984,"x_min":null,"x_max":null,"o":""},"":{"ha":984,"x_min":null,"x_max":null,"o":""},"":{"ha":984,"x_min":null,"x_max":null,"o":""},"":{"ha":984,"x_min":null,"x_max":null,"o":""},"":{"ha":984,"x_min":null,"x_max":null,"o":""},"":{"ha":984,"x_min":null,"x_max":null,"o":""},"":{"ha":984,"x_min":null,"x_max":null,"o":""},"":{"ha":984,"x_min":null,"x_max":null,"o":""},"":{"ha":984,"x_min":null,"x_max":null,"o":""},"":{"ha":984,"x_min":null,"x_max":null,"o":""},"":{"ha":984,"x_min":null,"x_max":null,"o":""},"":{"ha":984,"x_min":null,"x_max":null,"o":""},"":{"ha":984,"x_min":null,"x_max":null,"o":""},"":{"ha":984,"x_min":null,"x_max":null,"o":""},"":{"ha":984,"x_min":null,"x_max":null,"o":""},"":{"ha":984,"x_min":null,"x_max":null,"o":""},"":{"ha":984,"x_min":null,"x_max":null,"o":""},"":{"ha":984,"x_min":null,"x_max":null,"o":""},"":{"ha":984,"x_min":null,"x_max":null,"o":""},"":{"ha":984,"x_min":null,"x_max":null,"o":""},"":{"ha":984,"x_min":null,"x_max":null,"o":""},"":{"ha":984,"x_min":null,"x_max":null,"o":""},"":{"ha":984,"x_min":null,"x_max":null,"o":""},"":{"ha":984,"x_min":null,"x_max":null,"o":""},"":{"ha":984,"x_min":null,"x_max":null,"o":""},"":{"ha":984,"x_min":null,"x_max":null,"o":""},"":{"ha":984,"x_min":null,"x_max":null,"o":""},"":{"ha":984,"x_min":null,"x_max":null,"o":""},"":{"ha":984,"x_min":null,"x_max":null,"o":""},"":{"ha":984,"x_min":null,"x_max":null,"o":""},"":{"ha":984,"x_min":null,"x_max":null,"o":""},"":{"ha":984,"x_min":null,"x_max":null,"o":""},"":{"ha":984,"x_min":null,"x_max":null,"o":""},"":{"ha":984,"x_min":null,"x_max":null,"o":""},"":{"ha":984,"x_min":null,"x_max":null,"o":""},"":{"ha":984,"x_min":null,"x_max":null,"o":""},"":{"ha":984,"x_min":null,"x_max":null,"o":""},"":{"ha":984,"x_min":null,"x_max":null,"o":""},"":{"ha":984,"x_min":null,"x_max":null,"o":""},"":{"ha":984,"x_min":null,"x_max":null,"o":""},"":{"ha":984,"x_min":null,"x_max":null,"o":""},"":{"ha":984,"x_min":null,"x_max":null,"o":""},"":{"ha":1013,"x_min":null,"x_max":null,"o":""},"":{"ha":839,"x_min":null,"x_max":null,"o":""},"":{"ha":839,"x_min":null,"x_max":null,"o":""},"":{"ha":492,"x_min":null,"x_max":null,"o":""},"":{"ha":492,"x_min":null,"x_max":null,"o":""},"":{"ha":1389,"x_min":null,"x_max":null,"o":""},"":{"ha":1375,"x_min":null,"x_max":null,"o":""},"":{"ha":1375,"x_min":null,"x_max":null,"o":""},"":{"ha":1375,"x_min":null,"x_max":null,"o":""},"":{"ha":1375,"x_min":null,"x_max":null,"o":""},"":{"ha":780,"x_min":44,"x_max":736,"o":"m 390 779 l 736 389 l 390 0 l 44 389 l 390 779 z m 390 115 l 629 389 l 390 664 l 151 389 l 390 115 z "},"":{"ha":839,"x_min":null,"x_max":null,"o":""},"":{"ha":839,"x_min":null,"x_max":null,"o":""},"":{"ha":839,"x_min":null,"x_max":null,"o":""},"":{"ha":839,"x_min":null,"x_max":null,"o":""},"":{"ha":492,"x_min":null,"x_max":null,"o":""},"":{"ha":1418,"x_min":null,"x_max":null,"o":""},"":{"ha":1461,"x_min":null,"x_max":null,"o":""},"":{"ha":1273,"x_min":null,"x_max":null,"o":""},"":{"ha":1042,"x_min":null,"x_max":null,"o":""},"":{"ha":1042,"x_min":null,"x_max":null,"o":""},"":{"ha":738,"x_min":null,"x_max":null,"o":""},"":{"ha":911,"x_min":null,"x_max":null,"o":""},"":{"ha":825,"x_min":null,"x_max":null,"o":""},"":{"ha":709,"x_min":null,"x_max":null,"o":""},"":{"ha":694,"x_min":null,"x_max":null,"o":""},"":{"ha":1042,"x_min":null,"x_max":null,"o":""},"":{"ha":809,"x_min":16,"x_max":776,"o":"m 715 60 q 744 50 730 54 q 776 45 758 46 l 776 45 l 776 0 l 455 0 l 455 45 q 486 48 471 46 q 513 54 501 50 l 513 54 q 542 75 532 60 q 551 115 551 90 l 551 115 l 551 543 q 546 576 551 564 q 531 604 541 589 l 531 604 l 275 604 l 275 121 q 284 83 275 98 q 313 60 293 68 l 313 60 q 345 50 328 54 q 381 45 362 46 l 381 45 l 381 0 l 50 0 l 50 45 q 82 48 66 46 q 111 54 99 50 l 111 54 q 139 75 130 60 q 149 115 149 90 l 149 115 l 149 601 l 16 601 l 16 666 l 149 666 l 149 682 q 173 838 149 772 q 252 962 197 904 l 252 962 q 343 1024 285 998 q 465 1051 402 1051 l 465 1051 q 614 1021 562 1051 q 665 937 665 990 l 665 937 q 648 885 665 907 q 603 863 630 863 l 603 863 q 554 876 573 863 q 524 909 535 889 l 524 909 q 506 955 513 928 q 493 998 498 981 l 493 998 l 456 998 q 389 984 419 998 q 330 937 358 971 l 330 937 q 290 850 304 905 q 275 722 275 796 l 275 722 l 275 666 l 499 666 l 667 677 l 677 667 l 677 123 q 686 83 677 99 q 715 60 695 68 l 715 60 z "},"":{"ha":819,"x_min":16,"x_max":784,"o":"m 521 53 q 549 74 540 59 q 558 114 558 90 l 558 114 l 558 922 q 529 976 558 955 q 458 998 500 998 l 458 998 q 387 984 418 998 q 328 937 355 971 l 328 937 q 289 851 303 905 q 275 722 275 797 l 275 722 l 275 666 l 440 666 l 440 601 l 275 601 l 275 121 q 284 83 275 98 q 313 60 293 68 l 313 60 q 345 50 328 54 q 381 45 362 46 l 381 45 l 381 0 l 50 0 l 50 45 q 82 48 66 46 q 111 54 99 50 l 111 54 q 139 75 130 60 q 149 115 149 90 l 149 115 l 149 601 l 16 601 l 16 666 l 149 666 l 149 682 q 172 838 149 772 q 252 962 196 904 l 252 962 q 337 1022 280 994 q 465 1051 395 1051 l 465 1051 q 551 1044 511 1051 q 620 1024 590 1037 l 620 1024 l 675 1050 l 684 1040 l 684 122 q 693 83 684 98 q 722 60 702 68 l 722 60 q 751 50 736 53 q 784 45 766 46 l 784 45 l 784 0 l 458 0 l 458 45 q 492 48 474 46 q 521 53 509 50 l 521 53 z "},"":{"ha":463,"x_min":null,"x_max":null,"o":""},"":{"ha":463,"x_min":null,"x_max":null,"o":""}}}
